<svg width="63" height="63" viewBox="0 0 63 63" fill="none" xmlns="http://www.w3.org/2000/svg">
<path d="M0.46415 1.94816C0.542845 1.81485 0.624752 1.68315 0.701841 1.54824C1.10977 0.851187 1.90636 0.488206 2.64674 0.663272C3.44815 0.852793 4.01186 1.50809 4.07128 2.32559C4.08574 2.52475 4.07771 2.72712 4.07771 2.92789C4.07771 9.73297 4.07771 16.5397 4.07771 23.3447C4.07771 23.5825 4.07771 23.8185 4.07771 24.1333C4.33628 24.1333 4.54988 24.1333 4.76188 24.1333C9.27802 24.1333 13.7958 24.1269 18.3119 24.1414C18.7728 24.143 19.0667 24.0209 19.3526 23.6274C22.7526 18.9296 26.1766 14.2494 29.5943 9.56272C30.6607 8.09956 31.9374 8.09313 32.9958 9.54506C36.4375 14.2622 39.8744 18.9826 43.3306 23.6901C43.4816 23.8956 43.7899 24.1109 44.0276 24.1125C47.8612 24.1382 51.6964 24.1301 55.53 24.1285C55.6215 24.1285 55.7114 24.1093 55.9491 24.082C55.3051 23.4524 54.7478 22.9159 54.2018 22.3682C53.3811 21.5443 53.3297 20.4313 54.0653 19.6908C54.8073 18.944 55.909 18.9809 56.7409 19.8065C58.3228 21.3757 59.9 22.9513 61.4691 24.5333C62.37 25.4423 62.3604 26.4831 61.4466 27.3809C59.8438 28.9565 58.2345 30.5273 56.6221 32.0948C55.7773 32.9172 54.6788 32.9541 53.94 32.2024C53.2093 31.4604 53.2703 30.3377 54.0878 29.5234C54.629 28.9854 55.175 28.4538 55.7163 27.9173C55.7355 27.8981 55.7227 27.8435 55.7275 27.7471C55.5107 27.7471 55.2987 27.7471 55.0867 27.7471C51.0925 27.7471 47.0967 27.7326 43.1025 27.7583C42.1903 27.7648 41.5575 27.4371 41.0243 26.6999C37.9408 22.4389 34.8331 18.1988 31.7335 13.9506C31.6066 13.7755 31.4685 13.6085 31.3015 13.3933C31.1296 13.6133 30.9803 13.7916 30.8421 13.9811C27.7425 18.2277 24.6381 22.471 21.5561 26.7304C21.0357 27.45 20.4094 27.7615 19.5229 27.7583C14.6454 27.7358 9.76625 27.7487 4.88875 27.7487C4.64945 27.7487 4.41176 27.7487 4.12589 27.7487C4.12589 38.0535 4.12589 48.3214 4.12589 58.6358C6.51405 58.6358 8.92951 58.6358 11.4253 58.6358C11.4253 58.4158 11.4253 58.1829 11.4253 57.9516C11.4253 51.4276 11.4253 44.9019 11.4253 38.3779C11.4253 36.8521 12.0982 36.1824 13.6304 36.1808C15.7985 36.1792 17.9666 36.1792 20.1348 36.1808C21.5722 36.1824 22.2644 36.881 22.2644 38.3314C22.266 44.8554 22.2644 51.381 22.2644 57.905C22.2644 58.1411 22.2644 58.3788 22.2644 58.6486C23.4689 58.6486 24.6252 58.6486 25.8779 58.6486C25.8779 58.4318 25.8779 58.2021 25.8779 57.9709C25.8779 47.8331 25.8779 37.6937 25.8779 27.556C25.8779 25.9964 26.5444 25.3379 28.1231 25.3379C30.2511 25.3379 32.3791 25.3363 34.5071 25.3379C36.0424 25.3379 36.7186 26.0077 36.7186 27.5287C36.7186 37.6664 36.7186 47.8058 36.7186 57.9436C36.7186 58.162 36.7186 58.3804 36.7186 58.6406C37.9231 58.6406 39.0923 58.6406 40.3321 58.6406C40.3321 58.3997 40.3321 58.1652 40.3321 57.9323C40.3321 51.4083 40.3321 44.8827 40.3321 38.3587C40.3321 36.8666 41.0115 36.1808 42.4955 36.1808C44.6829 36.1792 46.8719 36.1792 49.0593 36.1808C50.4662 36.1824 51.1712 36.8859 51.1712 38.2896C51.1728 44.8136 51.1712 51.3392 51.1712 57.8633C51.1712 58.1042 51.1712 58.3451 51.1712 58.684C51.3993 58.684 51.6081 58.684 51.8184 58.684C54.5487 58.684 57.2789 58.684 60.0092 58.684C61.1559 58.684 61.8689 59.177 62.0906 60.115C62.2929 60.9679 61.8641 61.7067 60.8764 62.2078C60.8459 62.2238 60.8299 62.2656 60.8074 62.2961C41.1335 62.2961 21.4597 62.2961 1.78591 62.2961C1.19007 62.0086 0.748416 61.5669 0.460938 60.9711C0.46415 41.2978 0.46415 21.623 0.46415 1.94816ZM29.5348 28.9854C29.5348 38.8951 29.5348 48.7727 29.5348 58.6358C30.7474 58.6358 31.9182 58.6358 33.0633 58.6358C33.0633 48.7245 33.0633 38.8614 33.0633 28.9854C31.8652 28.9854 30.7104 28.9854 29.5348 28.9854ZM15.0806 39.825C15.0806 46.121 15.0806 52.3848 15.0806 58.6342C16.2931 58.6342 17.4623 58.6342 18.6106 58.6342C18.6106 52.3366 18.6106 46.0873 18.6106 39.825C17.4125 39.825 16.2578 39.825 15.0806 39.825ZM47.5271 58.6583C47.5271 52.3543 47.5271 46.1049 47.5271 39.8379C46.3226 39.8379 45.1534 39.8379 43.981 39.8379C43.981 46.1322 43.981 52.3832 43.981 58.6583C45.1695 58.6583 46.3258 58.6583 47.5271 58.6583Z" fill="#FFD12D"/>
</svg>
