<svg width="44" height="60" viewBox="0 0 44 60" fill="none" xmlns="http://www.w3.org/2000/svg">
<path d="M4.60517 59.195C4.16439 59.0521 3.70425 58.9563 3.28878 58.7587C1.33354 57.8301 0.283702 56.2449 0.261365 54.0471C0.222648 50.3447 0.250941 46.6407 0.250941 42.9368C0.250941 30.7443 0.250941 18.5502 0.250941 6.35774C0.250941 2.98208 2.34913 0.831447 5.64459 0.831447C13.199 0.831447 20.7534 0.839046 28.3077 0.820807C29.094 0.819287 29.6867 1.08071 30.2362 1.64458C34.5011 6.02033 38.7793 10.3839 43.0636 14.7399C43.5863 15.2719 43.8171 15.8585 43.8156 16.6154C43.8022 28.9219 43.8067 41.2299 43.8067 53.5364C43.8067 56.6157 42.4575 58.3894 39.5462 59.1387C39.512 59.1478 39.4822 59.1767 39.4509 59.1965C27.8357 59.195 16.2204 59.195 4.60517 59.195ZM27.0539 4.25118C26.7918 4.25118 26.6071 4.25118 26.424 4.25118C19.4816 4.25118 12.5393 4.25118 5.59694 4.25118C4.22247 4.25118 3.6015 4.89409 3.6015 6.31518C3.6015 22.1204 3.6015 37.9257 3.6015 53.731C3.6015 55.1353 4.23289 55.7752 5.61778 55.7752C16.5614 55.7752 27.5051 55.7752 38.4502 55.7752C39.8277 55.7752 40.4576 55.1308 40.4576 53.7203C40.4576 41.999 40.4576 30.2792 40.4576 18.5578C40.4576 18.3572 40.4576 18.1581 40.4576 17.9301C40.1732 17.9301 39.9706 17.9301 39.7681 17.9301C37.1994 17.9301 34.6306 17.9453 32.0633 17.9241C29.5854 17.9028 27.5572 16.1412 27.1492 13.6501C27.0464 13.0194 27.0628 12.3643 27.0598 11.7214C27.0494 9.25464 27.0539 6.78939 27.0539 4.25118ZM30.4044 6.82283C30.4044 8.78347 30.3985 10.732 30.4059 12.6805C30.4104 13.8097 31.1088 14.5043 32.2331 14.5089C33.9233 14.515 35.6134 14.5104 37.3036 14.5104C37.5166 14.5104 37.731 14.5104 37.941 14.5104C35.4184 11.9357 32.93 9.39751 30.4044 6.82283Z" fill="#FFD12D"/>
<path d="M22.0311 28.4168C18.7208 28.4168 15.4104 28.4229 12.1016 28.4138C10.7435 28.4108 9.90511 27.1325 10.4844 25.9592C10.8194 25.2798 11.3883 24.9941 12.1239 24.9956C15.1186 25.0001 18.1117 24.9971 21.1064 24.9971C24.7324 24.9971 28.3585 24.991 31.9845 25.0001C33.2801 25.0032 34.1184 26.2297 33.6121 27.3788C33.2875 28.1144 32.6904 28.4214 31.9071 28.4199C28.6146 28.4123 25.3236 28.4168 22.0311 28.4168Z" fill="#FFD12D"/>
<path d="M21.9907 35.2577C18.6997 35.2577 15.4072 35.2622 12.1162 35.2546C10.779 35.2516 9.92569 34.0296 10.4499 32.8639C10.7685 32.1556 11.3433 31.8349 12.1058 31.8364C14.058 31.841 16.0103 31.838 17.964 31.838C22.6131 31.838 27.2622 31.8349 31.9113 31.8395C33.2604 31.841 34.1197 33.028 33.6163 34.2044C33.2992 34.9446 32.7065 35.2607 31.9217 35.2592C28.6114 35.2546 25.301 35.2577 21.9907 35.2577Z" fill="#FFD12D"/>
<path d="M22.0861 38.6779C25.3771 38.6779 28.6696 38.6718 31.9606 38.6809C33.3172 38.6839 34.1496 39.9637 33.5703 41.1401C33.2353 41.821 32.662 42.1006 31.9293 42.0991C28.8796 42.0945 25.8298 42.0976 22.7801 42.0976C19.2285 42.0976 15.6769 42.1021 12.1253 42.0961C10.7851 42.093 9.92883 40.8771 10.4485 39.7114C10.7747 38.9773 11.3733 38.6733 12.1566 38.6748C15.4654 38.6824 18.7758 38.6779 22.0861 38.6779Z" fill="#FFD12D"/>
<path d="M18.6805 45.5171C20.8367 45.5171 22.993 45.5156 25.1493 45.5171C26.2855 45.5186 27.0449 46.2011 27.0509 47.2148C27.0569 48.2316 26.2944 48.9338 25.1701 48.9353C20.8382 48.9384 16.5078 48.9384 12.1759 48.9353C11.0561 48.9353 10.2922 48.224 10.3026 47.2087C10.313 46.2163 11.0695 45.5201 12.1551 45.5186C14.3307 45.5141 16.5063 45.5171 18.6805 45.5171Z" fill="#FFD12D"/>
</svg>
