<svg width="57" height="58" viewBox="0 0 57 58" fill="none" xmlns="http://www.w3.org/2000/svg">
<path d="M54.2898 33.4039C53.5498 34.3262 52.9877 35.3366 53.5242 36.6068C54.0472 37.8437 55.1037 38.2007 56.3335 38.3026C56.3335 40.6577 56.3335 42.9855 56.3335 45.3072C53.1233 46.1004 52.5778 47.4268 54.2461 50.2439C52.6169 51.8834 50.9953 53.5138 49.3163 55.2019C48.4633 54.5166 47.4701 53.9286 46.2117 54.4467C44.9502 54.9663 44.5976 56.0497 44.4845 57.2987C42.1621 57.2987 39.8697 57.2987 37.5216 57.2987C37.4704 57.0146 37.4237 56.7213 37.3664 56.4311C37.1991 55.5787 36.75 54.9314 35.9738 54.5363C35.1314 54.1079 34.8088 54.1641 34.1608 54.8326C31.8353 57.2318 28.3764 57.9794 25.314 56.7426C22.241 55.5012 20.2727 52.5064 20.1762 49.156C20.1144 47.0424 20.8303 46.266 22.9192 46.3739C24.4037 46.4498 25.8942 46.3891 27.3833 46.3891C27.5626 46.3891 27.7419 46.3891 28.0072 46.3891C27.3682 45.5549 26.5091 45.4911 25.6531 45.3361C25.6335 45.099 25.6154 44.8605 25.5913 44.5657C24.4896 44.5657 23.403 44.5672 22.3148 44.5657C20.8846 44.5642 20.1988 43.8759 20.1943 42.4415C20.1928 41.8338 20.3842 41.1044 20.1174 40.6547C19.8522 40.2079 19.1152 40.0545 18.5952 39.7536C12.8727 36.4503 9.81026 31.4696 9.36114 24.8448C9.35058 24.6929 9.39731 24.5105 9.32948 24.3966C9.17576 24.1367 9.00998 23.7933 8.76733 23.7022C8.5277 23.611 8.15544 23.725 7.90074 23.8617C7.64603 23.9985 7.45764 24.2659 7.25268 24.4892C7.04771 24.7111 6.85781 24.9466 6.69806 25.1335C4.9498 23.3679 3.26635 21.6676 1.48192 19.864C1.82554 19.5526 2.24452 19.1803 2.65446 18.7989C2.95136 18.5224 3.11111 18.1957 2.94081 17.7809C2.76448 17.3539 2.43291 17.205 1.99434 17.2156C1.45178 17.2278 0.909215 17.2187 0.333496 17.2187C0.333496 14.7891 0.333496 12.4036 0.333496 9.92533C0.81276 9.92533 1.31312 9.91469 1.81198 9.92837C2.28672 9.94052 2.72228 9.89798 2.93629 9.37529C3.15331 8.84348 2.84436 8.51224 2.50375 8.19164C2.14957 7.85736 1.79389 7.52308 1.4774 7.22679C3.23621 5.45663 4.92418 3.75789 6.68449 1.98469C6.90453 2.23692 7.13663 2.53929 7.4064 2.80216C7.79675 3.18202 8.11626 3.76549 8.81857 3.45248C9.50733 3.14707 9.32195 2.51346 9.34154 1.96494C9.3536 1.60635 9.34456 1.24776 9.34456 0.848145C11.7544 0.848145 14.1342 0.848145 16.5787 0.848145C16.5787 1.4149 16.5848 1.97861 16.5772 2.54081C16.5712 2.95866 16.7068 3.28078 17.1077 3.45552C17.5131 3.63329 17.8417 3.50566 18.125 3.20177C18.5109 2.78696 18.8906 2.36759 19.3096 1.91176C20.1536 2.76417 20.9237 3.54061 21.6939 4.31705C22.2937 4.92179 22.9131 5.50677 23.4828 6.13734C23.7858 6.47162 24.0917 6.54304 24.5227 6.48834C27.0924 6.16166 29.6801 6.09176 32.2377 6.4929C38.0084 7.39849 42.2841 10.524 45.1703 15.6172C45.2441 15.7494 45.3165 15.8816 45.3918 16.0122C45.4009 16.0274 45.4174 16.0366 45.5169 16.1308C45.5169 15.6567 45.5169 15.2571 45.5169 14.8559C45.5169 14.4578 45.5169 14.0597 45.5169 13.6146C46.1047 13.6146 46.6759 13.6146 47.3254 13.6146C47.3254 13.8014 47.3254 14.002 47.3254 14.2026C47.3254 17.4876 47.3872 20.7757 47.2998 24.0577C47.2531 25.7899 46.9457 27.516 46.7512 29.2998C47.2878 29.5551 47.4114 29.5201 49.3917 28.455C51.0149 30.0991 52.6365 31.7355 54.2898 33.4039ZM40.0853 36.0614C40.2118 35.9884 40.2631 35.9687 40.3008 35.9337C40.4681 35.7803 40.6384 35.6298 40.7966 35.4673C44.3172 31.851 45.8771 27.516 45.4189 22.4684C44.8161 15.8497 39.8727 10.1244 33.4916 8.5639C31.3575 8.04121 29.1948 8.09439 27.0306 8.10199C23.8581 8.11263 20.9479 8.99847 18.2893 10.7443C9.79669 16.3192 8.6965 28.6723 16.0753 35.6709C16.2125 35.8015 16.3617 35.9201 16.6043 36.1282C16.6043 34.5981 16.6043 33.22 16.6043 31.8479C18.428 31.8479 20.2049 31.8479 22.0224 31.8479C22.0224 35.4931 22.0224 39.0942 22.0224 42.7059C23.2387 42.7059 24.4127 42.7059 25.6486 42.7059C25.6486 39.6609 25.6486 36.6539 25.6486 33.6591C27.4737 33.6591 29.237 33.6591 31.0621 33.6591C31.0621 36.698 31.0621 39.705 31.0621 42.6968C32.2995 42.6968 33.4735 42.6968 34.6883 42.6968C34.6883 36.6175 34.6883 30.5853 34.6883 24.5515C36.5074 24.5515 38.2842 24.5515 40.0853 24.5515C40.0853 28.3882 40.0853 32.1837 40.0853 36.0614ZM54.5566 39.8509C51.8408 38.5852 51.0269 36.7102 51.88 33.8035C51.9191 33.6713 51.8332 33.4434 51.7292 33.3355C50.9697 32.5438 50.1995 31.7628 49.4098 31.0016C49.2983 30.8937 49.0375 30.836 48.8944 30.8892C48.0428 31.2022 47.1868 31.3313 46.2886 31.1414C46.1544 31.1125 45.9103 31.1566 45.8605 31.2478C45.6013 31.7188 45.3873 32.2156 45.1597 32.7019C50.3924 35.2804 52.109 41.1257 50.1528 45.7251C49.1717 48.0316 47.5651 49.7653 45.318 50.8502C42.3233 52.2967 39.3211 52.1721 36.3476 50.7271C36.1487 51.3455 35.9648 51.9168 35.7824 52.4851C37.6377 53.3694 37.6362 53.3709 38.9519 55.3432C39.0152 55.4389 39.1915 55.5012 39.3166 55.5027C40.4274 55.5149 41.5396 55.5209 42.6504 55.4966C42.8026 55.4936 43.0226 55.3432 43.0904 55.2003C44.2208 52.8194 46.4227 51.8925 48.8612 52.7662C49.0194 52.8224 49.3028 52.7631 49.4234 52.6477C50.2146 51.8895 50.9862 51.1085 51.7413 50.3123C51.8468 50.2014 51.898 49.937 51.8468 49.7896C50.9802 47.3053 51.898 45.0565 54.2265 43.961C54.3712 43.8926 54.537 43.6799 54.54 43.531C54.5672 42.3154 54.5566 41.1014 54.5566 39.8509ZM9.78765 20.1193C9.53295 19.9689 9.31592 19.8534 9.11246 19.7182C6.74026 18.1167 5.5436 15.8694 5.76214 13.0022C5.97916 10.1608 7.46066 8.06097 10.0469 6.91986C12.9089 5.6572 15.5569 6.20724 17.9155 8.25546C18.0693 8.38917 18.3632 8.53959 18.5063 8.47882C19.593 8.01538 20.6585 7.50181 21.6758 7.02774C20.9117 6.25738 20.1054 5.446 19.29 4.62397C18.4596 5.34419 17.486 5.59946 16.3994 5.13299C15.3248 4.6726 14.8335 3.78372 14.737 2.66844C13.5163 2.66844 12.3422 2.66844 11.1697 2.66844C11.0898 4.86557 8.60758 6.31816 6.59407 4.62853C5.7546 5.47487 4.91664 6.31664 4.07115 7.16905C4.79758 8.0169 5.0553 8.99695 4.59412 10.094C4.13897 11.1789 3.26032 11.6788 2.14505 11.7745C2.14505 13.0022 2.14505 14.1889 2.14505 15.3726C4.40272 15.4713 5.73802 18.0437 4.07567 19.9962C4.91363 20.841 5.75008 21.6828 6.60462 22.5443C7.40942 21.7937 8.37849 21.6038 9.46513 21.9411C9.57967 21.3014 9.68064 20.7271 9.78765 20.1193ZM22.0149 48.2352C21.8597 51.0948 22.8378 53.3436 25.3215 54.708C27.6666 55.9981 30.0162 55.7944 32.1563 54.1793C34.105 52.7084 34.8179 50.6572 34.6355 48.2337C30.4126 48.2352 26.2424 48.2352 22.0149 48.2352ZM36.4712 41.4022C36.4757 44.7161 38.9715 46.889 41.9315 46.2827C43.9706 45.8664 45.4883 44.0035 45.5124 41.893C45.5365 39.7567 44.0897 37.8908 42.0475 37.4137C41.6994 37.3331 41.4371 37.3985 41.1206 37.6218C39.8758 38.4955 38.6173 39.3586 37.3031 40.1198C36.6988 40.4708 36.2617 40.7641 36.4712 41.4022ZM43.0271 35.762C43.2638 35.8654 43.4522 35.9459 43.639 36.0325C46.3217 37.2739 47.7881 40.2125 47.1883 43.145C46.602 46.0077 44.058 48.1683 41.1493 48.2018C38.6384 48.2306 36.753 47.0865 35.4599 44.9243C35.365 44.7663 35.2067 44.5368 35.0726 44.5323C34.5195 44.5141 33.9633 44.5718 33.3138 44.6052C33.5368 45.0671 33.7373 45.4698 33.9242 45.8785C34.0869 46.2341 34.3024 46.4073 34.738 46.4103C35.6739 46.4164 36.4486 47.1716 36.4471 48.1076C36.4471 48.6075 36.6792 48.8035 37.0439 49.0071C40.2329 50.7803 44.156 50.2302 46.7331 47.6365C49.3209 45.0322 49.883 41.0254 48.0911 37.8209C47.1853 36.2027 45.8831 35.0236 44.1741 34.2897C43.7852 34.7881 43.4265 35.25 43.0271 35.762ZM10.2925 18.3355C10.4613 17.9085 10.5518 17.5499 10.7326 17.246C10.9979 16.8024 10.8909 16.5456 10.5141 16.2113C9.28879 15.1188 9.00244 13.3532 9.75148 11.8976C10.5111 10.4222 12.1433 9.63208 13.7378 10.0347C14.2894 10.173 14.8018 10.4678 15.376 10.7094C15.7784 10.3827 16.2261 10.018 16.6767 9.65183C15.26 8.17948 12.9616 7.70846 11.0069 8.4697C8.99491 9.25222 7.58575 11.2184 7.54355 13.3714C7.50286 15.523 8.44179 17.1427 10.2925 18.3355ZM36.4712 38.5441C36.9761 38.2615 37.3724 38.0108 37.7929 37.8148C38.1938 37.6279 38.2918 37.3514 38.2903 36.9199C38.2707 33.6014 38.2797 30.2844 38.2797 26.9659C38.2797 26.7654 38.2797 26.5663 38.2797 26.381C37.6302 26.381 37.059 26.381 36.4712 26.381C36.4712 30.3133 36.4712 34.2 36.4712 38.0853C36.4712 38.1977 36.4712 38.3102 36.4712 38.5441ZM27.4496 42.6983C28.0765 42.6983 28.6477 42.6983 29.2099 42.6983C29.2099 40.2702 29.2099 37.8862 29.2099 35.4855C28.6116 35.4855 28.0404 35.4855 27.4496 35.4855C27.4496 37.9029 27.4496 40.287 27.4496 42.6983ZM18.3858 33.65C18.3858 34.8884 18.3827 36.0766 18.3903 37.2663C18.3903 37.3666 18.434 37.514 18.5063 37.5595C19.0368 37.8877 19.5809 38.1962 20.1627 38.535C20.1627 36.8363 20.1627 35.2545 20.1627 33.65C19.5749 33.65 19.0187 33.65 18.3858 33.65ZM11.8162 14.935C12.5291 13.9686 13.2194 13.0341 13.9111 12.0997C13.135 11.539 12.1583 11.6727 11.5585 12.4203C10.9391 13.1952 11.031 14.1798 11.8162 14.935ZM31.4208 44.6113C30.5572 44.6113 29.7298 44.6113 28.9627 44.6113C29.3274 45.134 29.6861 45.6582 30.0584 46.1718C30.1262 46.2645 30.2468 46.3754 30.3463 46.3784C30.9174 46.3982 31.4902 46.3875 32.1036 46.3875C31.8609 45.7539 31.6454 45.1933 31.4208 44.6113Z" fill="#F1F2F4"/>
<path d="M54.2898 33.4039C53.5498 34.3262 52.9877 35.3366 53.5242 36.6068C54.0472 37.8437 55.1037 38.2007 56.3335 38.3026C56.3335 40.6577 56.3335 42.9855 56.3335 45.3072C53.1233 46.1004 52.5778 47.4268 54.2461 50.2439C52.6169 51.8834 50.9953 53.5138 49.3163 55.2019C48.4633 54.5166 47.4701 53.9286 46.2117 54.4467C44.9502 54.9663 44.5976 56.0497 44.4845 57.2987C42.1621 57.2987 39.8697 57.2987 37.5216 57.2987C37.4704 57.0146 37.4237 56.7213 37.3664 56.4311C37.1991 55.5787 36.75 54.9314 35.9738 54.5363C35.1314 54.1079 34.8088 54.1641 34.1608 54.8326C31.8353 57.2318 28.3764 57.9794 25.314 56.7426C22.241 55.5012 20.2727 52.5064 20.1762 49.156C20.1144 47.0424 20.8303 46.266 22.9192 46.3739C24.4037 46.4498 25.8942 46.3891 27.3833 46.3891C27.5626 46.3891 27.7419 46.3891 28.0072 46.3891C27.3682 45.5549 26.5091 45.4911 25.6531 45.3361C25.6335 45.099 25.6154 44.8605 25.5913 44.5657C24.4896 44.5657 23.403 44.5672 22.3148 44.5657C20.8846 44.5642 20.1988 43.8759 20.1943 42.4415C20.1928 41.8338 20.3842 41.1044 20.1174 40.6547C19.8522 40.2079 19.1152 40.0545 18.5952 39.7536C12.8727 36.4503 9.81026 31.4696 9.36114 24.8448C9.35058 24.6929 9.39731 24.5105 9.32948 24.3966C9.17576 24.1367 9.00998 23.7933 8.76733 23.7022C8.5277 23.611 8.15544 23.725 7.90074 23.8617C7.64603 23.9985 7.45764 24.2659 7.25268 24.4892C7.04771 24.7111 6.85781 24.9466 6.69806 25.1335C4.9498 23.3679 3.26635 21.6676 1.48192 19.864C1.82554 19.5526 2.24452 19.1803 2.65446 18.7989C2.95136 18.5224 3.11111 18.1957 2.94081 17.7809C2.76448 17.3539 2.43291 17.205 1.99434 17.2156C1.45178 17.2278 0.909215 17.2187 0.333496 17.2187C0.333496 14.7891 0.333496 12.4036 0.333496 9.92533C0.81276 9.92533 1.31312 9.91469 1.81198 9.92837C2.28672 9.94052 2.72228 9.89798 2.93629 9.37529C3.15331 8.84348 2.84436 8.51224 2.50375 8.19164C2.14957 7.85736 1.79389 7.52308 1.4774 7.22679C3.23621 5.45663 4.92418 3.75789 6.68449 1.98469C6.90453 2.23692 7.13663 2.53929 7.4064 2.80216C7.79675 3.18202 8.11626 3.76549 8.81857 3.45248C9.50733 3.14707 9.32195 2.51346 9.34154 1.96494C9.3536 1.60635 9.34456 1.24776 9.34456 0.848145C11.7544 0.848145 14.1342 0.848145 16.5787 0.848145C16.5787 1.4149 16.5848 1.97861 16.5772 2.54081C16.5712 2.95866 16.7068 3.28078 17.1077 3.45552C17.5131 3.63329 17.8417 3.50566 18.125 3.20177C18.5109 2.78696 18.8906 2.36759 19.3096 1.91176C20.1536 2.76417 20.9237 3.54061 21.6939 4.31705C22.2937 4.92179 22.9131 5.50677 23.4828 6.13734C23.7858 6.47162 24.0917 6.54304 24.5227 6.48834C27.0924 6.16166 29.6801 6.09176 32.2377 6.4929C38.0084 7.39849 42.2841 10.524 45.1703 15.6172C45.2441 15.7494 45.3165 15.8816 45.3918 16.0122C45.4009 16.0274 45.4174 16.0366 45.5169 16.1308C45.5169 15.6567 45.5169 15.2571 45.5169 14.8559C45.5169 14.4578 45.5169 14.0597 45.5169 13.6146C46.1047 13.6146 46.6759 13.6146 47.3254 13.6146C47.3254 13.8014 47.3254 14.002 47.3254 14.2026C47.3254 17.4876 47.3872 20.7757 47.2998 24.0577C47.2531 25.7899 46.9457 27.516 46.7512 29.2998C47.2878 29.5551 47.4114 29.5201 49.3917 28.455C51.0149 30.0991 52.6365 31.7355 54.2898 33.4039ZM40.0853 36.0614C40.2118 35.9884 40.2631 35.9687 40.3008 35.9337C40.4681 35.7803 40.6384 35.6298 40.7966 35.4673C44.3172 31.851 45.8771 27.516 45.4189 22.4684C44.8161 15.8497 39.8727 10.1244 33.4916 8.5639C31.3575 8.04121 29.1948 8.09439 27.0306 8.10199C23.8581 8.11263 20.9479 8.99847 18.2893 10.7443C9.79669 16.3192 8.6965 28.6723 16.0753 35.6709C16.2125 35.8015 16.3617 35.9201 16.6043 36.1282C16.6043 34.5981 16.6043 33.22 16.6043 31.8479C18.428 31.8479 20.2049 31.8479 22.0224 31.8479C22.0224 35.4931 22.0224 39.0942 22.0224 42.7059C23.2387 42.7059 24.4127 42.7059 25.6486 42.7059C25.6486 39.6609 25.6486 36.6539 25.6486 33.6591C27.4737 33.6591 29.237 33.6591 31.0621 33.6591C31.0621 36.698 31.0621 39.705 31.0621 42.6968C32.2995 42.6968 33.4735 42.6968 34.6883 42.6968C34.6883 36.6175 34.6883 30.5853 34.6883 24.5515C36.5074 24.5515 38.2842 24.5515 40.0853 24.5515C40.0853 28.3882 40.0853 32.1837 40.0853 36.0614ZM54.5566 39.8509C51.8408 38.5852 51.0269 36.7102 51.88 33.8035C51.9191 33.6713 51.8332 33.4434 51.7292 33.3355C50.9697 32.5438 50.1995 31.7628 49.4098 31.0016C49.2983 30.8937 49.0375 30.836 48.8944 30.8892C48.0428 31.2022 47.1868 31.3313 46.2886 31.1414C46.1544 31.1125 45.9103 31.1566 45.8605 31.2478C45.6013 31.7188 45.3873 32.2156 45.1597 32.7019C50.3924 35.2804 52.109 41.1257 50.1528 45.7251C49.1717 48.0316 47.5651 49.7653 45.318 50.8502C42.3233 52.2967 39.3211 52.1721 36.3476 50.7271C36.1487 51.3455 35.9648 51.9168 35.7824 52.4851C37.6377 53.3694 37.6362 53.3709 38.9519 55.3432C39.0152 55.4389 39.1915 55.5012 39.3166 55.5027C40.4274 55.5149 41.5396 55.5209 42.6504 55.4966C42.8026 55.4936 43.0226 55.3432 43.0904 55.2003C44.2208 52.8194 46.4227 51.8925 48.8612 52.7662C49.0194 52.8224 49.3028 52.7631 49.4234 52.6477C50.2146 51.8895 50.9862 51.1085 51.7413 50.3123C51.8468 50.2014 51.898 49.937 51.8468 49.7896C50.9802 47.3053 51.898 45.0565 54.2265 43.961C54.3712 43.8926 54.537 43.6799 54.54 43.531C54.5672 42.3154 54.5566 41.1014 54.5566 39.8509ZM9.78765 20.1193C9.53295 19.9689 9.31592 19.8534 9.11246 19.7182C6.74026 18.1167 5.5436 15.8694 5.76214 13.0022C5.97916 10.1608 7.46066 8.06097 10.0469 6.91986C12.9089 5.6572 15.5569 6.20724 17.9155 8.25546C18.0693 8.38917 18.3632 8.53959 18.5063 8.47882C19.593 8.01538 20.6585 7.50181 21.6758 7.02774C20.9117 6.25738 20.1054 5.446 19.29 4.62397C18.4596 5.34419 17.486 5.59946 16.3994 5.13299C15.3248 4.6726 14.8335 3.78372 14.737 2.66844C13.5163 2.66844 12.3422 2.66844 11.1697 2.66844C11.0898 4.86557 8.60758 6.31816 6.59407 4.62853C5.7546 5.47487 4.91664 6.31664 4.07115 7.16905C4.79758 8.0169 5.0553 8.99695 4.59412 10.094C4.13897 11.1789 3.26032 11.6788 2.14505 11.7745C2.14505 13.0022 2.14505 14.1889 2.14505 15.3726C4.40272 15.4713 5.73802 18.0437 4.07567 19.9962C4.91363 20.841 5.75008 21.6828 6.60462 22.5443C7.40942 21.7937 8.37849 21.6038 9.46513 21.9411C9.57967 21.3014 9.68064 20.7271 9.78765 20.1193ZM22.0149 48.2352C21.8597 51.0948 22.8378 53.3436 25.3215 54.708C27.6666 55.9981 30.0162 55.7944 32.1563 54.1793C34.105 52.7084 34.8179 50.6572 34.6355 48.2337C30.4126 48.2352 26.2424 48.2352 22.0149 48.2352ZM36.4712 41.4022C36.4757 44.7161 38.9715 46.889 41.9315 46.2827C43.9706 45.8664 45.4883 44.0035 45.5124 41.893C45.5365 39.7567 44.0897 37.8908 42.0475 37.4137C41.6994 37.3331 41.4371 37.3985 41.1206 37.6218C39.8758 38.4955 38.6173 39.3586 37.3031 40.1198C36.6988 40.4708 36.2617 40.7641 36.4712 41.4022ZM43.0271 35.762C43.2638 35.8654 43.4522 35.9459 43.639 36.0325C46.3217 37.2739 47.7881 40.2125 47.1883 43.145C46.602 46.0077 44.058 48.1683 41.1493 48.2018C38.6384 48.2306 36.753 47.0865 35.4599 44.9243C35.365 44.7663 35.2067 44.5368 35.0726 44.5323C34.5195 44.5141 33.9633 44.5718 33.3138 44.6052C33.5368 45.0671 33.7373 45.4698 33.9242 45.8785C34.0869 46.2341 34.3024 46.4073 34.738 46.4103C35.6739 46.4164 36.4486 47.1716 36.4471 48.1076C36.4471 48.6075 36.6792 48.8035 37.0439 49.0071C40.2329 50.7803 44.156 50.2302 46.7331 47.6365C49.3209 45.0322 49.883 41.0254 48.0911 37.8209C47.1853 36.2027 45.8831 35.0236 44.1741 34.2897C43.7852 34.7881 43.4265 35.25 43.0271 35.762ZM10.2925 18.3355C10.4613 17.9085 10.5518 17.5499 10.7326 17.246C10.9979 16.8024 10.8909 16.5456 10.5141 16.2113C9.28879 15.1188 9.00244 13.3532 9.75148 11.8976C10.5111 10.4222 12.1433 9.63208 13.7378 10.0347C14.2894 10.173 14.8018 10.4678 15.376 10.7094C15.7784 10.3827 16.2261 10.018 16.6767 9.65183C15.26 8.17948 12.9616 7.70846 11.0069 8.4697C8.99491 9.25222 7.58575 11.2184 7.54355 13.3714C7.50286 15.523 8.44179 17.1427 10.2925 18.3355ZM36.4712 38.5441C36.9761 38.2615 37.3724 38.0108 37.7929 37.8148C38.1938 37.6279 38.2918 37.3514 38.2903 36.9199C38.2707 33.6014 38.2797 30.2844 38.2797 26.9659C38.2797 26.7654 38.2797 26.5663 38.2797 26.381C37.6302 26.381 37.059 26.381 36.4712 26.381C36.4712 30.3133 36.4712 34.2 36.4712 38.0853C36.4712 38.1977 36.4712 38.3102 36.4712 38.5441ZM27.4496 42.6983C28.0765 42.6983 28.6477 42.6983 29.2099 42.6983C29.2099 40.2702 29.2099 37.8862 29.2099 35.4855C28.6116 35.4855 28.0404 35.4855 27.4496 35.4855C27.4496 37.9029 27.4496 40.287 27.4496 42.6983ZM18.3858 33.65C18.3858 34.8884 18.3827 36.0766 18.3903 37.2663C18.3903 37.3666 18.434 37.514 18.5063 37.5595C19.0368 37.8877 19.5809 38.1962 20.1627 38.535C20.1627 36.8363 20.1627 35.2545 20.1627 33.65C19.5749 33.65 19.0187 33.65 18.3858 33.65ZM11.8162 14.935C12.5291 13.9686 13.2194 13.0341 13.9111 12.0997C13.135 11.539 12.1583 11.6727 11.5585 12.4203C10.9391 13.1952 11.031 14.1798 11.8162 14.935ZM31.4208 44.6113C30.5572 44.6113 29.7298 44.6113 28.9627 44.6113C29.3274 45.134 29.6861 45.6582 30.0584 46.1718C30.1262 46.2645 30.2468 46.3754 30.3463 46.3784C30.9174 46.3982 31.4902 46.3875 32.1036 46.3875C31.8609 45.7539 31.6454 45.1933 31.4208 44.6113Z" fill="url(#paint0_linear_540_880)"/>
<path d="M54.2898 33.4039C53.5498 34.3262 52.9877 35.3366 53.5242 36.6068C54.0472 37.8437 55.1037 38.2007 56.3335 38.3026C56.3335 40.6577 56.3335 42.9855 56.3335 45.3072C53.1233 46.1004 52.5778 47.4268 54.2461 50.2439C52.6169 51.8834 50.9953 53.5138 49.3163 55.2019C48.4633 54.5166 47.4701 53.9286 46.2117 54.4467C44.9502 54.9663 44.5976 56.0497 44.4845 57.2987C42.1621 57.2987 39.8697 57.2987 37.5216 57.2987C37.4704 57.0146 37.4237 56.7213 37.3664 56.4311C37.1991 55.5787 36.75 54.9314 35.9738 54.5363C35.1314 54.1079 34.8088 54.1641 34.1608 54.8326C31.8353 57.2318 28.3764 57.9794 25.314 56.7426C22.241 55.5012 20.2727 52.5064 20.1762 49.156C20.1144 47.0424 20.8303 46.266 22.9192 46.3739C24.4037 46.4498 25.8942 46.3891 27.3833 46.3891C27.5626 46.3891 27.7419 46.3891 28.0072 46.3891C27.3682 45.5549 26.5091 45.4911 25.6531 45.3361C25.6335 45.099 25.6154 44.8605 25.5913 44.5657C24.4896 44.5657 23.403 44.5672 22.3148 44.5657C20.8846 44.5642 20.1988 43.8759 20.1943 42.4415C20.1928 41.8338 20.3842 41.1044 20.1174 40.6547C19.8522 40.2079 19.1152 40.0545 18.5952 39.7536C12.8727 36.4503 9.81026 31.4696 9.36114 24.8448C9.35058 24.6929 9.39731 24.5105 9.32948 24.3966C9.17576 24.1367 9.00998 23.7933 8.76733 23.7022C8.5277 23.611 8.15544 23.725 7.90074 23.8617C7.64603 23.9985 7.45764 24.2659 7.25268 24.4892C7.04771 24.7111 6.85781 24.9466 6.69806 25.1335C4.9498 23.3679 3.26635 21.6676 1.48192 19.864C1.82554 19.5526 2.24452 19.1803 2.65446 18.7989C2.95136 18.5224 3.11111 18.1957 2.94081 17.7809C2.76448 17.3539 2.43291 17.205 1.99434 17.2156C1.45178 17.2278 0.909215 17.2187 0.333496 17.2187C0.333496 14.7891 0.333496 12.4036 0.333496 9.92533C0.81276 9.92533 1.31312 9.91469 1.81198 9.92837C2.28672 9.94052 2.72228 9.89798 2.93629 9.37529C3.15331 8.84348 2.84436 8.51224 2.50375 8.19164C2.14957 7.85736 1.79389 7.52308 1.4774 7.22679C3.23621 5.45663 4.92418 3.75789 6.68449 1.98469C6.90453 2.23692 7.13663 2.53929 7.4064 2.80216C7.79675 3.18202 8.11626 3.76549 8.81857 3.45248C9.50733 3.14707 9.32195 2.51346 9.34154 1.96494C9.3536 1.60635 9.34456 1.24776 9.34456 0.848145C11.7544 0.848145 14.1342 0.848145 16.5787 0.848145C16.5787 1.4149 16.5848 1.97861 16.5772 2.54081C16.5712 2.95866 16.7068 3.28078 17.1077 3.45552C17.5131 3.63329 17.8417 3.50566 18.125 3.20177C18.5109 2.78696 18.8906 2.36759 19.3096 1.91176C20.1536 2.76417 20.9237 3.54061 21.6939 4.31705C22.2937 4.92179 22.9131 5.50677 23.4828 6.13734C23.7858 6.47162 24.0917 6.54304 24.5227 6.48834C27.0924 6.16166 29.6801 6.09176 32.2377 6.4929C38.0084 7.39849 42.2841 10.524 45.1703 15.6172C45.2441 15.7494 45.3165 15.8816 45.3918 16.0122C45.4009 16.0274 45.4174 16.0366 45.5169 16.1308C45.5169 15.6567 45.5169 15.2571 45.5169 14.8559C45.5169 14.4578 45.5169 14.0597 45.5169 13.6146C46.1047 13.6146 46.6759 13.6146 47.3254 13.6146C47.3254 13.8014 47.3254 14.002 47.3254 14.2026C47.3254 17.4876 47.3872 20.7757 47.2998 24.0577C47.2531 25.7899 46.9457 27.516 46.7512 29.2998C47.2878 29.5551 47.4114 29.5201 49.3917 28.455C51.0149 30.0991 52.6365 31.7355 54.2898 33.4039ZM40.0853 36.0614C40.2118 35.9884 40.2631 35.9687 40.3008 35.9337C40.4681 35.7803 40.6384 35.6298 40.7966 35.4673C44.3172 31.851 45.8771 27.516 45.4189 22.4684C44.8161 15.8497 39.8727 10.1244 33.4916 8.5639C31.3575 8.04121 29.1948 8.09439 27.0306 8.10199C23.8581 8.11263 20.9479 8.99847 18.2893 10.7443C9.79669 16.3192 8.6965 28.6723 16.0753 35.6709C16.2125 35.8015 16.3617 35.9201 16.6043 36.1282C16.6043 34.5981 16.6043 33.22 16.6043 31.8479C18.428 31.8479 20.2049 31.8479 22.0224 31.8479C22.0224 35.4931 22.0224 39.0942 22.0224 42.7059C23.2387 42.7059 24.4127 42.7059 25.6486 42.7059C25.6486 39.6609 25.6486 36.6539 25.6486 33.6591C27.4737 33.6591 29.237 33.6591 31.0621 33.6591C31.0621 36.698 31.0621 39.705 31.0621 42.6968C32.2995 42.6968 33.4735 42.6968 34.6883 42.6968C34.6883 36.6175 34.6883 30.5853 34.6883 24.5515C36.5074 24.5515 38.2842 24.5515 40.0853 24.5515C40.0853 28.3882 40.0853 32.1837 40.0853 36.0614ZM54.5566 39.8509C51.8408 38.5852 51.0269 36.7102 51.88 33.8035C51.9191 33.6713 51.8332 33.4434 51.7292 33.3355C50.9697 32.5438 50.1995 31.7628 49.4098 31.0016C49.2983 30.8937 49.0375 30.836 48.8944 30.8892C48.0428 31.2022 47.1868 31.3313 46.2886 31.1414C46.1544 31.1125 45.9103 31.1566 45.8605 31.2478C45.6013 31.7188 45.3873 32.2156 45.1597 32.7019C50.3924 35.2804 52.109 41.1257 50.1528 45.7251C49.1717 48.0316 47.5651 49.7653 45.318 50.8502C42.3233 52.2967 39.3211 52.1721 36.3476 50.7271C36.1487 51.3455 35.9648 51.9168 35.7824 52.4851C37.6377 53.3694 37.6362 53.3709 38.9519 55.3432C39.0152 55.4389 39.1915 55.5012 39.3166 55.5027C40.4274 55.5149 41.5396 55.5209 42.6504 55.4966C42.8026 55.4936 43.0226 55.3432 43.0904 55.2003C44.2208 52.8194 46.4227 51.8925 48.8612 52.7662C49.0194 52.8224 49.3028 52.7631 49.4234 52.6477C50.2146 51.8895 50.9862 51.1085 51.7413 50.3123C51.8468 50.2014 51.898 49.937 51.8468 49.7896C50.9802 47.3053 51.898 45.0565 54.2265 43.961C54.3712 43.8926 54.537 43.6799 54.54 43.531C54.5672 42.3154 54.5566 41.1014 54.5566 39.8509ZM9.78765 20.1193C9.53295 19.9689 9.31592 19.8534 9.11246 19.7182C6.74026 18.1167 5.5436 15.8694 5.76214 13.0022C5.97916 10.1608 7.46066 8.06097 10.0469 6.91986C12.9089 5.6572 15.5569 6.20724 17.9155 8.25546C18.0693 8.38917 18.3632 8.53959 18.5063 8.47882C19.593 8.01538 20.6585 7.50181 21.6758 7.02774C20.9117 6.25738 20.1054 5.446 19.29 4.62397C18.4596 5.34419 17.486 5.59946 16.3994 5.13299C15.3248 4.6726 14.8335 3.78372 14.737 2.66844C13.5163 2.66844 12.3422 2.66844 11.1697 2.66844C11.0898 4.86557 8.60758 6.31816 6.59407 4.62853C5.7546 5.47487 4.91664 6.31664 4.07115 7.16905C4.79758 8.0169 5.0553 8.99695 4.59412 10.094C4.13897 11.1789 3.26032 11.6788 2.14505 11.7745C2.14505 13.0022 2.14505 14.1889 2.14505 15.3726C4.40272 15.4713 5.73802 18.0437 4.07567 19.9962C4.91363 20.841 5.75008 21.6828 6.60462 22.5443C7.40942 21.7937 8.37849 21.6038 9.46513 21.9411C9.57967 21.3014 9.68064 20.7271 9.78765 20.1193ZM22.0149 48.2352C21.8597 51.0948 22.8378 53.3436 25.3215 54.708C27.6666 55.9981 30.0162 55.7944 32.1563 54.1793C34.105 52.7084 34.8179 50.6572 34.6355 48.2337C30.4126 48.2352 26.2424 48.2352 22.0149 48.2352ZM36.4712 41.4022C36.4757 44.7161 38.9715 46.889 41.9315 46.2827C43.9706 45.8664 45.4883 44.0035 45.5124 41.893C45.5365 39.7567 44.0897 37.8908 42.0475 37.4137C41.6994 37.3331 41.4371 37.3985 41.1206 37.6218C39.8758 38.4955 38.6173 39.3586 37.3031 40.1198C36.6988 40.4708 36.2617 40.7641 36.4712 41.4022ZM43.0271 35.762C43.2638 35.8654 43.4522 35.9459 43.639 36.0325C46.3217 37.2739 47.7881 40.2125 47.1883 43.145C46.602 46.0077 44.058 48.1683 41.1493 48.2018C38.6384 48.2306 36.753 47.0865 35.4599 44.9243C35.365 44.7663 35.2067 44.5368 35.0726 44.5323C34.5195 44.5141 33.9633 44.5718 33.3138 44.6052C33.5368 45.0671 33.7373 45.4698 33.9242 45.8785C34.0869 46.2341 34.3024 46.4073 34.738 46.4103C35.6739 46.4164 36.4486 47.1716 36.4471 48.1076C36.4471 48.6075 36.6792 48.8035 37.0439 49.0071C40.2329 50.7803 44.156 50.2302 46.7331 47.6365C49.3209 45.0322 49.883 41.0254 48.0911 37.8209C47.1853 36.2027 45.8831 35.0236 44.1741 34.2897C43.7852 34.7881 43.4265 35.25 43.0271 35.762ZM10.2925 18.3355C10.4613 17.9085 10.5518 17.5499 10.7326 17.246C10.9979 16.8024 10.8909 16.5456 10.5141 16.2113C9.28879 15.1188 9.00244 13.3532 9.75148 11.8976C10.5111 10.4222 12.1433 9.63208 13.7378 10.0347C14.2894 10.173 14.8018 10.4678 15.376 10.7094C15.7784 10.3827 16.2261 10.018 16.6767 9.65183C15.26 8.17948 12.9616 7.70846 11.0069 8.4697C8.99491 9.25222 7.58575 11.2184 7.54355 13.3714C7.50286 15.523 8.44179 17.1427 10.2925 18.3355ZM36.4712 38.5441C36.9761 38.2615 37.3724 38.0108 37.7929 37.8148C38.1938 37.6279 38.2918 37.3514 38.2903 36.9199C38.2707 33.6014 38.2797 30.2844 38.2797 26.9659C38.2797 26.7654 38.2797 26.5663 38.2797 26.381C37.6302 26.381 37.059 26.381 36.4712 26.381C36.4712 30.3133 36.4712 34.2 36.4712 38.0853C36.4712 38.1977 36.4712 38.3102 36.4712 38.5441ZM27.4496 42.6983C28.0765 42.6983 28.6477 42.6983 29.2099 42.6983C29.2099 40.2702 29.2099 37.8862 29.2099 35.4855C28.6116 35.4855 28.0404 35.4855 27.4496 35.4855C27.4496 37.9029 27.4496 40.287 27.4496 42.6983ZM18.3858 33.65C18.3858 34.8884 18.3827 36.0766 18.3903 37.2663C18.3903 37.3666 18.434 37.514 18.5063 37.5595C19.0368 37.8877 19.5809 38.1962 20.1627 38.535C20.1627 36.8363 20.1627 35.2545 20.1627 33.65C19.5749 33.65 19.0187 33.65 18.3858 33.65ZM11.8162 14.935C12.5291 13.9686 13.2194 13.0341 13.9111 12.0997C13.135 11.539 12.1583 11.6727 11.5585 12.4203C10.9391 13.1952 11.031 14.1798 11.8162 14.935ZM31.4208 44.6113C30.5572 44.6113 29.7298 44.6113 28.9627 44.6113C29.3274 45.134 29.6861 45.6582 30.0584 46.1718C30.1262 46.2645 30.2468 46.3754 30.3463 46.3784C30.9174 46.3982 31.4902 46.3875 32.1036 46.3875C31.8609 45.7539 31.6454 45.1933 31.4208 44.6113Z" fill="url(#paint1_linear_540_880)"/>
<path d="M3.93546 42.7322C3.05229 42.7322 2.27009 42.7322 1.38843 42.7322C3.45017 39.4076 5.46518 36.156 7.53445 32.8208C9.59921 36.1514 11.6097 39.3924 13.6684 42.7124C12.8109 42.7124 12.0196 42.7124 11.1681 42.7124C11.1681 47.605 11.1681 52.4338 11.1681 57.2976C10.5517 57.2976 9.99407 57.2976 9.38821 57.2976C9.38821 51.8777 9.38821 46.4411 9.38821 40.9468C9.67607 40.9331 9.98654 40.9195 10.4055 40.8997C9.44849 39.3544 8.52162 37.8563 7.53596 36.2639C6.56236 37.8319 5.63398 39.3286 4.65435 40.9073C5.05072 40.9073 5.35667 40.9073 5.69276 40.9073C5.69276 43.969 5.69276 46.976 5.69276 50.0103C5.11101 50.0103 4.55338 50.0103 3.93546 50.0103C3.93546 47.6096 3.93546 45.2104 3.93546 42.7322Z" fill="#F1F2F4"/>
<path d="M3.93546 42.7322C3.05229 42.7322 2.27009 42.7322 1.38843 42.7322C3.45017 39.4076 5.46518 36.156 7.53445 32.8208C9.59921 36.1514 11.6097 39.3924 13.6684 42.7124C12.8109 42.7124 12.0196 42.7124 11.1681 42.7124C11.1681 47.605 11.1681 52.4338 11.1681 57.2976C10.5517 57.2976 9.99407 57.2976 9.38821 57.2976C9.38821 51.8777 9.38821 46.4411 9.38821 40.9468C9.67607 40.9331 9.98654 40.9195 10.4055 40.8997C9.44849 39.3544 8.52162 37.8563 7.53596 36.2639C6.56236 37.8319 5.63398 39.3286 4.65435 40.9073C5.05072 40.9073 5.35667 40.9073 5.69276 40.9073C5.69276 43.969 5.69276 46.976 5.69276 50.0103C5.11101 50.0103 4.55338 50.0103 3.93546 50.0103C3.93546 47.6096 3.93546 45.2104 3.93546 42.7322Z" fill="url(#paint2_linear_540_880)"/>
<path d="M3.93546 42.7322C3.05229 42.7322 2.27009 42.7322 1.38843 42.7322C3.45017 39.4076 5.46518 36.156 7.53445 32.8208C9.59921 36.1514 11.6097 39.3924 13.6684 42.7124C12.8109 42.7124 12.0196 42.7124 11.1681 42.7124C11.1681 47.605 11.1681 52.4338 11.1681 57.2976C10.5517 57.2976 9.99407 57.2976 9.38821 57.2976C9.38821 51.8777 9.38821 46.4411 9.38821 40.9468C9.67607 40.9331 9.98654 40.9195 10.4055 40.8997C9.44849 39.3544 8.52162 37.8563 7.53596 36.2639C6.56236 37.8319 5.63398 39.3286 4.65435 40.9073C5.05072 40.9073 5.35667 40.9073 5.69276 40.9073C5.69276 43.969 5.69276 46.976 5.69276 50.0103C5.11101 50.0103 4.55338 50.0103 3.93546 50.0103C3.93546 47.6096 3.93546 45.2104 3.93546 42.7322Z" fill="url(#paint3_linear_540_880)"/>
<path d="M52.7677 24.4834C52.1091 24.4834 51.5515 24.4834 50.9697 24.4834C50.9697 19.0194 50.9697 13.5813 50.9697 8.11282C51.2968 8.11282 51.5937 8.11282 52.0217 8.11282C51.0451 6.53412 50.1197 5.03746 49.134 3.44204C48.1619 5.00859 47.2336 6.50525 46.2539 8.08243C46.6428 8.08243 46.9502 8.08243 47.2878 8.08243C47.2878 9.3223 47.2878 10.506 47.2878 11.72C46.7121 11.72 46.1545 11.72 45.5335 11.72C45.5335 11.1472 45.5335 10.5713 45.5335 9.93616C44.676 9.93616 43.8802 9.93616 42.9714 9.93616C45.0467 6.58882 47.0618 3.3372 49.131 0.000488281C51.1958 3.3296 53.2063 6.57058 55.2635 9.88906C54.409 9.88906 53.6177 9.88906 52.7677 9.88906C52.7677 14.7817 52.7677 19.612 52.7677 24.4834Z" fill="#F1F2F4"/>
<path d="M52.7677 24.4834C52.1091 24.4834 51.5515 24.4834 50.9697 24.4834C50.9697 19.0194 50.9697 13.5813 50.9697 8.11282C51.2968 8.11282 51.5937 8.11282 52.0217 8.11282C51.0451 6.53412 50.1197 5.03746 49.134 3.44204C48.1619 5.00859 47.2336 6.50525 46.2539 8.08243C46.6428 8.08243 46.9502 8.08243 47.2878 8.08243C47.2878 9.3223 47.2878 10.506 47.2878 11.72C46.7121 11.72 46.1545 11.72 45.5335 11.72C45.5335 11.1472 45.5335 10.5713 45.5335 9.93616C44.676 9.93616 43.8802 9.93616 42.9714 9.93616C45.0467 6.58882 47.0618 3.3372 49.131 0.000488281C51.1958 3.3296 53.2063 6.57058 55.2635 9.88906C54.409 9.88906 53.6177 9.88906 52.7677 9.88906C52.7677 14.7817 52.7677 19.612 52.7677 24.4834Z" fill="url(#paint4_linear_540_880)"/>
<path d="M52.7677 24.4834C52.1091 24.4834 51.5515 24.4834 50.9697 24.4834C50.9697 19.0194 50.9697 13.5813 50.9697 8.11282C51.2968 8.11282 51.5937 8.11282 52.0217 8.11282C51.0451 6.53412 50.1197 5.03746 49.134 3.44204C48.1619 5.00859 47.2336 6.50525 46.2539 8.08243C46.6428 8.08243 46.9502 8.08243 47.2878 8.08243C47.2878 9.3223 47.2878 10.506 47.2878 11.72C46.7121 11.72 46.1545 11.72 45.5335 11.72C45.5335 11.1472 45.5335 10.5713 45.5335 9.93616C44.676 9.93616 43.8802 9.93616 42.9714 9.93616C45.0467 6.58882 47.0618 3.3372 49.131 0.000488281C51.1958 3.3296 53.2063 6.57058 55.2635 9.88906C54.409 9.88906 53.6177 9.88906 52.7677 9.88906C52.7677 14.7817 52.7677 19.612 52.7677 24.4834Z" fill="url(#paint5_linear_540_880)"/>
<path d="M5.68677 57.3053C5.08844 57.3053 4.53231 57.3053 3.94604 57.3053C3.94604 55.5048 3.94604 53.7286 3.94604 51.9067C4.50519 51.9067 5.07638 51.9067 5.68677 51.9067C5.68677 53.6815 5.68677 55.4698 5.68677 57.3053Z" fill="#F1F2F4"/>
<path d="M5.68677 57.3053C5.08844 57.3053 4.53231 57.3053 3.94604 57.3053C3.94604 55.5048 3.94604 53.7286 3.94604 51.9067C4.50519 51.9067 5.07638 51.9067 5.68677 51.9067C5.68677 53.6815 5.68677 55.4698 5.68677 57.3053Z" fill="url(#paint6_linear_540_880)"/>
<path d="M5.68677 57.3053C5.08844 57.3053 4.53231 57.3053 3.94604 57.3053C3.94604 55.5048 3.94604 53.7286 3.94604 51.9067C4.50519 51.9067 5.07638 51.9067 5.68677 51.9067C5.68677 53.6815 5.68677 55.4698 5.68677 57.3053Z" fill="url(#paint7_linear_540_880)"/>
<path d="M23.8747 26.334C24.681 23.8938 26.3238 22.584 28.5182 22.7147C29.1903 22.7542 29.8444 23.0839 30.5151 23.2465C30.6899 23.289 30.9597 23.2753 31.0742 23.1675C31.8278 22.4518 32.5407 21.6921 33.2882 20.9703C33.5354 20.7318 33.5519 20.5555 33.3922 20.244C31.9649 17.4513 33.5534 14.2179 36.6174 13.6451C38.9821 13.2029 41.3257 14.8181 41.7959 17.2127C42.2767 19.6606 40.7499 22.0476 38.3777 22.5703C37.3047 22.8074 36.2753 22.6858 35.3123 22.1631C34.9973 21.9929 34.8044 21.9853 34.5451 22.2604C33.8458 23.0049 33.1043 23.7084 32.4065 24.4529C32.292 24.5745 32.2151 24.8784 32.286 25.006C33.6439 27.4645 32.4774 30.4714 30.0223 31.4682C27.4345 32.5181 24.5981 30.982 23.9395 28.3381C23.926 28.2865 23.8973 28.2379 23.8612 28.1573C23.2839 28.1573 22.6992 28.1239 22.122 28.1771C21.9471 28.1938 21.7467 28.4217 21.6397 28.6025C21.0293 29.6221 19.8552 30.1691 18.7475 29.9199C17.5448 29.6494 16.6707 28.6511 16.5863 27.4523C16.5019 26.255 17.1922 25.1488 18.2984 24.7067C19.5659 24.2007 20.975 24.6975 21.6382 25.9313C21.8085 26.2474 21.9833 26.3613 22.3284 26.3401C22.8318 26.3112 23.3412 26.334 23.8747 26.334ZM40.0853 18.1366C40.0883 16.646 38.8856 15.4122 37.4102 15.3955C35.9076 15.3788 34.6672 16.6095 34.6627 18.1199C34.6597 19.6332 35.8925 20.8716 37.3936 20.8625C38.8691 20.8533 40.0823 19.6241 40.0853 18.1366ZM28.3554 29.9791C29.8294 29.9685 31.0411 28.7378 31.0426 27.2502C31.0441 25.7384 29.8083 24.5015 28.3072 24.5137C26.8317 24.5243 25.623 25.752 25.62 27.2411C25.62 28.753 26.8543 29.9898 28.3554 29.9791ZM19.3021 26.3385C18.8123 26.331 18.3979 26.7382 18.3903 27.2335C18.3828 27.7273 18.7867 28.1467 19.2765 28.1528C19.7648 28.1604 20.1808 27.7516 20.1883 27.2578C20.1959 26.7655 19.7919 26.3461 19.3021 26.3385Z" fill="#F1F2F4"/>
<path d="M23.8747 26.334C24.681 23.8938 26.3238 22.584 28.5182 22.7147C29.1903 22.7542 29.8444 23.0839 30.5151 23.2465C30.6899 23.289 30.9597 23.2753 31.0742 23.1675C31.8278 22.4518 32.5407 21.6921 33.2882 20.9703C33.5354 20.7318 33.5519 20.5555 33.3922 20.244C31.9649 17.4513 33.5534 14.2179 36.6174 13.6451C38.9821 13.2029 41.3257 14.8181 41.7959 17.2127C42.2767 19.6606 40.7499 22.0476 38.3777 22.5703C37.3047 22.8074 36.2753 22.6858 35.3123 22.1631C34.9973 21.9929 34.8044 21.9853 34.5451 22.2604C33.8458 23.0049 33.1043 23.7084 32.4065 24.4529C32.292 24.5745 32.2151 24.8784 32.286 25.006C33.6439 27.4645 32.4774 30.4714 30.0223 31.4682C27.4345 32.5181 24.5981 30.982 23.9395 28.3381C23.926 28.2865 23.8973 28.2379 23.8612 28.1573C23.2839 28.1573 22.6992 28.1239 22.122 28.1771C21.9471 28.1938 21.7467 28.4217 21.6397 28.6025C21.0293 29.6221 19.8552 30.1691 18.7475 29.9199C17.5448 29.6494 16.6707 28.6511 16.5863 27.4523C16.5019 26.255 17.1922 25.1488 18.2984 24.7067C19.5659 24.2007 20.975 24.6975 21.6382 25.9313C21.8085 26.2474 21.9833 26.3613 22.3284 26.3401C22.8318 26.3112 23.3412 26.334 23.8747 26.334ZM40.0853 18.1366C40.0883 16.646 38.8856 15.4122 37.4102 15.3955C35.9076 15.3788 34.6672 16.6095 34.6627 18.1199C34.6597 19.6332 35.8925 20.8716 37.3936 20.8625C38.8691 20.8533 40.0823 19.6241 40.0853 18.1366ZM28.3554 29.9791C29.8294 29.9685 31.0411 28.7378 31.0426 27.2502C31.0441 25.7384 29.8083 24.5015 28.3072 24.5137C26.8317 24.5243 25.623 25.752 25.62 27.2411C25.62 28.753 26.8543 29.9898 28.3554 29.9791ZM19.3021 26.3385C18.8123 26.331 18.3979 26.7382 18.3903 27.2335C18.3828 27.7273 18.7867 28.1467 19.2765 28.1528C19.7648 28.1604 20.1808 27.7516 20.1883 27.2578C20.1959 26.7655 19.7919 26.3461 19.3021 26.3385Z" fill="url(#paint8_linear_540_880)"/>
<path d="M23.8747 26.334C24.681 23.8938 26.3238 22.584 28.5182 22.7147C29.1903 22.7542 29.8444 23.0839 30.5151 23.2465C30.6899 23.289 30.9597 23.2753 31.0742 23.1675C31.8278 22.4518 32.5407 21.6921 33.2882 20.9703C33.5354 20.7318 33.5519 20.5555 33.3922 20.244C31.9649 17.4513 33.5534 14.2179 36.6174 13.6451C38.9821 13.2029 41.3257 14.8181 41.7959 17.2127C42.2767 19.6606 40.7499 22.0476 38.3777 22.5703C37.3047 22.8074 36.2753 22.6858 35.3123 22.1631C34.9973 21.9929 34.8044 21.9853 34.5451 22.2604C33.8458 23.0049 33.1043 23.7084 32.4065 24.4529C32.292 24.5745 32.2151 24.8784 32.286 25.006C33.6439 27.4645 32.4774 30.4714 30.0223 31.4682C27.4345 32.5181 24.5981 30.982 23.9395 28.3381C23.926 28.2865 23.8973 28.2379 23.8612 28.1573C23.2839 28.1573 22.6992 28.1239 22.122 28.1771C21.9471 28.1938 21.7467 28.4217 21.6397 28.6025C21.0293 29.6221 19.8552 30.1691 18.7475 29.9199C17.5448 29.6494 16.6707 28.6511 16.5863 27.4523C16.5019 26.255 17.1922 25.1488 18.2984 24.7067C19.5659 24.2007 20.975 24.6975 21.6382 25.9313C21.8085 26.2474 21.9833 26.3613 22.3284 26.3401C22.8318 26.3112 23.3412 26.334 23.8747 26.334ZM40.0853 18.1366C40.0883 16.646 38.8856 15.4122 37.4102 15.3955C35.9076 15.3788 34.6672 16.6095 34.6627 18.1199C34.6597 19.6332 35.8925 20.8716 37.3936 20.8625C38.8691 20.8533 40.0823 19.6241 40.0853 18.1366ZM28.3554 29.9791C29.8294 29.9685 31.0411 28.7378 31.0426 27.2502C31.0441 25.7384 29.8083 24.5015 28.3072 24.5137C26.8317 24.5243 25.623 25.752 25.62 27.2411C25.62 28.753 26.8543 29.9898 28.3554 29.9791ZM19.3021 26.3385C18.8123 26.331 18.3979 26.7382 18.3903 27.2335C18.3828 27.7273 18.7867 28.1467 19.2765 28.1528C19.7648 28.1604 20.1808 27.7516 20.1883 27.2578C20.1959 26.7655 19.7919 26.3461 19.3021 26.3385Z" fill="url(#paint9_linear_540_880)"/>
<path d="M38.2753 18.1552C38.2602 18.6491 37.8352 19.0517 37.3484 19.0365C36.8586 19.0213 36.4607 18.5959 36.4758 18.102C36.4908 17.6067 36.9113 17.2071 37.4011 17.2223C37.8925 17.2375 38.2903 17.6629 38.2753 18.1552Z" fill="#F1F2F4"/>
<path d="M38.2753 18.1552C38.2602 18.6491 37.8352 19.0517 37.3484 19.0365C36.8586 19.0213 36.4607 18.5959 36.4758 18.102C36.4908 17.6067 36.9113 17.2071 37.4011 17.2223C37.8925 17.2375 38.2903 17.6629 38.2753 18.1552Z" fill="url(#paint10_linear_540_880)"/>
<path d="M38.2753 18.1552C38.2602 18.6491 37.8352 19.0517 37.3484 19.0365C36.8586 19.0213 36.4607 18.5959 36.4758 18.102C36.4908 17.6067 36.9113 17.2071 37.4011 17.2223C37.8925 17.2375 38.2903 17.6629 38.2753 18.1552Z" fill="url(#paint11_linear_540_880)"/>
<path d="M29.2326 27.2523C29.2281 27.7461 28.8151 28.1579 28.3268 28.1533C27.8355 28.1488 27.4301 27.7339 27.4346 27.2386C27.4391 26.7417 27.8491 26.3345 28.3404 26.3391C28.8302 26.3421 29.2356 26.7585 29.2326 27.2523Z" fill="#F1F2F4"/>
<path d="M29.2326 27.2523C29.2281 27.7461 28.8151 28.1579 28.3268 28.1533C27.8355 28.1488 27.4301 27.7339 27.4346 27.2386C27.4391 26.7417 27.8491 26.3345 28.3404 26.3391C28.8302 26.3421 29.2356 26.7585 29.2326 27.2523Z" fill="url(#paint12_linear_540_880)"/>
<path d="M29.2326 27.2523C29.2281 27.7461 28.8151 28.1579 28.3268 28.1533C27.8355 28.1488 27.4301 27.7339 27.4346 27.2386C27.4391 26.7417 27.8491 26.3345 28.3404 26.3391C28.8302 26.3421 29.2356 26.7585 29.2326 27.2523Z" fill="url(#paint13_linear_540_880)"/>
<defs>
<linearGradient id="paint0_linear_540_880" x1="5.63312" y1="29.2216" x2="46.9702" y2="29.2216" gradientUnits="userSpaceOnUse">
<stop stop-color="#FF1C54"/>
<stop offset="1" stop-color="#FF4444"/>
</linearGradient>
<linearGradient id="paint1_linear_540_880" x1="16.3206" y1="29.0896" x2="46.4432" y2="29.0896" gradientUnits="userSpaceOnUse">
<stop stop-color="#1882DB"/>
<stop offset="1" stop-color="#0197D5"/>
</linearGradient>
<linearGradient id="paint2_linear_540_880" x1="2.55056" y1="45.1164" x2="11.6152" y2="45.1164" gradientUnits="userSpaceOnUse">
<stop stop-color="#FF1C54"/>
<stop offset="1" stop-color="#FF4444"/>
</linearGradient>
<linearGradient id="paint3_linear_540_880" x1="4.89417" y1="45.0592" x2="11.4996" y2="45.0592" gradientUnits="userSpaceOnUse">
<stop stop-color="#1882DB"/>
<stop offset="1" stop-color="#0197D5"/>
</linearGradient>
<linearGradient id="paint4_linear_540_880" x1="44.1347" y1="12.2991" x2="53.2082" y2="12.2991" gradientUnits="userSpaceOnUse">
<stop stop-color="#FF1C54"/>
<stop offset="1" stop-color="#FF4444"/>
</linearGradient>
<linearGradient id="paint5_linear_540_880" x1="46.4806" y1="12.2419" x2="53.0926" y2="12.2419" gradientUnits="userSpaceOnUse">
<stop stop-color="#1882DB"/>
<stop offset="1" stop-color="#0197D5"/>
</linearGradient>
<linearGradient id="paint6_linear_540_880" x1="4.11078" y1="54.6187" x2="5.39572" y2="54.6187" gradientUnits="userSpaceOnUse">
<stop stop-color="#FF1C54"/>
<stop offset="1" stop-color="#FF4444"/>
</linearGradient>
<linearGradient id="paint7_linear_540_880" x1="4.44299" y1="54.606" x2="5.37933" y2="54.606" gradientUnits="userSpaceOnUse">
<stop stop-color="#1882DB"/>
<stop offset="1" stop-color="#0197D5"/>
</linearGradient>
<linearGradient id="paint8_linear_540_880" x1="18.9741" y1="22.7294" x2="37.6533" y2="22.7294" gradientUnits="userSpaceOnUse">
<stop stop-color="#FF1C54"/>
<stop offset="1" stop-color="#FF4444"/>
</linearGradient>
<linearGradient id="paint9_linear_540_880" x1="23.8035" y1="22.6868" x2="37.4152" y2="22.6868" gradientUnits="userSpaceOnUse">
<stop stop-color="#1882DB"/>
<stop offset="1" stop-color="#0197D5"/>
</linearGradient>
<linearGradient id="paint10_linear_540_880" x1="36.6457" y1="18.1336" x2="37.9747" y2="18.1336" gradientUnits="userSpaceOnUse">
<stop stop-color="#FF1C54"/>
<stop offset="1" stop-color="#FF4444"/>
</linearGradient>
<linearGradient id="paint11_linear_540_880" x1="36.9893" y1="18.1294" x2="37.9577" y2="18.1294" gradientUnits="userSpaceOnUse">
<stop stop-color="#1882DB"/>
<stop offset="1" stop-color="#0197D5"/>
</linearGradient>
<linearGradient id="paint12_linear_540_880" x1="27.6047" y1="27.2504" x2="28.932" y2="27.2504" gradientUnits="userSpaceOnUse">
<stop stop-color="#FF1C54"/>
<stop offset="1" stop-color="#FF4444"/>
</linearGradient>
<linearGradient id="paint13_linear_540_880" x1="27.9479" y1="27.2462" x2="28.9151" y2="27.2462" gradientUnits="userSpaceOnUse">
<stop stop-color="#1882DB"/>
<stop offset="1" stop-color="#0197D5"/>
</linearGradient>
</defs>
</svg>
