<svg width="57" height="61" viewBox="0 0 57 61" fill="none" xmlns="http://www.w3.org/2000/svg">
<path d="M31.3617 0.721191C31.768 0.872973 32.1956 0.984485 32.5791 1.18428C34.9469 2.41866 35.5648 5.59678 33.7584 7.59162C32.2519 9.25347 30.6404 10.8162 29.0578 12.4068C28.5541 12.9133 27.9332 12.9225 27.428 12.4176C25.8301 10.8162 24.1927 9.25037 22.6907 7.55909C20.6607 5.27463 21.7944 1.65666 24.7162 0.85129C24.841 0.817216 24.9612 0.764557 25.0845 0.721191C25.541 0.721191 25.9975 0.721191 26.454 0.721191C26.9943 0.970546 27.5314 1.22455 28.0762 1.46306C28.1645 1.50178 28.2954 1.51572 28.3806 1.477C28.9223 1.23539 29.4565 0.975193 29.9921 0.721191C30.4486 0.721191 30.9052 0.721191 31.3617 0.721191ZM28.3593 10.0248C28.5434 9.78006 28.7032 9.51057 28.9147 9.29219C29.9388 8.22972 30.9919 7.19513 32.0039 6.12027C32.6491 5.4357 32.6734 4.43209 32.1256 3.73668C31.5869 3.05212 30.6708 2.83219 29.9252 3.25966C29.6178 3.43622 29.3636 3.71345 29.0958 3.95661C28.5145 4.4832 27.9438 4.48475 27.3747 3.95042C27.1799 3.76766 27.0003 3.56167 26.7873 3.40214C26.0569 2.85387 25.0769 2.94835 24.456 3.61123C23.8336 4.27411 23.7392 5.31954 24.3647 5.98552C25.6216 7.32058 26.941 8.59833 28.3593 10.0248Z" fill="#00B086"/>
<path d="M9.97054 51.3674C9.00727 50.5156 8.06074 49.7691 7.21921 48.9172C2.94309 44.5915 0.760897 39.3364 0.669592 33.2079C0.617852 29.7432 0.658939 26.277 0.660461 22.8124C0.660461 21.8212 1.0759 21.4015 2.04982 21.3999C4.6368 21.3968 7.22378 21.3984 9.81075 21.3984C9.99336 21.3984 10.176 21.3984 10.3586 21.3984C10.3845 21.3534 10.4103 21.3085 10.4362 21.2652C9.78793 20.6255 9.13814 19.989 8.49444 19.3447C8.01965 18.8692 7.54182 18.3968 7.0853 17.9043C5.47528 16.1666 5.38398 13.5522 6.86008 11.7618C8.36813 9.93268 10.9095 9.55323 12.8862 10.8635C13.0125 10.9471 13.1388 11.0292 13.2743 11.1191C14.5875 10.1108 16.0332 9.81033 17.5884 10.3261C20.7248 11.3653 21.7428 15.3643 19.4967 17.8331C18.5532 18.8692 17.5458 19.8449 16.5597 20.8392C16.4136 20.9864 16.2249 21.0886 16.0545 21.211C16.0865 21.2745 16.1184 21.3364 16.1504 21.3999C16.3482 21.3999 16.5445 21.3999 16.7423 21.3999C19.69 21.3999 22.6391 21.3999 25.5868 21.3999C25.777 21.3999 25.9702 21.3891 26.1559 21.4154C26.7174 21.4959 27.1207 21.9621 27.1374 22.5243C27.1542 23.1113 26.7494 23.6131 26.1681 23.703C25.9626 23.7339 25.7511 23.7215 25.5411 23.7215C18.2565 23.7215 10.9703 23.7215 3.6857 23.7215C3.46048 23.7215 3.23526 23.7215 2.97809 23.7215C2.96287 23.8873 2.94157 24.0158 2.94157 24.1459C2.94157 27.2621 2.82135 30.386 2.96744 33.4959C3.35396 41.655 7.20399 47.5605 14.4141 51.1723C14.6727 51.3024 14.9938 51.3597 15.286 51.3597C20.1556 51.3705 25.0252 51.3705 29.8948 51.3597C30.1855 51.3597 30.5051 51.2915 30.7638 51.1614C38.0438 47.4753 41.8801 41.4877 42.1814 33.2234C42.2956 30.0917 42.1997 26.9523 42.1997 23.7215C41.9851 23.7215 41.7858 23.7215 41.588 23.7215C39.8958 23.7215 38.2021 23.7246 36.5099 23.72C35.679 23.7184 35.151 23.2724 35.1388 22.5785C35.1251 21.8661 35.6684 21.3999 36.5312 21.3999C38.7179 21.3968 40.9062 21.3968 43.093 21.3999C44.0684 21.4015 44.4793 21.8212 44.4854 22.8109C44.4884 23.2507 44.4854 23.6921 44.4854 24.0375C45.7469 24.2512 46.9658 24.3504 48.1254 24.6756C53.4759 26.1748 57.0794 31.3571 56.7994 37.0535C56.527 42.6137 52.4046 47.387 47.01 48.355C46.2278 48.496 45.4243 48.5579 44.6299 48.5703C42.6715 48.5997 40.7114 48.5672 38.7529 48.5951C38.4866 48.5982 38.1747 48.7376 37.9647 48.9141C37.044 49.6901 36.1523 50.5032 35.1753 51.369C35.4036 51.369 35.5938 51.369 35.7855 51.369C38.9614 51.369 42.1388 51.3674 45.3147 51.369C46.3708 51.369 46.765 51.7701 46.768 52.8357C46.7771 57.0143 43.6743 60.1924 39.5625 60.1955C29.0061 60.2002 18.4482 60.2002 7.89182 60.1955C3.70244 60.1924 0.579808 56.943 0.660461 52.687C0.6772 51.8135 1.10481 51.3721 1.97221 51.3705C4.61549 51.3643 7.25878 51.3674 9.97054 51.3674ZM3.00548 53.7138C3.05722 53.9678 3.08461 54.1583 3.13635 54.3411C3.72679 56.4474 5.56202 57.8661 7.76248 57.8677C18.3919 57.8754 29.0213 57.877 39.6508 57.8568C40.264 57.8553 40.9047 57.719 41.483 57.5053C43.0839 56.9105 44.3484 55.2053 44.3682 53.7138C30.604 53.7138 16.8412 53.7138 3.00548 53.7138ZM40.3249 46.1635C42.253 46.1635 44.1689 46.3339 46.0452 46.1294C50.5998 45.6338 53.9963 41.9694 54.497 37.244C54.9611 32.8594 52.1931 28.5274 47.9748 27.0483C46.8578 26.6565 45.7134 26.4505 44.5265 26.5264C44.5265 27.324 44.5265 28.0659 44.5265 28.7861C45.0591 28.8403 45.5521 28.8682 46.0391 28.941C49.5711 29.4753 52.2631 32.7277 52.2463 36.4309C52.2296 40.0938 49.5178 43.3493 45.9934 43.8062C44.7197 43.972 43.4156 43.8899 42.1251 43.9394C41.9425 43.9472 41.6854 44.006 41.5971 44.1361C41.1467 44.799 40.7404 45.4929 40.3249 46.1635ZM13.2195 20.8873C14.8006 19.2982 16.3878 17.7943 17.8669 16.1867C18.9778 14.9802 18.3919 13.0055 16.8534 12.5238C15.9647 12.245 15.1749 12.468 14.4993 13.1418C13.434 14.2027 13.0977 14.1934 12.0082 13.1294C11.9808 13.1031 11.9534 13.0752 11.926 13.0488C11.0099 12.1939 9.65249 12.2001 8.78205 13.0643C7.88726 13.9533 7.85835 15.3426 8.73487 16.2998C9.18836 16.7954 9.67227 17.2615 10.1425 17.7401C11.1727 18.7948 12.2029 19.848 13.2195 20.8873ZM42.8038 41.6039C43.5967 41.6039 44.2982 41.6224 44.9997 41.6008C47.1271 41.5357 49.0004 40.1139 49.6883 38.0602C50.3761 36.0081 49.7415 33.7159 48.0858 32.3498C47.048 31.4934 45.8641 31.0845 44.4656 31.179C44.6284 34.7907 44.1734 38.2476 42.8038 41.6039Z" fill="#00B086"/>
<path d="M22.5117 29.7467C23.4765 29.2821 24.4017 28.6703 25.4152 28.3822C28.1148 27.6109 30.8966 28.8236 32.3361 31.2506C33.7651 33.6589 33.5048 36.7596 31.5874 38.8319C29.8557 40.7044 28.0311 42.4886 26.2461 44.31C25.5217 45.0503 24.8019 45.7952 24.0669 46.5232C23.1493 47.4323 21.9867 47.4385 21.0782 46.5201C18.6252 44.0374 16.1645 41.5624 13.7464 39.0456C12.0208 37.249 11.4927 35.0714 12.2003 32.677C12.8897 30.3476 14.4829 28.8778 16.8112 28.3172C18.7575 27.8494 20.5365 28.3079 22.1176 29.5531C22.2652 29.6693 22.4097 29.7901 22.5558 29.9078C22.5406 29.8551 22.5269 29.8009 22.5117 29.7467ZM22.5984 44.7421C23.5556 43.7663 24.4945 42.8123 25.4335 41.8567C26.8974 40.3652 28.3857 38.8985 29.8161 37.3745C31.3774 35.7095 31.3211 33.1974 29.7507 31.6393C28.162 30.0611 25.7469 30.0812 24.1111 31.6858C23.933 31.8608 23.7611 32.042 23.5845 32.217C22.8358 32.9589 22.2956 32.9527 21.5393 32.1938C21.3369 31.9909 21.1391 31.7803 20.9291 31.5851C19.3054 30.0688 16.9086 30.1045 15.3747 31.6625C13.8438 33.2175 13.7525 35.708 15.2819 37.3094C17.6634 39.803 20.118 42.2284 22.5984 44.7421Z" fill="#00B086"/>
<path d="M31.1356 23.7173C30.5327 23.7127 30.0151 23.1936 30.0029 22.58C29.9907 21.9462 30.5266 21.3977 31.1523 21.4024C31.7872 21.407 32.2957 21.9493 32.2759 22.597C32.2576 23.2199 31.7461 23.722 31.1356 23.7173Z" fill="#00B086"/>
</svg>
