<svg width="57" height="52" viewBox="0 0 57 52" fill="none" xmlns="http://www.w3.org/2000/svg">
<path d="M0.333496 19.4683C0.514325 18.3986 0.649946 17.3188 0.884732 16.2605C2.66823 8.21177 9.80804 1.95209 18.1845 1.11118C23.5685 0.570587 28.3867 1.98499 32.6289 5.27572C32.8914 5.47879 33.0679 5.47736 33.3901 5.36867C34.2403 5.07979 35.1197 4.73942 36.0019 4.69365C37.9094 4.59354 39.8285 4.62644 41.7403 4.67363C44.7007 4.74657 46.8575 6.73874 47.1783 9.69053C48.5987 9.80637 48.3887 10.9033 48.4004 11.8972C48.6468 11.9087 48.8408 11.9244 49.0347 11.9244C51.0574 11.9258 53.0815 11.9287 55.1042 11.923C55.5825 11.9215 56.0229 11.9744 56.246 12.4707C56.4691 12.9655 56.2154 13.3259 55.8873 13.6663C55.5241 14.041 55.1669 14.4228 54.7717 14.839C55.1669 15.2509 55.5518 15.6499 55.9339 16.0517C56.2489 16.3835 56.4662 16.7468 56.2402 17.2102C56.0214 17.6621 55.6189 17.7622 55.1479 17.7565C54.2569 17.745 53.3659 17.7536 52.3888 17.7536C52.5142 17.9095 52.5871 18.0182 52.6776 18.1097C53.624 19.0507 54.5733 19.9918 55.5241 20.9285C55.8493 21.2488 56.0914 21.5949 55.9033 22.0712C55.7064 22.566 55.2821 22.6818 54.7965 22.6833C54.2715 22.6833 53.7479 22.6833 53.1223 22.6833C53.1223 23.2939 53.1282 23.8245 53.1209 24.3551C53.1136 24.827 52.9955 25.2604 52.4865 25.4391C52.0097 25.6064 51.6509 25.3776 51.3243 25.0501C50.3034 24.029 49.2593 23.0294 48.2516 21.9982C47.9366 21.6765 47.6391 21.512 47.171 21.7565C47.0208 23.0093 46.5556 24.1706 45.6675 25.1474C45.51 25.3204 45.3642 25.5392 45.1615 25.6308C44.0474 26.1427 44.3099 27.0809 44.3405 28.0319C45.128 28.0319 45.8863 28.0305 46.646 28.0319C48.4456 28.0348 49.3337 28.6355 49.9972 30.293C50.0293 30.3745 50.0643 30.466 50.1255 30.5247C50.9174 31.2898 51.088 32.248 51.0603 33.2848C51.0355 34.1958 51.0618 35.1082 51.0516 36.0192C51.0443 36.6442 50.7264 37.006 50.2189 37.0032C49.7085 37.0003 49.4197 36.6513 49.4168 36.0064C49.411 34.9338 49.4328 33.8612 49.4095 32.7886C49.3862 31.6988 48.5214 31.0738 47.4846 31.3613C46.8269 31.5443 46.4827 32.0377 46.4813 32.8358C46.4769 35.6059 46.4798 38.3761 46.4798 41.1477C46.4798 41.3264 46.4813 41.5052 46.4798 41.684C46.4667 43.433 45.5786 44.3254 43.7834 44.3412C41.6514 44.3597 39.5179 44.3469 37.3859 44.3469C36.2032 44.3469 35.0205 44.3469 33.7591 44.3469C33.9224 44.8946 34.0391 45.3966 34.2316 45.8685C34.2826 45.9944 34.5641 46.0959 34.7391 46.0974C37.3086 46.1117 39.8781 46.1074 42.4491 46.1074C42.7407 46.1074 43.0324 46.1016 43.324 46.1102C43.9394 46.1274 44.393 46.3805 44.6817 46.9397C44.7546 47.0799 44.9923 47.2143 45.1586 47.2186C46.0146 47.2458 46.8721 47.2357 47.7281 47.23C48.8743 47.2229 49.4095 46.7109 49.4139 45.5925C49.4212 43.8406 49.4153 42.0887 49.4168 40.3382C49.4168 40.1595 49.3628 39.9349 49.4518 39.8134C49.6253 39.5745 49.847 39.3057 50.111 39.207C50.4653 39.0754 50.7832 39.2785 50.9568 39.6232C51.0122 39.7318 51.0472 39.8634 51.0472 39.985C51.0472 42.0229 51.0749 44.0608 51.0078 46.0959C50.9918 46.5979 50.738 47.1399 50.4507 47.5718C50.2072 47.9394 50.076 48.274 50.0964 48.6988C50.1182 49.1249 50.1007 49.5511 50.1007 50.0588C50.8547 50.0588 51.5751 50.0531 52.2955 50.0617C52.5303 50.0645 52.7738 50.0674 52.9955 50.1332C53.395 50.2505 53.5861 50.5565 53.5423 50.9541C53.5 51.3502 53.2609 51.6076 52.8394 51.6563C52.6776 51.6749 52.5113 51.6677 52.348 51.6677C35.4886 51.6677 18.6293 51.6677 1.76992 51.6677C1.60659 51.6677 1.44034 51.6749 1.27847 51.6563C0.857024 51.6062 0.619322 51.3445 0.575573 50.9527C0.530366 50.5551 0.728694 50.2519 1.12681 50.1332C1.33097 50.0717 1.55701 50.0631 1.77283 50.0631C3.64966 50.0574 5.52794 50.0602 7.40477 50.0602C7.60164 50.0602 7.79851 50.0602 8.06392 50.0602C7.69351 48.796 7.34644 47.5976 6.99353 46.402C5.74523 42.1688 4.50422 37.9327 3.23842 33.7038C3.02405 32.9859 2.99197 32.3652 3.72257 31.909C2.34303 29.8325 1.36014 27.6372 0.840983 25.2575C0.632447 24.3022 0.5012 23.3311 0.334954 22.3686C0.333496 21.399 0.333496 20.4337 0.333496 19.4683ZM4.88046 33.3992C4.95921 33.6953 5.01317 33.9184 5.07879 34.1386C6.59104 39.2642 8.11059 44.3869 9.60971 49.5168C9.72929 49.9258 9.88241 50.0703 10.3403 50.0703C17.941 50.0531 25.5431 50.0588 33.1437 50.0574C33.3187 50.0574 33.4922 50.0431 33.6614 50.0359C33.6672 49.953 33.6818 49.9144 33.6716 49.8829C32.085 44.4999 30.4925 39.1183 28.9161 33.7324C28.8271 33.4307 28.6682 33.3949 28.4071 33.3978C27.5322 33.4064 26.6572 33.4064 25.7822 33.3992C25.1508 33.3935 24.7643 33.0803 24.7614 32.5926C24.757 32.0978 25.1318 31.7989 25.7735 31.7946C26.3655 31.7903 26.9591 31.7932 27.5467 31.7932C27.5628 31.6359 27.5745 31.5644 27.5759 31.4943C27.6415 29.136 28.7863 28.0334 31.175 28.0334C31.8983 28.0334 32.6216 28.0334 33.396 28.0334C33.396 27.59 33.3697 27.2153 33.4033 26.8449C33.4397 26.4273 33.2837 26.1785 32.9322 25.9225C31.6314 24.9743 30.8527 23.6929 30.6281 22.1126C30.5858 21.8123 30.4721 21.695 30.1717 21.6335C28.9146 21.3776 28.0965 20.5366 27.9638 19.2996C27.8967 18.6818 27.9011 18.0453 27.9726 17.429C28.1111 16.2434 28.9205 15.4211 30.1133 15.1465C30.2504 15.115 30.3846 15.0764 30.7127 14.992C30.4677 14.799 30.3525 14.6531 30.2023 14.6016C29.5825 14.3856 29.3142 14.0624 29.304 13.4146C29.2938 12.7539 29.3011 12.0917 29.3011 11.431C29.3011 10.1739 29.3754 10.0681 30.3554 9.70197C30.7944 8.58361 31.1881 7.58395 31.6023 6.53137C31.6168 6.54424 31.5396 6.46844 31.4535 6.40552C25.4016 2.0379 18.8903 1.25705 12.1705 4.53348C2.17532 9.40593 -1.06355 21.7909 5.04233 30.9637C5.43899 31.5587 5.84148 31.9219 6.60271 31.7989C6.93957 31.7446 7.2954 31.766 7.63956 31.7961C8.0508 31.8318 8.35412 31.7489 8.59911 31.377C8.79307 31.0838 9.09785 30.8593 9.36034 30.6119C9.66075 30.3302 10.0107 30.2944 10.3637 30.4932C10.7326 30.7006 10.8026 31.0409 10.7107 31.4242C10.6845 31.5358 10.6349 31.643 10.5839 31.7903C10.8288 31.7903 11.0286 31.7903 11.227 31.7903C14.5985 31.7903 17.9716 31.7903 21.3432 31.7903C21.5065 31.7903 21.6727 31.7803 21.8346 31.8003C22.2473 31.8504 22.4996 32.0821 22.5463 32.4897C22.5958 32.9216 22.3931 33.2248 21.9702 33.3435C21.7661 33.4007 21.5386 33.3978 21.3213 33.3978C16.0904 33.4007 10.858 33.3992 5.62711 33.3992C5.41274 33.3992 5.19545 33.3992 4.88046 33.3992ZM32.2016 14.6516C32.2016 17.0157 32.1025 19.3225 32.2308 21.6164C32.3504 23.7716 34.1353 25.4105 36.2105 25.462C37.9765 25.5049 39.7454 25.5049 41.5114 25.462C43.572 25.412 45.4254 23.6858 45.4911 21.6736C45.5669 19.3711 45.5115 17.0657 45.51 14.7618C45.51 14.7332 45.4765 14.7031 45.4444 14.6516C41.0564 14.6516 36.6538 14.6516 32.2016 14.6516ZM45.4925 9.71627C45.4138 7.82421 43.814 6.34545 41.7491 6.28682C39.8198 6.23104 37.8875 6.25249 35.9567 6.28539C35.0453 6.30112 34.2068 6.62147 33.4981 7.19924C32.712 7.84137 32.2716 8.65797 32.222 9.71484C32.4787 9.71484 32.677 9.71484 32.8754 9.71484C34.9709 9.71484 37.065 9.71341 39.1606 9.71627C39.7891 9.7177 40.1479 9.9694 40.2091 10.4328C40.2777 10.949 39.8854 11.3209 39.2423 11.3209C36.7282 11.3252 34.2141 11.3223 31.7 11.3223C31.4681 11.3223 31.2362 11.3223 30.9898 11.3223C30.9898 11.9144 30.9898 12.4521 30.9898 12.9813C36.2586 12.9813 41.4793 12.9813 46.7131 12.9813C46.7131 12.4206 46.7131 11.8958 46.7131 11.3223C45.6019 11.3223 44.5315 11.3252 43.4597 11.3209C42.7699 11.3194 42.4097 11.032 42.4228 10.5028C42.4345 9.99944 42.7918 9.71913 43.4465 9.71341C44.1174 9.71198 44.7882 9.71627 45.4925 9.71627ZM33.2122 29.6523C32.4175 29.6523 31.4696 29.6151 30.5275 29.6623C29.5986 29.7095 28.8913 30.8693 29.2369 31.7074C29.2719 31.7903 29.3784 31.8633 29.4688 31.9033C30.0054 32.1479 30.284 32.5698 30.4415 33.1204C30.9285 34.8193 31.4404 36.5112 31.942 38.2059C32.3868 39.709 32.8302 41.212 33.272 42.7065C34.096 42.7065 34.8718 42.7065 35.6592 42.7065C35.6942 42.5635 35.7351 42.4448 35.7526 42.3232C36.1317 39.5645 36.4861 36.8029 36.9032 34.0499C36.9805 33.538 36.874 33.1418 36.4598 32.9773C35.5645 32.6198 35.0482 31.869 34.4197 31.2426C33.9866 30.8121 33.6716 30.2687 33.2122 29.6523ZM47.2002 29.6737C46.2508 29.6737 45.3 29.6737 44.3259 29.6737C43.9569 30.9895 42.783 31.6902 41.9153 32.6327C41.8337 32.7213 41.7053 32.7743 41.5901 32.8257C40.8143 33.1733 40.7239 33.3449 40.8377 34.1315C41.0535 35.6331 41.2547 37.1362 41.4647 38.6392C41.6543 39.9936 41.8468 41.3479 42.0349 42.6908C42.1428 42.7122 42.1953 42.7323 42.2478 42.7323C42.7393 42.7351 43.2307 42.7408 43.7222 42.7337C44.6555 42.7208 44.8348 42.5421 44.8348 41.6239C44.8363 38.7308 44.8334 35.8376 44.8392 32.9459C44.8392 32.627 44.8465 32.298 44.9209 31.9905C45.2111 30.7878 46.0306 30.0756 47.2002 29.6737ZM43.1053 47.7463C40.301 47.7463 37.5623 47.7463 34.7609 47.7463C34.9549 48.4042 35.1634 49.0091 35.3049 49.6298C35.388 49.9902 35.5659 50.066 35.9086 50.0631C38.1661 50.0502 40.4235 50.0574 42.6809 50.0545C42.8195 50.0545 42.958 50.0274 43.1053 50.0131C43.1053 49.2465 43.1053 48.5186 43.1053 47.7463ZM40.3754 42.7094C40.005 40.0365 39.6389 37.3979 39.2787 34.7965C38.9637 34.7965 38.7173 34.7965 38.4417 34.7965C38.0786 37.4408 37.7184 40.0608 37.3552 42.7094C38.4038 42.7094 39.3604 42.7094 40.3754 42.7094ZM53.7129 13.5361C51.9572 13.5361 50.3064 13.5319 48.6541 13.5462C48.5535 13.5476 48.396 13.6734 48.3625 13.7721C48.2093 14.2226 47.9045 14.48 47.4481 14.6087C47.3416 14.6388 47.2644 14.7732 47.1739 14.859C47.2673 14.942 47.3475 15.0549 47.4569 15.1007C47.8214 15.2552 48.3172 15.2866 48.5447 15.5469C49.1529 16.2448 49.9141 16.149 50.6855 16.1447C51.524 16.1404 52.3626 16.1447 53.2011 16.1418C53.3527 16.1418 53.5029 16.1204 53.6896 16.1075C52.7067 14.9076 52.7053 14.7603 53.7129 13.5361ZM53.0844 21.0701C52.014 20.0418 50.8882 18.9606 49.7945 17.9095C49.7551 18.7876 49.9462 19.833 49.2797 20.5824C50.0745 21.3475 50.808 22.0511 51.4949 22.7119C51.6495 21.4119 51.6495 21.4119 53.0844 21.0701ZM37.6921 30.1485C37.0228 29.1603 35.7307 28.5497 35.9086 27.0752C35.6038 27.0337 35.3486 26.9994 35.0424 26.9579C35.0424 27.7931 35.0336 28.5568 35.0511 29.3191C35.0541 29.4664 35.1255 29.648 35.229 29.7524C35.6957 30.2215 36.1842 30.6691 36.6392 31.0981C36.9805 30.7907 37.3377 30.4689 37.6921 30.1485ZM41.787 27.0909C41.9955 28.5868 40.6714 29.1618 40.0312 30.1628C40.371 30.4946 40.7152 30.8307 41.0535 31.1611C41.5245 30.7077 41.9853 30.2787 42.4272 29.8325C42.5351 29.7238 42.6474 29.5622 42.6503 29.422C42.6707 28.6097 42.6605 27.796 42.6605 26.945C42.3484 26.9965 42.1005 27.038 41.787 27.0909ZM48.4368 48.8647C47.206 48.8647 46.0146 48.8647 44.8057 48.8647C44.8057 49.2765 44.8057 49.6412 44.8057 50.0245C46.0321 50.0245 47.2235 50.0245 48.4368 50.0245C48.4368 49.6241 48.4368 49.2551 48.4368 48.8647ZM37.5113 27.1095C37.6615 27.9976 38.4183 28.3451 38.9054 29.0302C39.2758 28.2851 40.1348 27.9991 40.1683 27.1095C39.286 27.1095 38.4548 27.1095 37.5113 27.1095ZM47.2192 16.7182C47.2192 17.8451 47.2192 18.9277 47.2192 20.0404C47.7879 19.9403 48.0795 19.6256 48.1233 19.1408C48.167 18.6474 48.1656 18.144 48.1262 17.6492C48.0854 17.1386 47.7748 16.8283 47.2192 16.7182ZM30.5042 20.0189C30.5042 18.9034 30.5042 17.8294 30.5042 16.7482C29.6846 16.9284 29.5534 17.2059 29.5621 18.6746C29.5679 19.5456 29.7881 19.8702 30.5042 20.0189ZM38.0946 32.125C38.3586 32.4382 38.6065 32.7314 38.834 33.0017C39.1621 32.7113 39.4435 32.4639 39.7396 32.2008C39.4231 31.8976 39.1446 31.6302 38.8806 31.3756C38.6006 31.6416 38.3323 31.8976 38.0946 32.125Z" fill="#F1F2F4"/>
<path d="M0.333496 19.4683C0.514325 18.3986 0.649946 17.3188 0.884732 16.2605C2.66823 8.21177 9.80804 1.95209 18.1845 1.11118C23.5685 0.570587 28.3867 1.98499 32.6289 5.27572C32.8914 5.47879 33.0679 5.47736 33.3901 5.36867C34.2403 5.07979 35.1197 4.73942 36.0019 4.69365C37.9094 4.59354 39.8285 4.62644 41.7403 4.67363C44.7007 4.74657 46.8575 6.73874 47.1783 9.69053C48.5987 9.80637 48.3887 10.9033 48.4004 11.8972C48.6468 11.9087 48.8408 11.9244 49.0347 11.9244C51.0574 11.9258 53.0815 11.9287 55.1042 11.923C55.5825 11.9215 56.0229 11.9744 56.246 12.4707C56.4691 12.9655 56.2154 13.3259 55.8873 13.6663C55.5241 14.041 55.1669 14.4228 54.7717 14.839C55.1669 15.2509 55.5518 15.6499 55.9339 16.0517C56.2489 16.3835 56.4662 16.7468 56.2402 17.2102C56.0214 17.6621 55.6189 17.7622 55.1479 17.7565C54.2569 17.745 53.3659 17.7536 52.3888 17.7536C52.5142 17.9095 52.5871 18.0182 52.6776 18.1097C53.624 19.0507 54.5733 19.9918 55.5241 20.9285C55.8493 21.2488 56.0914 21.5949 55.9033 22.0712C55.7064 22.566 55.2821 22.6818 54.7965 22.6833C54.2715 22.6833 53.7479 22.6833 53.1223 22.6833C53.1223 23.2939 53.1282 23.8245 53.1209 24.3551C53.1136 24.827 52.9955 25.2604 52.4865 25.4391C52.0097 25.6064 51.6509 25.3776 51.3243 25.0501C50.3034 24.029 49.2593 23.0294 48.2516 21.9982C47.9366 21.6765 47.6391 21.512 47.171 21.7565C47.0208 23.0093 46.5556 24.1706 45.6675 25.1474C45.51 25.3204 45.3642 25.5392 45.1615 25.6308C44.0474 26.1427 44.3099 27.0809 44.3405 28.0319C45.128 28.0319 45.8863 28.0305 46.646 28.0319C48.4456 28.0348 49.3337 28.6355 49.9972 30.293C50.0293 30.3745 50.0643 30.466 50.1255 30.5247C50.9174 31.2898 51.088 32.248 51.0603 33.2848C51.0355 34.1958 51.0618 35.1082 51.0516 36.0192C51.0443 36.6442 50.7264 37.006 50.2189 37.0032C49.7085 37.0003 49.4197 36.6513 49.4168 36.0064C49.411 34.9338 49.4328 33.8612 49.4095 32.7886C49.3862 31.6988 48.5214 31.0738 47.4846 31.3613C46.8269 31.5443 46.4827 32.0377 46.4813 32.8358C46.4769 35.6059 46.4798 38.3761 46.4798 41.1477C46.4798 41.3264 46.4813 41.5052 46.4798 41.684C46.4667 43.433 45.5786 44.3254 43.7834 44.3412C41.6514 44.3597 39.5179 44.3469 37.3859 44.3469C36.2032 44.3469 35.0205 44.3469 33.7591 44.3469C33.9224 44.8946 34.0391 45.3966 34.2316 45.8685C34.2826 45.9944 34.5641 46.0959 34.7391 46.0974C37.3086 46.1117 39.8781 46.1074 42.4491 46.1074C42.7407 46.1074 43.0324 46.1016 43.324 46.1102C43.9394 46.1274 44.393 46.3805 44.6817 46.9397C44.7546 47.0799 44.9923 47.2143 45.1586 47.2186C46.0146 47.2458 46.8721 47.2357 47.7281 47.23C48.8743 47.2229 49.4095 46.7109 49.4139 45.5925C49.4212 43.8406 49.4153 42.0887 49.4168 40.3382C49.4168 40.1595 49.3628 39.9349 49.4518 39.8134C49.6253 39.5745 49.847 39.3057 50.111 39.207C50.4653 39.0754 50.7832 39.2785 50.9568 39.6232C51.0122 39.7318 51.0472 39.8634 51.0472 39.985C51.0472 42.0229 51.0749 44.0608 51.0078 46.0959C50.9918 46.5979 50.738 47.1399 50.4507 47.5718C50.2072 47.9394 50.076 48.274 50.0964 48.6988C50.1182 49.1249 50.1007 49.5511 50.1007 50.0588C50.8547 50.0588 51.5751 50.0531 52.2955 50.0617C52.5303 50.0645 52.7738 50.0674 52.9955 50.1332C53.395 50.2505 53.5861 50.5565 53.5423 50.9541C53.5 51.3502 53.2609 51.6076 52.8394 51.6563C52.6776 51.6749 52.5113 51.6677 52.348 51.6677C35.4886 51.6677 18.6293 51.6677 1.76992 51.6677C1.60659 51.6677 1.44034 51.6749 1.27847 51.6563C0.857024 51.6062 0.619322 51.3445 0.575573 50.9527C0.530366 50.5551 0.728694 50.2519 1.12681 50.1332C1.33097 50.0717 1.55701 50.0631 1.77283 50.0631C3.64966 50.0574 5.52794 50.0602 7.40477 50.0602C7.60164 50.0602 7.79851 50.0602 8.06392 50.0602C7.69351 48.796 7.34644 47.5976 6.99353 46.402C5.74523 42.1688 4.50422 37.9327 3.23842 33.7038C3.02405 32.9859 2.99197 32.3652 3.72257 31.909C2.34303 29.8325 1.36014 27.6372 0.840983 25.2575C0.632447 24.3022 0.5012 23.3311 0.334954 22.3686C0.333496 21.399 0.333496 20.4337 0.333496 19.4683ZM4.88046 33.3992C4.95921 33.6953 5.01317 33.9184 5.07879 34.1386C6.59104 39.2642 8.11059 44.3869 9.60971 49.5168C9.72929 49.9258 9.88241 50.0703 10.3403 50.0703C17.941 50.0531 25.5431 50.0588 33.1437 50.0574C33.3187 50.0574 33.4922 50.0431 33.6614 50.0359C33.6672 49.953 33.6818 49.9144 33.6716 49.8829C32.085 44.4999 30.4925 39.1183 28.9161 33.7324C28.8271 33.4307 28.6682 33.3949 28.4071 33.3978C27.5322 33.4064 26.6572 33.4064 25.7822 33.3992C25.1508 33.3935 24.7643 33.0803 24.7614 32.5926C24.757 32.0978 25.1318 31.7989 25.7735 31.7946C26.3655 31.7903 26.9591 31.7932 27.5467 31.7932C27.5628 31.6359 27.5745 31.5644 27.5759 31.4943C27.6415 29.136 28.7863 28.0334 31.175 28.0334C31.8983 28.0334 32.6216 28.0334 33.396 28.0334C33.396 27.59 33.3697 27.2153 33.4033 26.8449C33.4397 26.4273 33.2837 26.1785 32.9322 25.9225C31.6314 24.9743 30.8527 23.6929 30.6281 22.1126C30.5858 21.8123 30.4721 21.695 30.1717 21.6335C28.9146 21.3776 28.0965 20.5366 27.9638 19.2996C27.8967 18.6818 27.9011 18.0453 27.9726 17.429C28.1111 16.2434 28.9205 15.4211 30.1133 15.1465C30.2504 15.115 30.3846 15.0764 30.7127 14.992C30.4677 14.799 30.3525 14.6531 30.2023 14.6016C29.5825 14.3856 29.3142 14.0624 29.304 13.4146C29.2938 12.7539 29.3011 12.0917 29.3011 11.431C29.3011 10.1739 29.3754 10.0681 30.3554 9.70197C30.7944 8.58361 31.1881 7.58395 31.6023 6.53137C31.6168 6.54424 31.5396 6.46844 31.4535 6.40552C25.4016 2.0379 18.8903 1.25705 12.1705 4.53348C2.17532 9.40593 -1.06355 21.7909 5.04233 30.9637C5.43899 31.5587 5.84148 31.9219 6.60271 31.7989C6.93957 31.7446 7.2954 31.766 7.63956 31.7961C8.0508 31.8318 8.35412 31.7489 8.59911 31.377C8.79307 31.0838 9.09785 30.8593 9.36034 30.6119C9.66075 30.3302 10.0107 30.2944 10.3637 30.4932C10.7326 30.7006 10.8026 31.0409 10.7107 31.4242C10.6845 31.5358 10.6349 31.643 10.5839 31.7903C10.8288 31.7903 11.0286 31.7903 11.227 31.7903C14.5985 31.7903 17.9716 31.7903 21.3432 31.7903C21.5065 31.7903 21.6727 31.7803 21.8346 31.8003C22.2473 31.8504 22.4996 32.0821 22.5463 32.4897C22.5958 32.9216 22.3931 33.2248 21.9702 33.3435C21.7661 33.4007 21.5386 33.3978 21.3213 33.3978C16.0904 33.4007 10.858 33.3992 5.62711 33.3992C5.41274 33.3992 5.19545 33.3992 4.88046 33.3992ZM32.2016 14.6516C32.2016 17.0157 32.1025 19.3225 32.2308 21.6164C32.3504 23.7716 34.1353 25.4105 36.2105 25.462C37.9765 25.5049 39.7454 25.5049 41.5114 25.462C43.572 25.412 45.4254 23.6858 45.4911 21.6736C45.5669 19.3711 45.5115 17.0657 45.51 14.7618C45.51 14.7332 45.4765 14.7031 45.4444 14.6516C41.0564 14.6516 36.6538 14.6516 32.2016 14.6516ZM45.4925 9.71627C45.4138 7.82421 43.814 6.34545 41.7491 6.28682C39.8198 6.23104 37.8875 6.25249 35.9567 6.28539C35.0453 6.30112 34.2068 6.62147 33.4981 7.19924C32.712 7.84137 32.2716 8.65797 32.222 9.71484C32.4787 9.71484 32.677 9.71484 32.8754 9.71484C34.9709 9.71484 37.065 9.71341 39.1606 9.71627C39.7891 9.7177 40.1479 9.9694 40.2091 10.4328C40.2777 10.949 39.8854 11.3209 39.2423 11.3209C36.7282 11.3252 34.2141 11.3223 31.7 11.3223C31.4681 11.3223 31.2362 11.3223 30.9898 11.3223C30.9898 11.9144 30.9898 12.4521 30.9898 12.9813C36.2586 12.9813 41.4793 12.9813 46.7131 12.9813C46.7131 12.4206 46.7131 11.8958 46.7131 11.3223C45.6019 11.3223 44.5315 11.3252 43.4597 11.3209C42.7699 11.3194 42.4097 11.032 42.4228 10.5028C42.4345 9.99944 42.7918 9.71913 43.4465 9.71341C44.1174 9.71198 44.7882 9.71627 45.4925 9.71627ZM33.2122 29.6523C32.4175 29.6523 31.4696 29.6151 30.5275 29.6623C29.5986 29.7095 28.8913 30.8693 29.2369 31.7074C29.2719 31.7903 29.3784 31.8633 29.4688 31.9033C30.0054 32.1479 30.284 32.5698 30.4415 33.1204C30.9285 34.8193 31.4404 36.5112 31.942 38.2059C32.3868 39.709 32.8302 41.212 33.272 42.7065C34.096 42.7065 34.8718 42.7065 35.6592 42.7065C35.6942 42.5635 35.7351 42.4448 35.7526 42.3232C36.1317 39.5645 36.4861 36.8029 36.9032 34.0499C36.9805 33.538 36.874 33.1418 36.4598 32.9773C35.5645 32.6198 35.0482 31.869 34.4197 31.2426C33.9866 30.8121 33.6716 30.2687 33.2122 29.6523ZM47.2002 29.6737C46.2508 29.6737 45.3 29.6737 44.3259 29.6737C43.9569 30.9895 42.783 31.6902 41.9153 32.6327C41.8337 32.7213 41.7053 32.7743 41.5901 32.8257C40.8143 33.1733 40.7239 33.3449 40.8377 34.1315C41.0535 35.6331 41.2547 37.1362 41.4647 38.6392C41.6543 39.9936 41.8468 41.3479 42.0349 42.6908C42.1428 42.7122 42.1953 42.7323 42.2478 42.7323C42.7393 42.7351 43.2307 42.7408 43.7222 42.7337C44.6555 42.7208 44.8348 42.5421 44.8348 41.6239C44.8363 38.7308 44.8334 35.8376 44.8392 32.9459C44.8392 32.627 44.8465 32.298 44.9209 31.9905C45.2111 30.7878 46.0306 30.0756 47.2002 29.6737ZM43.1053 47.7463C40.301 47.7463 37.5623 47.7463 34.7609 47.7463C34.9549 48.4042 35.1634 49.0091 35.3049 49.6298C35.388 49.9902 35.5659 50.066 35.9086 50.0631C38.1661 50.0502 40.4235 50.0574 42.6809 50.0545C42.8195 50.0545 42.958 50.0274 43.1053 50.0131C43.1053 49.2465 43.1053 48.5186 43.1053 47.7463ZM40.3754 42.7094C40.005 40.0365 39.6389 37.3979 39.2787 34.7965C38.9637 34.7965 38.7173 34.7965 38.4417 34.7965C38.0786 37.4408 37.7184 40.0608 37.3552 42.7094C38.4038 42.7094 39.3604 42.7094 40.3754 42.7094ZM53.7129 13.5361C51.9572 13.5361 50.3064 13.5319 48.6541 13.5462C48.5535 13.5476 48.396 13.6734 48.3625 13.7721C48.2093 14.2226 47.9045 14.48 47.4481 14.6087C47.3416 14.6388 47.2644 14.7732 47.1739 14.859C47.2673 14.942 47.3475 15.0549 47.4569 15.1007C47.8214 15.2552 48.3172 15.2866 48.5447 15.5469C49.1529 16.2448 49.9141 16.149 50.6855 16.1447C51.524 16.1404 52.3626 16.1447 53.2011 16.1418C53.3527 16.1418 53.5029 16.1204 53.6896 16.1075C52.7067 14.9076 52.7053 14.7603 53.7129 13.5361ZM53.0844 21.0701C52.014 20.0418 50.8882 18.9606 49.7945 17.9095C49.7551 18.7876 49.9462 19.833 49.2797 20.5824C50.0745 21.3475 50.808 22.0511 51.4949 22.7119C51.6495 21.4119 51.6495 21.4119 53.0844 21.0701ZM37.6921 30.1485C37.0228 29.1603 35.7307 28.5497 35.9086 27.0752C35.6038 27.0337 35.3486 26.9994 35.0424 26.9579C35.0424 27.7931 35.0336 28.5568 35.0511 29.3191C35.0541 29.4664 35.1255 29.648 35.229 29.7524C35.6957 30.2215 36.1842 30.6691 36.6392 31.0981C36.9805 30.7907 37.3377 30.4689 37.6921 30.1485ZM41.787 27.0909C41.9955 28.5868 40.6714 29.1618 40.0312 30.1628C40.371 30.4946 40.7152 30.8307 41.0535 31.1611C41.5245 30.7077 41.9853 30.2787 42.4272 29.8325C42.5351 29.7238 42.6474 29.5622 42.6503 29.422C42.6707 28.6097 42.6605 27.796 42.6605 26.945C42.3484 26.9965 42.1005 27.038 41.787 27.0909ZM48.4368 48.8647C47.206 48.8647 46.0146 48.8647 44.8057 48.8647C44.8057 49.2765 44.8057 49.6412 44.8057 50.0245C46.0321 50.0245 47.2235 50.0245 48.4368 50.0245C48.4368 49.6241 48.4368 49.2551 48.4368 48.8647ZM37.5113 27.1095C37.6615 27.9976 38.4183 28.3451 38.9054 29.0302C39.2758 28.2851 40.1348 27.9991 40.1683 27.1095C39.286 27.1095 38.4548 27.1095 37.5113 27.1095ZM47.2192 16.7182C47.2192 17.8451 47.2192 18.9277 47.2192 20.0404C47.7879 19.9403 48.0795 19.6256 48.1233 19.1408C48.167 18.6474 48.1656 18.144 48.1262 17.6492C48.0854 17.1386 47.7748 16.8283 47.2192 16.7182ZM30.5042 20.0189C30.5042 18.9034 30.5042 17.8294 30.5042 16.7482C29.6846 16.9284 29.5534 17.2059 29.5621 18.6746C29.5679 19.5456 29.7881 19.8702 30.5042 20.0189ZM38.0946 32.125C38.3586 32.4382 38.6065 32.7314 38.834 33.0017C39.1621 32.7113 39.4435 32.4639 39.7396 32.2008C39.4231 31.8976 39.1446 31.6302 38.8806 31.3756C38.6006 31.6416 38.3323 31.8976 38.0946 32.125Z" fill="url(#paint0_linear_539_867)"/>
<path d="M0.333496 19.4683C0.514325 18.3986 0.649946 17.3188 0.884732 16.2605C2.66823 8.21177 9.80804 1.95209 18.1845 1.11118C23.5685 0.570587 28.3867 1.98499 32.6289 5.27572C32.8914 5.47879 33.0679 5.47736 33.3901 5.36867C34.2403 5.07979 35.1197 4.73942 36.0019 4.69365C37.9094 4.59354 39.8285 4.62644 41.7403 4.67363C44.7007 4.74657 46.8575 6.73874 47.1783 9.69053C48.5987 9.80637 48.3887 10.9033 48.4004 11.8972C48.6468 11.9087 48.8408 11.9244 49.0347 11.9244C51.0574 11.9258 53.0815 11.9287 55.1042 11.923C55.5825 11.9215 56.0229 11.9744 56.246 12.4707C56.4691 12.9655 56.2154 13.3259 55.8873 13.6663C55.5241 14.041 55.1669 14.4228 54.7717 14.839C55.1669 15.2509 55.5518 15.6499 55.9339 16.0517C56.2489 16.3835 56.4662 16.7468 56.2402 17.2102C56.0214 17.6621 55.6189 17.7622 55.1479 17.7565C54.2569 17.745 53.3659 17.7536 52.3888 17.7536C52.5142 17.9095 52.5871 18.0182 52.6776 18.1097C53.624 19.0507 54.5733 19.9918 55.5241 20.9285C55.8493 21.2488 56.0914 21.5949 55.9033 22.0712C55.7064 22.566 55.2821 22.6818 54.7965 22.6833C54.2715 22.6833 53.7479 22.6833 53.1223 22.6833C53.1223 23.2939 53.1282 23.8245 53.1209 24.3551C53.1136 24.827 52.9955 25.2604 52.4865 25.4391C52.0097 25.6064 51.6509 25.3776 51.3243 25.0501C50.3034 24.029 49.2593 23.0294 48.2516 21.9982C47.9366 21.6765 47.6391 21.512 47.171 21.7565C47.0208 23.0093 46.5556 24.1706 45.6675 25.1474C45.51 25.3204 45.3642 25.5392 45.1615 25.6308C44.0474 26.1427 44.3099 27.0809 44.3405 28.0319C45.128 28.0319 45.8863 28.0305 46.646 28.0319C48.4456 28.0348 49.3337 28.6355 49.9972 30.293C50.0293 30.3745 50.0643 30.466 50.1255 30.5247C50.9174 31.2898 51.088 32.248 51.0603 33.2848C51.0355 34.1958 51.0618 35.1082 51.0516 36.0192C51.0443 36.6442 50.7264 37.006 50.2189 37.0032C49.7085 37.0003 49.4197 36.6513 49.4168 36.0064C49.411 34.9338 49.4328 33.8612 49.4095 32.7886C49.3862 31.6988 48.5214 31.0738 47.4846 31.3613C46.8269 31.5443 46.4827 32.0377 46.4813 32.8358C46.4769 35.6059 46.4798 38.3761 46.4798 41.1477C46.4798 41.3264 46.4813 41.5052 46.4798 41.684C46.4667 43.433 45.5786 44.3254 43.7834 44.3412C41.6514 44.3597 39.5179 44.3469 37.3859 44.3469C36.2032 44.3469 35.0205 44.3469 33.7591 44.3469C33.9224 44.8946 34.0391 45.3966 34.2316 45.8685C34.2826 45.9944 34.5641 46.0959 34.7391 46.0974C37.3086 46.1117 39.8781 46.1074 42.4491 46.1074C42.7407 46.1074 43.0324 46.1016 43.324 46.1102C43.9394 46.1274 44.393 46.3805 44.6817 46.9397C44.7546 47.0799 44.9923 47.2143 45.1586 47.2186C46.0146 47.2458 46.8721 47.2357 47.7281 47.23C48.8743 47.2229 49.4095 46.7109 49.4139 45.5925C49.4212 43.8406 49.4153 42.0887 49.4168 40.3382C49.4168 40.1595 49.3628 39.9349 49.4518 39.8134C49.6253 39.5745 49.847 39.3057 50.111 39.207C50.4653 39.0754 50.7832 39.2785 50.9568 39.6232C51.0122 39.7318 51.0472 39.8634 51.0472 39.985C51.0472 42.0229 51.0749 44.0608 51.0078 46.0959C50.9918 46.5979 50.738 47.1399 50.4507 47.5718C50.2072 47.9394 50.076 48.274 50.0964 48.6988C50.1182 49.1249 50.1007 49.5511 50.1007 50.0588C50.8547 50.0588 51.5751 50.0531 52.2955 50.0617C52.5303 50.0645 52.7738 50.0674 52.9955 50.1332C53.395 50.2505 53.5861 50.5565 53.5423 50.9541C53.5 51.3502 53.2609 51.6076 52.8394 51.6563C52.6776 51.6749 52.5113 51.6677 52.348 51.6677C35.4886 51.6677 18.6293 51.6677 1.76992 51.6677C1.60659 51.6677 1.44034 51.6749 1.27847 51.6563C0.857024 51.6062 0.619322 51.3445 0.575573 50.9527C0.530366 50.5551 0.728694 50.2519 1.12681 50.1332C1.33097 50.0717 1.55701 50.0631 1.77283 50.0631C3.64966 50.0574 5.52794 50.0602 7.40477 50.0602C7.60164 50.0602 7.79851 50.0602 8.06392 50.0602C7.69351 48.796 7.34644 47.5976 6.99353 46.402C5.74523 42.1688 4.50422 37.9327 3.23842 33.7038C3.02405 32.9859 2.99197 32.3652 3.72257 31.909C2.34303 29.8325 1.36014 27.6372 0.840983 25.2575C0.632447 24.3022 0.5012 23.3311 0.334954 22.3686C0.333496 21.399 0.333496 20.4337 0.333496 19.4683ZM4.88046 33.3992C4.95921 33.6953 5.01317 33.9184 5.07879 34.1386C6.59104 39.2642 8.11059 44.3869 9.60971 49.5168C9.72929 49.9258 9.88241 50.0703 10.3403 50.0703C17.941 50.0531 25.5431 50.0588 33.1437 50.0574C33.3187 50.0574 33.4922 50.0431 33.6614 50.0359C33.6672 49.953 33.6818 49.9144 33.6716 49.8829C32.085 44.4999 30.4925 39.1183 28.9161 33.7324C28.8271 33.4307 28.6682 33.3949 28.4071 33.3978C27.5322 33.4064 26.6572 33.4064 25.7822 33.3992C25.1508 33.3935 24.7643 33.0803 24.7614 32.5926C24.757 32.0978 25.1318 31.7989 25.7735 31.7946C26.3655 31.7903 26.9591 31.7932 27.5467 31.7932C27.5628 31.6359 27.5745 31.5644 27.5759 31.4943C27.6415 29.136 28.7863 28.0334 31.175 28.0334C31.8983 28.0334 32.6216 28.0334 33.396 28.0334C33.396 27.59 33.3697 27.2153 33.4033 26.8449C33.4397 26.4273 33.2837 26.1785 32.9322 25.9225C31.6314 24.9743 30.8527 23.6929 30.6281 22.1126C30.5858 21.8123 30.4721 21.695 30.1717 21.6335C28.9146 21.3776 28.0965 20.5366 27.9638 19.2996C27.8967 18.6818 27.9011 18.0453 27.9726 17.429C28.1111 16.2434 28.9205 15.4211 30.1133 15.1465C30.2504 15.115 30.3846 15.0764 30.7127 14.992C30.4677 14.799 30.3525 14.6531 30.2023 14.6016C29.5825 14.3856 29.3142 14.0624 29.304 13.4146C29.2938 12.7539 29.3011 12.0917 29.3011 11.431C29.3011 10.1739 29.3754 10.0681 30.3554 9.70197C30.7944 8.58361 31.1881 7.58395 31.6023 6.53137C31.6168 6.54424 31.5396 6.46844 31.4535 6.40552C25.4016 2.0379 18.8903 1.25705 12.1705 4.53348C2.17532 9.40593 -1.06355 21.7909 5.04233 30.9637C5.43899 31.5587 5.84148 31.9219 6.60271 31.7989C6.93957 31.7446 7.2954 31.766 7.63956 31.7961C8.0508 31.8318 8.35412 31.7489 8.59911 31.377C8.79307 31.0838 9.09785 30.8593 9.36034 30.6119C9.66075 30.3302 10.0107 30.2944 10.3637 30.4932C10.7326 30.7006 10.8026 31.0409 10.7107 31.4242C10.6845 31.5358 10.6349 31.643 10.5839 31.7903C10.8288 31.7903 11.0286 31.7903 11.227 31.7903C14.5985 31.7903 17.9716 31.7903 21.3432 31.7903C21.5065 31.7903 21.6727 31.7803 21.8346 31.8003C22.2473 31.8504 22.4996 32.0821 22.5463 32.4897C22.5958 32.9216 22.3931 33.2248 21.9702 33.3435C21.7661 33.4007 21.5386 33.3978 21.3213 33.3978C16.0904 33.4007 10.858 33.3992 5.62711 33.3992C5.41274 33.3992 5.19545 33.3992 4.88046 33.3992ZM32.2016 14.6516C32.2016 17.0157 32.1025 19.3225 32.2308 21.6164C32.3504 23.7716 34.1353 25.4105 36.2105 25.462C37.9765 25.5049 39.7454 25.5049 41.5114 25.462C43.572 25.412 45.4254 23.6858 45.4911 21.6736C45.5669 19.3711 45.5115 17.0657 45.51 14.7618C45.51 14.7332 45.4765 14.7031 45.4444 14.6516C41.0564 14.6516 36.6538 14.6516 32.2016 14.6516ZM45.4925 9.71627C45.4138 7.82421 43.814 6.34545 41.7491 6.28682C39.8198 6.23104 37.8875 6.25249 35.9567 6.28539C35.0453 6.30112 34.2068 6.62147 33.4981 7.19924C32.712 7.84137 32.2716 8.65797 32.222 9.71484C32.4787 9.71484 32.677 9.71484 32.8754 9.71484C34.9709 9.71484 37.065 9.71341 39.1606 9.71627C39.7891 9.7177 40.1479 9.9694 40.2091 10.4328C40.2777 10.949 39.8854 11.3209 39.2423 11.3209C36.7282 11.3252 34.2141 11.3223 31.7 11.3223C31.4681 11.3223 31.2362 11.3223 30.9898 11.3223C30.9898 11.9144 30.9898 12.4521 30.9898 12.9813C36.2586 12.9813 41.4793 12.9813 46.7131 12.9813C46.7131 12.4206 46.7131 11.8958 46.7131 11.3223C45.6019 11.3223 44.5315 11.3252 43.4597 11.3209C42.7699 11.3194 42.4097 11.032 42.4228 10.5028C42.4345 9.99944 42.7918 9.71913 43.4465 9.71341C44.1174 9.71198 44.7882 9.71627 45.4925 9.71627ZM33.2122 29.6523C32.4175 29.6523 31.4696 29.6151 30.5275 29.6623C29.5986 29.7095 28.8913 30.8693 29.2369 31.7074C29.2719 31.7903 29.3784 31.8633 29.4688 31.9033C30.0054 32.1479 30.284 32.5698 30.4415 33.1204C30.9285 34.8193 31.4404 36.5112 31.942 38.2059C32.3868 39.709 32.8302 41.212 33.272 42.7065C34.096 42.7065 34.8718 42.7065 35.6592 42.7065C35.6942 42.5635 35.7351 42.4448 35.7526 42.3232C36.1317 39.5645 36.4861 36.8029 36.9032 34.0499C36.9805 33.538 36.874 33.1418 36.4598 32.9773C35.5645 32.6198 35.0482 31.869 34.4197 31.2426C33.9866 30.8121 33.6716 30.2687 33.2122 29.6523ZM47.2002 29.6737C46.2508 29.6737 45.3 29.6737 44.3259 29.6737C43.9569 30.9895 42.783 31.6902 41.9153 32.6327C41.8337 32.7213 41.7053 32.7743 41.5901 32.8257C40.8143 33.1733 40.7239 33.3449 40.8377 34.1315C41.0535 35.6331 41.2547 37.1362 41.4647 38.6392C41.6543 39.9936 41.8468 41.3479 42.0349 42.6908C42.1428 42.7122 42.1953 42.7323 42.2478 42.7323C42.7393 42.7351 43.2307 42.7408 43.7222 42.7337C44.6555 42.7208 44.8348 42.5421 44.8348 41.6239C44.8363 38.7308 44.8334 35.8376 44.8392 32.9459C44.8392 32.627 44.8465 32.298 44.9209 31.9905C45.2111 30.7878 46.0306 30.0756 47.2002 29.6737ZM43.1053 47.7463C40.301 47.7463 37.5623 47.7463 34.7609 47.7463C34.9549 48.4042 35.1634 49.0091 35.3049 49.6298C35.388 49.9902 35.5659 50.066 35.9086 50.0631C38.1661 50.0502 40.4235 50.0574 42.6809 50.0545C42.8195 50.0545 42.958 50.0274 43.1053 50.0131C43.1053 49.2465 43.1053 48.5186 43.1053 47.7463ZM40.3754 42.7094C40.005 40.0365 39.6389 37.3979 39.2787 34.7965C38.9637 34.7965 38.7173 34.7965 38.4417 34.7965C38.0786 37.4408 37.7184 40.0608 37.3552 42.7094C38.4038 42.7094 39.3604 42.7094 40.3754 42.7094ZM53.7129 13.5361C51.9572 13.5361 50.3064 13.5319 48.6541 13.5462C48.5535 13.5476 48.396 13.6734 48.3625 13.7721C48.2093 14.2226 47.9045 14.48 47.4481 14.6087C47.3416 14.6388 47.2644 14.7732 47.1739 14.859C47.2673 14.942 47.3475 15.0549 47.4569 15.1007C47.8214 15.2552 48.3172 15.2866 48.5447 15.5469C49.1529 16.2448 49.9141 16.149 50.6855 16.1447C51.524 16.1404 52.3626 16.1447 53.2011 16.1418C53.3527 16.1418 53.5029 16.1204 53.6896 16.1075C52.7067 14.9076 52.7053 14.7603 53.7129 13.5361ZM53.0844 21.0701C52.014 20.0418 50.8882 18.9606 49.7945 17.9095C49.7551 18.7876 49.9462 19.833 49.2797 20.5824C50.0745 21.3475 50.808 22.0511 51.4949 22.7119C51.6495 21.4119 51.6495 21.4119 53.0844 21.0701ZM37.6921 30.1485C37.0228 29.1603 35.7307 28.5497 35.9086 27.0752C35.6038 27.0337 35.3486 26.9994 35.0424 26.9579C35.0424 27.7931 35.0336 28.5568 35.0511 29.3191C35.0541 29.4664 35.1255 29.648 35.229 29.7524C35.6957 30.2215 36.1842 30.6691 36.6392 31.0981C36.9805 30.7907 37.3377 30.4689 37.6921 30.1485ZM41.787 27.0909C41.9955 28.5868 40.6714 29.1618 40.0312 30.1628C40.371 30.4946 40.7152 30.8307 41.0535 31.1611C41.5245 30.7077 41.9853 30.2787 42.4272 29.8325C42.5351 29.7238 42.6474 29.5622 42.6503 29.422C42.6707 28.6097 42.6605 27.796 42.6605 26.945C42.3484 26.9965 42.1005 27.038 41.787 27.0909ZM48.4368 48.8647C47.206 48.8647 46.0146 48.8647 44.8057 48.8647C44.8057 49.2765 44.8057 49.6412 44.8057 50.0245C46.0321 50.0245 47.2235 50.0245 48.4368 50.0245C48.4368 49.6241 48.4368 49.2551 48.4368 48.8647ZM37.5113 27.1095C37.6615 27.9976 38.4183 28.3451 38.9054 29.0302C39.2758 28.2851 40.1348 27.9991 40.1683 27.1095C39.286 27.1095 38.4548 27.1095 37.5113 27.1095ZM47.2192 16.7182C47.2192 17.8451 47.2192 18.9277 47.2192 20.0404C47.7879 19.9403 48.0795 19.6256 48.1233 19.1408C48.167 18.6474 48.1656 18.144 48.1262 17.6492C48.0854 17.1386 47.7748 16.8283 47.2192 16.7182ZM30.5042 20.0189C30.5042 18.9034 30.5042 17.8294 30.5042 16.7482C29.6846 16.9284 29.5534 17.2059 29.5621 18.6746C29.5679 19.5456 29.7881 19.8702 30.5042 20.0189ZM38.0946 32.125C38.3586 32.4382 38.6065 32.7314 38.834 33.0017C39.1621 32.7113 39.4435 32.4639 39.7396 32.2008C39.4231 31.8976 39.1446 31.6302 38.8806 31.3756C38.6006 31.6416 38.3323 31.8976 38.0946 32.125Z" fill="url(#paint1_linear_539_867)"/>
<path d="M21.1069 14.3029C21.1069 15.59 21.1157 16.8757 21.1011 18.1629C21.0982 18.4489 21.1871 18.5947 21.4525 18.7363C22.2911 19.184 22.7052 19.9219 22.7169 20.8443C22.7213 21.1861 22.8408 21.3478 23.1252 21.5022C24.7323 22.376 26.3393 23.2541 27.9245 24.1665C28.1768 24.3124 28.429 24.6127 28.4859 24.8816C28.5311 25.0918 28.3357 25.4808 28.1374 25.5795C27.8909 25.7025 27.4826 25.7068 27.2332 25.5867C26.3845 25.1791 25.5752 24.6928 24.7498 24.238C23.9244 23.7833 23.096 23.3342 22.2779 22.868C22.0388 22.7307 21.8696 22.6949 21.6013 22.8623C20.3967 23.6131 18.8932 23.2527 18.1845 22.0771C17.4801 20.9087 17.8724 19.4171 19.1047 18.7435C19.4211 18.5704 19.4751 18.3802 19.4736 18.0713C19.4634 15.5343 19.4722 12.9958 19.4649 10.4587C19.4634 10.0454 19.5757 9.71364 19.984 9.54489C20.5426 9.3132 21.0967 9.71936 21.104 10.3887C21.1171 11.6944 21.1069 12.9986 21.1069 14.3029ZM20.2815 20.0292C19.8601 20.0292 19.4897 20.3996 19.4809 20.8272C19.4722 21.282 19.8499 21.6524 20.3092 21.6395C20.7394 21.6266 21.0953 21.2562 21.0865 20.8286C21.0778 20.4067 20.6971 20.0292 20.2815 20.0292Z" fill="#F1F2F4"/>
<path d="M21.1069 14.3029C21.1069 15.59 21.1157 16.8757 21.1011 18.1629C21.0982 18.4489 21.1871 18.5947 21.4525 18.7363C22.2911 19.184 22.7052 19.9219 22.7169 20.8443C22.7213 21.1861 22.8408 21.3478 23.1252 21.5022C24.7323 22.376 26.3393 23.2541 27.9245 24.1665C28.1768 24.3124 28.429 24.6127 28.4859 24.8816C28.5311 25.0918 28.3357 25.4808 28.1374 25.5795C27.8909 25.7025 27.4826 25.7068 27.2332 25.5867C26.3845 25.1791 25.5752 24.6928 24.7498 24.238C23.9244 23.7833 23.096 23.3342 22.2779 22.868C22.0388 22.7307 21.8696 22.6949 21.6013 22.8623C20.3967 23.6131 18.8932 23.2527 18.1845 22.0771C17.4801 20.9087 17.8724 19.4171 19.1047 18.7435C19.4211 18.5704 19.4751 18.3802 19.4736 18.0713C19.4634 15.5343 19.4722 12.9958 19.4649 10.4587C19.4634 10.0454 19.5757 9.71364 19.984 9.54489C20.5426 9.3132 21.0967 9.71936 21.104 10.3887C21.1171 11.6944 21.1069 12.9986 21.1069 14.3029ZM20.2815 20.0292C19.8601 20.0292 19.4897 20.3996 19.4809 20.8272C19.4722 21.282 19.8499 21.6524 20.3092 21.6395C20.7394 21.6266 21.0953 21.2562 21.0865 20.8286C21.0778 20.4067 20.6971 20.0292 20.2815 20.0292Z" fill="url(#paint2_linear_539_867)"/>
<path d="M21.1069 14.3029C21.1069 15.59 21.1157 16.8757 21.1011 18.1629C21.0982 18.4489 21.1871 18.5947 21.4525 18.7363C22.2911 19.184 22.7052 19.9219 22.7169 20.8443C22.7213 21.1861 22.8408 21.3478 23.1252 21.5022C24.7323 22.376 26.3393 23.2541 27.9245 24.1665C28.1768 24.3124 28.429 24.6127 28.4859 24.8816C28.5311 25.0918 28.3357 25.4808 28.1374 25.5795C27.8909 25.7025 27.4826 25.7068 27.2332 25.5867C26.3845 25.1791 25.5752 24.6928 24.7498 24.238C23.9244 23.7833 23.096 23.3342 22.2779 22.868C22.0388 22.7307 21.8696 22.6949 21.6013 22.8623C20.3967 23.6131 18.8932 23.2527 18.1845 22.0771C17.4801 20.9087 17.8724 19.4171 19.1047 18.7435C19.4211 18.5704 19.4751 18.3802 19.4736 18.0713C19.4634 15.5343 19.4722 12.9958 19.4649 10.4587C19.4634 10.0454 19.5757 9.71364 19.984 9.54489C20.5426 9.3132 21.0967 9.71936 21.104 10.3887C21.1171 11.6944 21.1069 12.9986 21.1069 14.3029ZM20.2815 20.0292C19.8601 20.0292 19.4897 20.3996 19.4809 20.8272C19.4722 21.282 19.8499 21.6524 20.3092 21.6395C20.7394 21.6266 21.0953 21.2562 21.0865 20.8286C21.0778 20.4067 20.6971 20.0292 20.2815 20.0292Z" fill="url(#paint3_linear_539_867)"/>
<path d="M22.7651 42.4091C22.7607 44.6573 20.8503 46.2991 18.5739 46.0102C16.4959 45.747 14.7619 44.2969 14.2267 42.3734C13.4174 39.4659 15.6107 37.0919 18.6337 37.6039C20.9261 37.9914 22.7694 40.1352 22.7651 42.4091ZM21.123 42.3591C21.1128 40.7144 19.4926 39.1413 17.8039 39.1355C16.49 39.1313 15.58 40.1123 15.7084 41.3952C15.86 42.9068 17.1433 44.1911 18.7227 44.4099C20.0716 44.5986 21.1318 43.6919 21.123 42.3591Z" fill="#F1F2F4"/>
<path d="M22.7651 42.4091C22.7607 44.6573 20.8503 46.2991 18.5739 46.0102C16.4959 45.747 14.7619 44.2969 14.2267 42.3734C13.4174 39.4659 15.6107 37.0919 18.6337 37.6039C20.9261 37.9914 22.7694 40.1352 22.7651 42.4091ZM21.123 42.3591C21.1128 40.7144 19.4926 39.1413 17.8039 39.1355C16.49 39.1313 15.58 40.1123 15.7084 41.3952C15.86 42.9068 17.1433 44.1911 18.7227 44.4099C20.0716 44.5986 21.1318 43.6919 21.123 42.3591Z" fill="url(#paint4_linear_539_867)"/>
<path d="M22.7651 42.4091C22.7607 44.6573 20.8503 46.2991 18.5739 46.0102C16.4959 45.747 14.7619 44.2969 14.2267 42.3734C13.4174 39.4659 15.6107 37.0919 18.6337 37.6039C20.9261 37.9914 22.7694 40.1352 22.7651 42.4091ZM21.123 42.3591C21.1128 40.7144 19.4926 39.1413 17.8039 39.1355C16.49 39.1313 15.58 40.1123 15.7084 41.3952C15.86 42.9068 17.1433 44.1911 18.7227 44.4099C20.0716 44.5986 21.1318 43.6919 21.123 42.3591Z" fill="url(#paint5_linear_539_867)"/>
<path d="M21.018 5.7411C21.018 5.95419 21.0341 6.17014 21.0151 6.3818C20.9757 6.81942 20.6943 7.06826 20.2743 7.10258C19.847 7.13691 19.4955 6.91524 19.443 6.49478C19.3789 5.98851 19.3774 5.46365 19.4387 4.95596C19.4897 4.53836 19.8207 4.31383 20.2626 4.34243C20.7278 4.37389 20.9845 4.64419 21.0195 5.09897C21.0355 5.31206 21.0224 5.52658 21.0224 5.73967C21.0195 5.7411 21.018 5.7411 21.018 5.7411Z" fill="#F1F2F4"/>
<path d="M21.018 5.7411C21.018 5.95419 21.0341 6.17014 21.0151 6.3818C20.9757 6.81942 20.6943 7.06826 20.2743 7.10258C19.847 7.13691 19.4955 6.91524 19.443 6.49478C19.3789 5.98851 19.3774 5.46365 19.4387 4.95596C19.4897 4.53836 19.8207 4.31383 20.2626 4.34243C20.7278 4.37389 20.9845 4.64419 21.0195 5.09897C21.0355 5.31206 21.0224 5.52658 21.0224 5.73967C21.0195 5.7411 21.018 5.7411 21.018 5.7411Z" fill="url(#paint6_linear_539_867)"/>
<path d="M21.018 5.7411C21.018 5.95419 21.0341 6.17014 21.0151 6.3818C20.9757 6.81942 20.6943 7.06826 20.2743 7.10258C19.847 7.13691 19.4955 6.91524 19.443 6.49478C19.3789 5.98851 19.3774 5.46365 19.4387 4.95596C19.4897 4.53836 19.8207 4.31383 20.2626 4.34243C20.7278 4.37389 20.9845 4.64419 21.0195 5.09897C21.0355 5.31206 21.0224 5.52658 21.0224 5.73967C21.0195 5.7411 21.018 5.7411 21.018 5.7411Z" fill="url(#paint7_linear_539_867)"/>
<path d="M5.01025 21.7048C4.77401 21.7048 4.53047 21.7391 4.30152 21.6976C3.85528 21.6161 3.5855 21.3444 3.60445 20.8782C3.62341 20.4148 3.90195 20.1531 4.36131 20.1173C4.75942 20.0873 5.16337 20.0973 5.5644 20.1116C6.07189 20.1302 6.41459 20.4663 6.41167 20.9111C6.40876 21.3515 6.0646 21.6805 5.55711 21.7119C5.37628 21.7234 5.19254 21.7134 5.01025 21.7134C5.01025 21.7119 5.01025 21.7077 5.01025 21.7048Z" fill="#F1F2F4"/>
<path d="M5.01025 21.7048C4.77401 21.7048 4.53047 21.7391 4.30152 21.6976C3.85528 21.6161 3.5855 21.3444 3.60445 20.8782C3.62341 20.4148 3.90195 20.1531 4.36131 20.1173C4.75942 20.0873 5.16337 20.0973 5.5644 20.1116C6.07189 20.1302 6.41459 20.4663 6.41167 20.9111C6.40876 21.3515 6.0646 21.6805 5.55711 21.7119C5.37628 21.7234 5.19254 21.7134 5.01025 21.7134C5.01025 21.7119 5.01025 21.7077 5.01025 21.7048Z" fill="url(#paint8_linear_539_867)"/>
<path d="M5.01025 21.7048C4.77401 21.7048 4.53047 21.7391 4.30152 21.6976C3.85528 21.6161 3.5855 21.3444 3.60445 20.8782C3.62341 20.4148 3.90195 20.1531 4.36131 20.1173C4.75942 20.0873 5.16337 20.0973 5.5644 20.1116C6.07189 20.1302 6.41459 20.4663 6.41167 20.9111C6.40876 21.3515 6.0646 21.6805 5.55711 21.7119C5.37628 21.7234 5.19254 21.7134 5.01025 21.7134C5.01025 21.7119 5.01025 21.7077 5.01025 21.7048Z" fill="url(#paint9_linear_539_867)"/>
<path d="M8.94172 8.89209C9.20859 9.0208 9.41275 9.07372 9.5542 9.19528C9.86628 9.46414 10.1638 9.75446 10.4379 10.0619C10.7485 10.4095 10.7267 10.8743 10.4248 11.1717C10.1069 11.4849 9.66649 11.5107 9.30192 11.1917C8.97672 10.91 8.63547 10.6211 8.40361 10.2707C8.26069 10.0548 8.21111 9.67723 8.30444 9.44412C8.39777 9.21387 8.72297 9.07086 8.94172 8.89209Z" fill="#F1F2F4"/>
<path d="M8.94172 8.89209C9.20859 9.0208 9.41275 9.07372 9.5542 9.19528C9.86628 9.46414 10.1638 9.75446 10.4379 10.0619C10.7485 10.4095 10.7267 10.8743 10.4248 11.1717C10.1069 11.4849 9.66649 11.5107 9.30192 11.1917C8.97672 10.91 8.63547 10.6211 8.40361 10.2707C8.26069 10.0548 8.21111 9.67723 8.30444 9.44412C8.39777 9.21387 8.72297 9.07086 8.94172 8.89209Z" fill="url(#paint10_linear_539_867)"/>
<path d="M8.94172 8.89209C9.20859 9.0208 9.41275 9.07372 9.5542 9.19528C9.86628 9.46414 10.1638 9.75446 10.4379 10.0619C10.7485 10.4095 10.7267 10.8743 10.4248 11.1717C10.1069 11.4849 9.66649 11.5107 9.30192 11.1917C8.97672 10.91 8.63547 10.6211 8.40361 10.2707C8.26069 10.0548 8.21111 9.67723 8.30444 9.44412C8.39777 9.21387 8.72297 9.07086 8.94172 8.89209Z" fill="url(#paint11_linear_539_867)"/>
<path d="M38.8515 23.4812C38.2332 23.4812 37.6149 23.494 36.998 23.4769C36.4147 23.4612 36.0983 23.1737 36.0895 22.696C36.0808 22.1984 36.4118 21.8866 37.0199 21.8794C38.2551 21.8666 39.4917 21.8666 40.7269 21.8809C41.284 21.8866 41.6383 22.2112 41.6485 22.6646C41.6602 23.1337 41.2898 23.4654 40.705 23.4797C40.0882 23.4926 39.4699 23.4826 38.8515 23.4812Z" fill="#F1F2F4"/>
<path d="M38.8515 23.4812C38.2332 23.4812 37.6149 23.494 36.998 23.4769C36.4147 23.4612 36.0983 23.1737 36.0895 22.696C36.0808 22.1984 36.4118 21.8866 37.0199 21.8794C38.2551 21.8666 39.4917 21.8666 40.7269 21.8809C41.284 21.8866 41.6383 22.2112 41.6485 22.6646C41.6602 23.1337 41.2898 23.4654 40.705 23.4797C40.0882 23.4926 39.4699 23.4826 38.8515 23.4812Z" fill="url(#paint12_linear_539_867)"/>
<path d="M38.8515 23.4812C38.2332 23.4812 37.6149 23.494 36.998 23.4769C36.4147 23.4612 36.0983 23.1737 36.0895 22.696C36.0808 22.1984 36.4118 21.8866 37.0199 21.8794C38.2551 21.8666 39.4917 21.8666 40.7269 21.8809C41.284 21.8866 41.6383 22.2112 41.6485 22.6646C41.6602 23.1337 41.2898 23.4654 40.705 23.4797C40.0882 23.4926 39.4699 23.4826 38.8515 23.4812Z" fill="url(#paint13_linear_539_867)"/>
<path d="M39.0367 18.9339C39.3342 18.9739 39.6026 18.9339 39.7513 19.0468C39.9876 19.2256 40.2836 19.4973 40.2967 19.7433C40.3098 19.9922 40.0298 20.4598 39.8446 20.477C39.2526 20.5342 38.6007 20.537 38.0568 20.3382C37.752 20.2267 37.4997 19.6961 37.4297 19.3171C37.3247 18.7479 37.3874 18.1459 37.402 17.5581C37.4151 17.0704 37.7155 16.7701 38.1647 16.7486C38.6284 16.7272 38.9784 17.0332 39.0265 17.5266C39.0484 17.7569 39.0338 17.99 39.0353 18.2217C39.0382 18.4519 39.0367 18.6807 39.0367 18.9339Z" fill="#F1F2F4"/>
<path d="M39.0367 18.9339C39.3342 18.9739 39.6026 18.9339 39.7513 19.0468C39.9876 19.2256 40.2836 19.4973 40.2967 19.7433C40.3098 19.9922 40.0298 20.4598 39.8446 20.477C39.2526 20.5342 38.6007 20.537 38.0568 20.3382C37.752 20.2267 37.4997 19.6961 37.4297 19.3171C37.3247 18.7479 37.3874 18.1459 37.402 17.5581C37.4151 17.0704 37.7155 16.7701 38.1647 16.7486C38.6284 16.7272 38.9784 17.0332 39.0265 17.5266C39.0484 17.7569 39.0338 17.99 39.0353 18.2217C39.0382 18.4519 39.0367 18.6807 39.0367 18.9339Z" fill="url(#paint14_linear_539_867)"/>
<path d="M39.0367 18.9339C39.3342 18.9739 39.6026 18.9339 39.7513 19.0468C39.9876 19.2256 40.2836 19.4973 40.2967 19.7433C40.3098 19.9922 40.0298 20.4598 39.8446 20.477C39.2526 20.5342 38.6007 20.537 38.0568 20.3382C37.752 20.2267 37.4997 19.6961 37.4297 19.3171C37.3247 18.7479 37.3874 18.1459 37.402 17.5581C37.4151 17.0704 37.7155 16.7701 38.1647 16.7486C38.6284 16.7272 38.9784 17.0332 39.0265 17.5266C39.0484 17.7569 39.0338 17.99 39.0353 18.2217C39.0382 18.4519 39.0367 18.6807 39.0367 18.9339Z" fill="url(#paint15_linear_539_867)"/>
<path d="M43.1869 17.6741C43.1869 17.923 43.2131 18.1747 43.181 18.4207C43.1227 18.874 42.7508 19.1844 42.3206 19.1386C41.8642 19.0914 41.5871 18.8297 41.5652 18.3749C41.5434 17.8958 41.5434 17.4139 41.5652 16.9348C41.5857 16.48 41.94 16.1425 42.3673 16.1596C42.8267 16.1782 43.1139 16.4328 43.1781 16.8761C43.2175 17.1364 43.1869 17.4081 43.1869 17.6741Z" fill="#F1F2F4"/>
<path d="M43.1869 17.6741C43.1869 17.923 43.2131 18.1747 43.181 18.4207C43.1227 18.874 42.7508 19.1844 42.3206 19.1386C41.8642 19.0914 41.5871 18.8297 41.5652 18.3749C41.5434 17.8958 41.5434 17.4139 41.5652 16.9348C41.5857 16.48 41.94 16.1425 42.3673 16.1596C42.8267 16.1782 43.1139 16.4328 43.1781 16.8761C43.2175 17.1364 43.1869 17.4081 43.1869 17.6741Z" fill="url(#paint16_linear_539_867)"/>
<path d="M43.1869 17.6741C43.1869 17.923 43.2131 18.1747 43.181 18.4207C43.1227 18.874 42.7508 19.1844 42.3206 19.1386C41.8642 19.0914 41.5871 18.8297 41.5652 18.3749C41.5434 17.8958 41.5434 17.4139 41.5652 16.9348C41.5857 16.48 41.94 16.1425 42.3673 16.1596C42.8267 16.1782 43.1139 16.4328 43.1781 16.8761C43.2175 17.1364 43.1869 17.4081 43.1869 17.6741Z" fill="url(#paint17_linear_539_867)"/>
<path d="M36.1987 17.6568C36.1812 17.94 36.1958 18.2289 36.1389 18.5049C36.0529 18.9225 35.7568 19.1584 35.3223 19.137C34.8673 19.1127 34.5785 18.851 34.5538 18.3933C34.529 17.9142 34.5319 17.4337 34.5508 16.9546C34.5698 16.4912 34.9037 16.1695 35.331 16.158C35.7539 16.1466 36.1112 16.4541 36.1666 16.9131C36.1958 17.1591 36.1724 17.4094 36.1724 17.6582C36.1812 17.6568 36.1899 17.6568 36.1987 17.6568Z" fill="#F1F2F4"/>
<path d="M36.1987 17.6568C36.1812 17.94 36.1958 18.2289 36.1389 18.5049C36.0529 18.9225 35.7568 19.1584 35.3223 19.137C34.8673 19.1127 34.5785 18.851 34.5538 18.3933C34.529 17.9142 34.5319 17.4337 34.5508 16.9546C34.5698 16.4912 34.9037 16.1695 35.331 16.158C35.7539 16.1466 36.1112 16.4541 36.1666 16.9131C36.1958 17.1591 36.1724 17.4094 36.1724 17.6582C36.1812 17.6568 36.1899 17.6568 36.1987 17.6568Z" fill="url(#paint18_linear_539_867)"/>
<path d="M36.1987 17.6568C36.1812 17.94 36.1958 18.2289 36.1389 18.5049C36.0529 18.9225 35.7568 19.1584 35.3223 19.137C34.8673 19.1127 34.5785 18.851 34.5538 18.3933C34.529 17.9142 34.5319 17.4337 34.5508 16.9546C34.5698 16.4912 34.9037 16.1695 35.331 16.158C35.7539 16.1466 36.1112 16.4541 36.1666 16.9131C36.1958 17.1591 36.1724 17.4094 36.1724 17.6582C36.1812 17.6568 36.1899 17.6568 36.1987 17.6568Z" fill="url(#paint19_linear_539_867)"/>
<defs>
<linearGradient id="paint0_linear_539_867" x1="5.63311" y1="26.4523" x2="46.9701" y2="26.4523" gradientUnits="userSpaceOnUse">
<stop stop-color="#FF1C54"/>
<stop offset="1" stop-color="#FF4444"/>
</linearGradient>
<linearGradient id="paint1_linear_539_867" x1="16.3206" y1="26.3339" x2="46.4431" y2="26.3339" gradientUnits="userSpaceOnUse">
<stop stop-color="#1882DB"/>
<stop offset="1" stop-color="#0197D5"/>
</linearGradient>
<linearGradient id="paint2_linear_539_867" x1="18.8447" y1="17.6146" x2="26.7107" y2="17.6146" gradientUnits="userSpaceOnUse">
<stop stop-color="#FF1C54"/>
<stop offset="1" stop-color="#FF4444"/>
</linearGradient>
<linearGradient id="paint3_linear_539_867" x1="20.8784" y1="17.5768" x2="26.6105" y2="17.5768" gradientUnits="userSpaceOnUse">
<stop stop-color="#1882DB"/>
<stop offset="1" stop-color="#0197D5"/>
</linearGradient>
<linearGradient id="paint4_linear_539_867" x1="14.8814" y1="41.8085" x2="21.3091" y2="41.8085" gradientUnits="userSpaceOnUse">
<stop stop-color="#FF1C54"/>
<stop offset="1" stop-color="#FF4444"/>
</linearGradient>
<linearGradient id="paint5_linear_539_867" x1="16.5433" y1="41.7886" x2="21.2272" y2="41.7886" gradientUnits="userSpaceOnUse">
<stop stop-color="#1882DB"/>
<stop offset="1" stop-color="#0197D5"/>
</linearGradient>
<linearGradient id="paint6_linear_539_867" x1="19.5484" y1="5.72949" x2="20.7543" y2="5.72949" gradientUnits="userSpaceOnUse">
<stop stop-color="#FF1C54"/>
<stop offset="1" stop-color="#FF4444"/>
</linearGradient>
<linearGradient id="paint7_linear_539_867" x1="19.8602" y1="5.72302" x2="20.7389" y2="5.72302" gradientUnits="userSpaceOnUse">
<stop stop-color="#1882DB"/>
<stop offset="1" stop-color="#0197D5"/>
</linearGradient>
<linearGradient id="paint8_linear_539_867" x1="3.86927" y1="20.9118" x2="5.94216" y2="20.9118" gradientUnits="userSpaceOnUse">
<stop stop-color="#FF1C54"/>
<stop offset="1" stop-color="#FF4444"/>
</linearGradient>
<linearGradient id="paint9_linear_539_867" x1="4.4052" y1="20.908" x2="5.91573" y2="20.908" gradientUnits="userSpaceOnUse">
<stop stop-color="#1882DB"/>
<stop offset="1" stop-color="#0197D5"/>
</linearGradient>
<linearGradient id="paint10_linear_539_867" x1="8.48438" y1="10.1615" x2="10.2592" y2="10.1615" gradientUnits="userSpaceOnUse">
<stop stop-color="#FF1C54"/>
<stop offset="1" stop-color="#FF4444"/>
</linearGradient>
<linearGradient id="paint11_linear_539_867" x1="8.94325" y1="10.1556" x2="10.2366" y2="10.1556" gradientUnits="userSpaceOnUse">
<stop stop-color="#1882DB"/>
<stop offset="1" stop-color="#0197D5"/>
</linearGradient>
<linearGradient id="paint12_linear_539_867" x1="36.6155" y1="22.6819" x2="40.7193" y2="22.6819" gradientUnits="userSpaceOnUse">
<stop stop-color="#FF1C54"/>
<stop offset="1" stop-color="#FF4444"/>
</linearGradient>
<linearGradient id="paint13_linear_539_867" x1="37.6765" y1="22.6781" x2="40.6669" y2="22.6781" gradientUnits="userSpaceOnUse">
<stop stop-color="#1882DB"/>
<stop offset="1" stop-color="#0197D5"/>
</linearGradient>
<linearGradient id="paint14_linear_539_867" x1="37.6471" y1="18.6379" x2="39.8078" y2="18.6379" gradientUnits="userSpaceOnUse">
<stop stop-color="#FF1C54"/>
<stop offset="1" stop-color="#FF4444"/>
</linearGradient>
<linearGradient id="paint15_linear_539_867" x1="38.2057" y1="18.6292" x2="39.7802" y2="18.6292" gradientUnits="userSpaceOnUse">
<stop stop-color="#1882DB"/>
<stop offset="1" stop-color="#0197D5"/>
</linearGradient>
<linearGradient id="paint16_linear_539_867" x1="41.7049" y1="17.658" x2="42.9224" y2="17.658" gradientUnits="userSpaceOnUse">
<stop stop-color="#FF1C54"/>
<stop offset="1" stop-color="#FF4444"/>
</linearGradient>
<linearGradient id="paint17_linear_539_867" x1="42.0197" y1="17.651" x2="42.9069" y2="17.651" gradientUnits="userSpaceOnUse">
<stop stop-color="#1882DB"/>
<stop offset="1" stop-color="#0197D5"/>
</linearGradient>
<linearGradient id="paint18_linear_539_867" x1="34.6933" y1="17.655" x2="35.9207" y2="17.655" gradientUnits="userSpaceOnUse">
<stop stop-color="#FF1C54"/>
<stop offset="1" stop-color="#FF4444"/>
</linearGradient>
<linearGradient id="paint19_linear_539_867" x1="35.0106" y1="17.648" x2="35.905" y2="17.648" gradientUnits="userSpaceOnUse">
<stop stop-color="#1882DB"/>
<stop offset="1" stop-color="#0197D5"/>
</linearGradient>
</defs>
</svg>
