<svg width="53" height="54" viewBox="0 0 53 54" fill="none" xmlns="http://www.w3.org/2000/svg">
<path d="M41.2923 0.333191C41.4756 0.629017 41.703 0.906787 41.8312 1.22483C41.9718 1.57483 42.06 1.95676 42.0986 2.33314C42.1552 2.88312 42.406 3.16645 42.945 3.32617C43.3227 3.43867 43.5736 3.43033 43.8685 3.16923C44.2559 2.82618 44.6846 2.53036 45.0926 2.21092C45.4951 1.89565 45.8811 1.91509 46.2574 2.25536C46.8722 2.81229 47.4883 3.36922 48.1031 3.92476C48.4822 4.26642 48.5332 4.65113 48.2602 5.08584C47.957 5.56917 47.6551 6.05526 47.3574 6.54136C47.0734 7.00524 47.5117 7.93716 48.0535 8.01355C48.6159 8.0941 49.1796 8.1691 49.7448 8.22882C50.2603 8.28298 50.5167 8.57187 50.5471 9.07602C50.5981 9.92461 50.6477 10.7746 50.6794 11.6232C50.6973 12.1093 50.4354 12.3995 49.9722 12.5093C49.3864 12.6481 48.7978 12.7759 48.2134 12.9245C47.7874 13.0329 47.4483 14.0176 47.713 14.3717C48.0549 14.8286 48.4146 15.2731 48.7579 15.7286C49.1314 16.2244 49.1286 16.5258 48.7317 16.9772C48.2065 17.5744 47.673 18.1661 47.1327 18.7508C46.704 19.2146 46.4062 19.2466 45.8563 18.9146C45.6192 18.773 45.3586 18.6535 45.1588 18.4702C44.4475 17.8161 43.7404 17.8536 42.9808 18.4855C43.1614 18.9535 43.3379 19.4744 43.5598 19.9743C43.7652 20.4354 43.7528 20.8521 43.5363 21.3146C43.0897 22.2673 42.6886 23.2423 42.2296 24.2978C42.4805 24.2978 42.6597 24.2978 42.8375 24.2978C45.5075 24.2978 48.1789 24.2978 50.8489 24.2978C51.7546 24.2978 51.9958 24.5326 51.9972 25.427C51.9985 29.6796 51.9944 33.9337 52.0041 38.1864C52.0054 38.635 51.869 38.978 51.5602 39.3002C50.6022 40.2988 49.6593 41.3113 48.7248 42.3321C48.4243 42.6599 48.1003 42.8168 47.6427 42.8126C45.7653 42.7946 43.8865 42.8112 42.009 42.8168C41.8919 42.8168 41.7761 42.8307 41.6507 42.9043C41.9649 42.9654 42.2792 43.0237 42.5921 43.089C43.0401 43.1835 43.28 43.4543 43.2813 43.9251C43.2827 44.6195 43.2855 45.314 43.2896 46.0084C43.2937 46.5056 43.0318 46.7806 42.5659 46.8736C42.2117 46.9445 41.8547 46.9986 41.499 47.0667C40.7409 47.2111 40.5355 47.7375 40.9821 48.3847C41.1985 48.6986 41.4191 49.0083 41.6286 49.3264C41.8726 49.6958 41.834 50.0527 41.5293 50.3666C41.0359 50.8763 40.5369 51.3791 40.031 51.8763C39.7167 52.186 39.3569 52.2054 38.9944 51.9721C38.6746 51.7666 38.3714 51.5388 38.0598 51.3221C37.3913 50.8569 36.8758 51.0902 36.742 51.9138C36.6842 52.2735 36.618 52.6318 36.5449 52.9874C36.4567 53.4193 36.181 53.6499 35.7468 53.6568C35.0411 53.6665 34.3339 53.6665 33.6282 53.6526C33.1719 53.6429 32.8962 53.3957 32.8121 52.9374C32.7474 52.579 32.6743 52.2221 32.6136 51.8638C32.4772 51.0652 31.9368 50.8444 31.2669 51.3152C30.9706 51.5235 30.6728 51.7318 30.3737 51.9346C30.0098 52.1804 29.6528 52.1624 29.3385 51.8582C28.8174 51.3527 28.3047 50.8388 27.8015 50.3138C27.4997 49.9986 27.4762 49.6375 27.7243 49.2708C27.9366 48.9555 28.1544 48.6417 28.3694 48.3278C28.8009 47.6986 28.5624 47.1459 27.8043 47.0097C27.4321 46.9431 27.0599 46.8736 26.6878 46.8014C26.2522 46.7167 26.0289 46.4292 26.0165 46.0001C25.9972 45.289 25.9985 44.5765 26.0082 43.8654C26.0151 43.4043 26.2618 43.1251 26.714 43.039C27.0696 42.971 27.4252 42.9085 27.7809 42.8446C28.5748 42.7029 28.7899 42.1932 28.3336 41.5321C28.1268 41.2335 27.9173 40.9363 27.7133 40.6363C27.4431 40.2377 27.4597 39.8544 27.8015 39.5072C28.273 39.0252 28.7513 38.5502 29.2268 38.0711C29.5894 37.7058 29.9767 37.6905 30.3889 37.9794C30.6852 38.1878 31.0147 38.3614 31.271 38.6127C31.6501 38.9836 32.0581 38.8558 32.32 38.5989C32.5254 38.3947 32.5378 37.9808 32.6012 37.653C32.6123 37.5947 32.4634 37.4725 32.3655 37.4294C29.8623 36.3198 27.3563 35.2156 24.8503 34.1129C24.8227 34.1004 24.7841 34.1115 24.6739 34.1115C24.6739 34.3059 24.6739 34.5031 24.6739 34.7017C24.6739 40.5696 24.6739 46.4375 24.6739 52.3041C24.6739 52.4777 24.6794 52.6513 24.6711 52.8249C24.6491 53.3249 24.3679 53.629 23.9212 53.6415C23.4581 53.654 23.1286 53.3374 23.1204 52.8165C23.1052 51.9346 23.1162 51.0527 23.1162 50.0972C22.722 50.0972 22.3678 50.0999 22.0135 50.0972C19.3876 50.0777 17.5322 48.2 17.5239 45.5556C17.5212 44.514 17.5143 43.4723 17.5295 42.4307C17.5336 42.1377 17.4605 41.9835 17.1724 41.846C16.1097 41.3405 15.5693 40.4683 15.5555 39.278C15.5473 38.5836 15.7637 37.7808 15.4852 37.2267C15.2123 36.6822 14.439 36.3961 13.8918 35.9878C8.31187 31.8296 5.85826 24.4589 7.82253 17.7661C7.94521 17.348 8.08857 16.9578 8.6041 16.93C9.17339 16.8994 9.55108 17.3939 9.38292 17.98C8.9239 19.5744 8.65786 21.1965 8.73643 22.859C9.00247 28.5075 11.5457 32.8046 16.3509 35.7184C16.9161 36.0614 17.16 36.4378 17.1201 37.092C17.0759 37.8183 17.0994 38.5502 17.1145 39.278C17.1297 39.9877 17.5749 40.5113 18.2462 40.5224C19.8452 40.5488 21.4456 40.5308 23.0804 40.5308C23.0804 29.4185 23.0804 18.3369 23.0804 7.21357C21.804 7.25662 20.5758 7.483 19.3807 7.8691C16.0532 8.94408 13.39 10.9329 11.3982 13.8287C10.9212 14.5231 10.5642 14.6745 10.1176 14.3759C9.64206 14.0578 9.63241 13.6176 10.1107 12.9398C13.2232 8.53159 17.4454 6.08026 22.8075 5.64555C22.8902 5.63861 22.9729 5.6275 23.1176 5.61083C23.1176 4.85391 23.1176 4.11365 23.1176 3.37339C23.1176 2.97479 23.1025 2.57341 23.1259 2.1762C23.1535 1.69149 23.4829 1.39983 23.935 1.4165C24.3706 1.43316 24.6491 1.71788 24.6725 2.18731C24.6863 2.46508 24.678 2.74285 24.678 3.02062C24.678 6.56219 24.678 10.1038 24.678 13.6453C24.678 13.8106 24.678 13.9745 24.678 14.1398C24.7111 14.1467 24.7428 14.1537 24.7759 14.1606C24.8448 14.0134 24.9192 13.8676 24.984 13.7176C25.8772 11.6704 26.7677 9.62323 27.6609 7.57606C28.0152 6.76497 28.3129 6.64414 29.1083 6.99135C30.2124 7.47467 31.3138 7.96216 32.4138 8.44687C32.888 7.68994 32.888 7.68578 32.3655 7.01218C32.0898 6.65664 31.8073 6.30526 31.5412 5.94277C31.2021 5.48167 31.2187 5.17612 31.6088 4.73724C32.1477 4.12892 32.6991 3.53033 33.2408 2.92479C33.5813 2.54424 33.9673 2.49286 34.396 2.75396C34.8812 3.05118 35.3609 3.35811 35.8461 3.65672C36.3327 3.95532 37.2534 3.52061 37.3389 2.94562C37.4202 2.39703 37.4726 1.84426 37.5567 1.29567C37.6491 0.694293 37.8724 0.50402 38.4789 0.45541C38.9737 0.416522 39.4672 0.374856 39.9621 0.333191C40.3963 0.333191 40.8443 0.333191 41.2923 0.333191ZM33.7674 36.3281C33.7674 36.0198 33.7674 35.8323 33.7674 35.6448C33.7674 33.5101 33.777 31.3754 33.7619 29.2422C33.7577 28.62 33.9135 28.1158 34.3725 27.6589C35.2768 26.7561 36.1411 25.8103 36.9943 24.8562C37.3444 24.4645 37.718 24.2617 38.2514 24.2923C38.8869 24.3284 39.5265 24.3145 40.1619 24.2909C40.3149 24.2853 40.5465 24.1895 40.6017 24.0687C41.0579 23.084 41.4811 22.0826 41.9277 21.0576C41.7416 20.9688 41.5914 20.8938 41.4384 20.8243C40.0544 20.2063 38.6691 19.5952 37.2879 18.9716C36.64 18.6799 36.505 18.3299 36.7779 17.6827C36.9585 17.2522 37.157 16.8286 37.343 16.4008C37.8324 15.2786 38.3204 14.1564 38.8221 13.0065C35.4959 11.5371 32.2139 10.0885 28.9263 8.63575C28.8602 8.74825 28.8188 8.8038 28.7926 8.86491C27.4514 11.9426 26.1102 15.0189 24.7786 18.1008C24.7001 18.2841 24.6697 18.5022 24.6697 18.7049C24.6642 23.0951 24.6684 27.4853 24.6573 31.8754C24.656 32.2018 24.7566 32.3629 25.0557 32.4921C26.7636 33.2282 28.4604 33.9865 30.1614 34.7365C31.3248 35.2489 32.4854 35.7614 33.7674 36.3281ZM41.2261 41.2446C41.4453 41.2446 41.5955 41.2446 41.7458 41.2446C43.364 41.2418 44.9837 41.2196 46.602 41.2474C47.0775 41.2557 47.1768 41.0946 47.1658 40.653C47.1368 39.578 47.1492 38.5016 47.1602 37.4267C47.1658 36.8808 47.4552 36.585 47.9322 36.5878C48.4022 36.5906 48.6917 36.892 48.7137 37.4322C48.7289 37.7961 48.7179 38.1614 48.7179 38.5252C48.7179 38.9794 48.7179 39.4336 48.7179 40.028C49.2568 39.4544 49.7062 39.0225 50.0936 38.5405C50.2686 38.3211 50.4092 38.0003 50.412 37.7239C50.434 34.3934 50.4258 31.0616 50.4244 27.7297C50.4244 27.5686 50.4037 27.4061 50.3885 27.1783C50.1473 27.4144 49.9833 27.6144 49.7834 27.7672C48.8805 28.4588 48.5911 29.3574 48.7013 30.4852C48.7896 31.3782 48.7303 32.2879 48.711 33.1893C48.7 33.699 48.405 33.9795 47.9459 33.9879C47.4676 33.9962 47.1878 33.7323 47.1644 33.2212C47.1465 32.8226 47.1575 32.4226 47.1575 32.024C47.1575 31.1616 47.1575 30.3005 47.1575 29.4394C43.189 29.4394 39.2921 29.4394 35.4036 29.4394C35.4036 31.7254 35.4036 33.9712 35.4036 36.21C36.2885 36.3406 36.3988 36.4503 36.5518 37.3072C36.5973 37.5628 36.6469 37.8183 36.6979 38.0725C36.8496 38.835 37.3789 39.0461 38.0185 38.603C38.3162 38.3961 38.6098 38.185 38.9103 37.9822C39.2894 37.7267 39.6574 37.7475 39.991 38.0669C40.3025 38.3655 40.603 38.6766 40.9077 38.9836C41.8905 39.9738 41.8905 39.9738 41.2261 41.2446ZM45.6109 3.7956C45.0802 4.20531 44.5853 4.5803 44.0987 4.96501C43.801 5.19973 43.4991 5.2539 43.1366 5.10807C42.5949 4.89002 42.0242 4.7428 41.499 4.49419C41.2495 4.37614 41.029 4.12476 40.8815 3.88171C40.7533 3.6706 40.7409 3.38589 40.683 3.13312C40.4073 1.92898 40.4087 1.92759 39.1929 2.00537C39.1433 2.00815 39.0964 2.03176 39.0137 2.05537C38.9406 2.63035 38.8593 3.21228 38.7973 3.7956C38.7449 4.27614 38.5244 4.57614 38.0502 4.74002C37.5981 4.89696 37.1611 5.1164 36.7489 5.36223C36.3244 5.615 35.9563 5.60666 35.5497 5.33584C35.0535 5.0039 34.5352 4.70391 34.0169 4.38447C33.6902 4.75113 33.3966 5.08168 33.0989 5.41639C33.471 5.89832 33.7922 6.3497 34.1506 6.76913C34.5104 7.18996 34.5765 7.60106 34.3008 8.09827C34.1299 8.4052 34.0376 8.75658 33.9011 9.11213C34.5421 9.39406 35.1155 9.64545 35.6889 9.89683C36.6814 7.36495 38.2762 6.19693 40.4804 6.34692C42.4529 6.48164 44.1222 7.89966 44.5715 9.82322C45.0761 11.9884 44.1787 13.6773 41.6989 15.1884C41.9194 15.7564 42.1427 16.33 42.3936 16.973C42.8278 16.7508 43.2372 16.573 43.6122 16.3411C43.9995 16.1022 44.3441 16.1119 44.7177 16.3564C45.2332 16.6925 45.7611 17.0078 46.2987 17.3411C46.624 16.9744 46.9176 16.6439 47.2181 16.305C46.8198 15.7883 46.46 15.3022 46.0796 14.8328C45.7942 14.48 45.7859 14.1328 45.9651 13.7231C46.165 13.2662 46.3387 12.7912 46.4669 12.3093C46.5896 11.8509 46.8473 11.5968 47.3022 11.5051C47.7902 11.4065 48.2795 11.2996 48.7579 11.1607C48.8792 11.126 49.0363 10.9621 49.0487 10.844C49.0873 10.4871 49.0625 10.1246 49.0625 9.73295C48.4105 9.64684 47.8357 9.55101 47.2567 9.5024C46.7467 9.45934 46.4517 9.2149 46.2739 8.73297C46.1085 8.28159 45.8948 7.84133 45.6495 7.42606C45.4069 7.01496 45.4138 6.65941 45.6743 6.26776C46.0065 5.76916 46.3125 5.25112 46.642 4.72058C46.2877 4.40392 45.9693 4.11781 45.6109 3.7956ZM41.6906 45.4376C41.6906 45.0973 41.6906 44.8251 41.6906 44.532C40.705 44.3126 39.8036 44.2918 39.2784 43.0154C38.7518 41.7363 39.3983 41.0891 39.9483 40.246C39.7098 40.0169 39.5044 39.8197 39.2853 39.6099C38.4499 40.2363 37.8007 40.7919 36.556 40.278C35.2906 39.7558 35.2602 38.8475 35.0659 37.8572C34.7475 37.8572 34.4635 37.8572 34.1589 37.8572C33.9907 38.8627 34.0913 40.0294 32.6715 40.1808C31.5481 41.0738 30.7817 40.178 29.9285 39.5697C29.7244 39.7891 29.5397 39.9877 29.3302 40.2127C29.526 40.503 29.6969 40.8057 29.916 41.0668C30.3461 41.5779 30.4605 42.0821 30.0498 42.6668C29.9147 42.8585 29.8306 43.1057 29.7837 43.339C29.6583 43.964 29.2806 44.2515 28.6713 44.2932C28.4659 44.307 28.2647 44.3668 28.0607 44.3945C27.7795 44.4334 27.5341 44.4543 27.5465 44.8695C27.5576 45.2431 27.621 45.4667 28.0455 45.4612C28.2316 45.4584 28.4163 45.5376 28.6052 45.5528C29.2654 45.607 29.6817 45.9126 29.8265 46.6014C29.8926 46.9153 30.1435 47.1917 30.2028 47.5056C30.2607 47.8167 30.2662 48.1903 30.1435 48.468C29.9574 48.8875 29.639 49.2472 29.3771 49.6305C29.5921 49.8569 29.7865 50.0638 29.996 50.2847C30.3971 50.0055 30.7679 49.7569 31.1304 49.4944C31.4585 49.2555 31.7811 49.2402 32.145 49.4236C32.5116 49.6097 32.8935 49.775 33.2836 49.9055C33.6861 50.0402 33.9204 50.2763 33.9852 50.7069C34.0541 51.1652 34.1602 51.6166 34.2471 52.061C34.5627 52.061 34.8302 52.061 35.1513 52.061C35.2809 51.0249 35.2492 49.8763 36.658 49.7138C37.7924 48.8028 38.534 49.8041 39.2839 50.268C39.5513 50.0652 39.7691 49.8986 40.002 49.7208C39.4286 48.8514 38.5037 48.1069 39.3707 46.982C39.5099 45.5348 40.6816 45.6167 41.6906 45.4376ZM19.0705 42.1335C19.0705 43.2612 19.1022 44.3529 19.0636 45.4403C18.9947 47.4083 20.4821 48.9666 23.0804 48.4389C23.0804 46.3473 23.0804 44.2529 23.0804 42.1335C21.753 42.1335 20.4504 42.1335 19.0705 42.1335ZM49.3644 25.9214C49.2114 25.8895 49.1783 25.8756 49.1452 25.8756C45.6012 25.8742 42.0573 25.8728 38.5133 25.8742C38.3975 25.8742 38.2404 25.87 38.1729 25.9381C37.6049 26.5172 37.055 27.113 36.4622 27.7408C36.6056 27.7769 36.6387 27.7936 36.6704 27.7936C40.2143 27.7964 43.7583 27.7978 47.3022 27.7922C47.4442 27.7922 47.6303 27.7547 47.7226 27.6616C48.2644 27.113 48.7827 26.5422 49.3644 25.9214ZM41.1186 13.6426C42.5838 13.1162 43.3668 11.7093 43.0498 10.2107C42.7727 8.89963 41.59 7.93716 40.2253 7.91355C38.8331 7.88855 37.5953 8.82602 37.2769 10.1288C37.1969 10.4551 37.2755 10.6315 37.5994 10.7565C38.1605 10.9732 38.687 11.2857 39.2563 11.4662C40.1523 11.7496 40.7381 12.2829 40.9421 13.2217C40.9738 13.3676 41.0593 13.5037 41.1186 13.6426ZM41.5514 19.1466C40.9476 17.5911 40.3977 16.1731 39.8091 14.6592C39.3266 15.7661 38.8938 16.755 38.4513 17.7688C39.4851 18.2286 40.4542 18.6591 41.5514 19.1466Z" fill="#F1F2F4"/>
<path d="M41.2923 0.333191C41.4756 0.629017 41.703 0.906787 41.8312 1.22483C41.9718 1.57483 42.06 1.95676 42.0986 2.33314C42.1552 2.88312 42.406 3.16645 42.945 3.32617C43.3227 3.43867 43.5736 3.43033 43.8685 3.16923C44.2559 2.82618 44.6846 2.53036 45.0926 2.21092C45.4951 1.89565 45.8811 1.91509 46.2574 2.25536C46.8722 2.81229 47.4883 3.36922 48.1031 3.92476C48.4822 4.26642 48.5332 4.65113 48.2602 5.08584C47.957 5.56917 47.6551 6.05526 47.3574 6.54136C47.0734 7.00524 47.5117 7.93716 48.0535 8.01355C48.6159 8.0941 49.1796 8.1691 49.7448 8.22882C50.2603 8.28298 50.5167 8.57187 50.5471 9.07602C50.5981 9.92461 50.6477 10.7746 50.6794 11.6232C50.6973 12.1093 50.4354 12.3995 49.9722 12.5093C49.3864 12.6481 48.7978 12.7759 48.2134 12.9245C47.7874 13.0329 47.4483 14.0176 47.713 14.3717C48.0549 14.8286 48.4146 15.2731 48.7579 15.7286C49.1314 16.2244 49.1286 16.5258 48.7317 16.9772C48.2065 17.5744 47.673 18.1661 47.1327 18.7508C46.704 19.2146 46.4062 19.2466 45.8563 18.9146C45.6192 18.773 45.3586 18.6535 45.1588 18.4702C44.4475 17.8161 43.7404 17.8536 42.9808 18.4855C43.1614 18.9535 43.3379 19.4744 43.5598 19.9743C43.7652 20.4354 43.7528 20.8521 43.5363 21.3146C43.0897 22.2673 42.6886 23.2423 42.2296 24.2978C42.4805 24.2978 42.6597 24.2978 42.8375 24.2978C45.5075 24.2978 48.1789 24.2978 50.8489 24.2978C51.7546 24.2978 51.9958 24.5326 51.9972 25.427C51.9985 29.6796 51.9944 33.9337 52.0041 38.1864C52.0054 38.635 51.869 38.978 51.5602 39.3002C50.6022 40.2988 49.6593 41.3113 48.7248 42.3321C48.4243 42.6599 48.1003 42.8168 47.6427 42.8126C45.7653 42.7946 43.8865 42.8112 42.009 42.8168C41.8919 42.8168 41.7761 42.8307 41.6507 42.9043C41.9649 42.9654 42.2792 43.0237 42.5921 43.089C43.0401 43.1835 43.28 43.4543 43.2813 43.9251C43.2827 44.6195 43.2855 45.314 43.2896 46.0084C43.2937 46.5056 43.0318 46.7806 42.5659 46.8736C42.2117 46.9445 41.8547 46.9986 41.499 47.0667C40.7409 47.2111 40.5355 47.7375 40.9821 48.3847C41.1985 48.6986 41.4191 49.0083 41.6286 49.3264C41.8726 49.6958 41.834 50.0527 41.5293 50.3666C41.0359 50.8763 40.5369 51.3791 40.031 51.8763C39.7167 52.186 39.3569 52.2054 38.9944 51.9721C38.6746 51.7666 38.3714 51.5388 38.0598 51.3221C37.3913 50.8569 36.8758 51.0902 36.742 51.9138C36.6842 52.2735 36.618 52.6318 36.5449 52.9874C36.4567 53.4193 36.181 53.6499 35.7468 53.6568C35.0411 53.6665 34.3339 53.6665 33.6282 53.6526C33.1719 53.6429 32.8962 53.3957 32.8121 52.9374C32.7474 52.579 32.6743 52.2221 32.6136 51.8638C32.4772 51.0652 31.9368 50.8444 31.2669 51.3152C30.9706 51.5235 30.6728 51.7318 30.3737 51.9346C30.0098 52.1804 29.6528 52.1624 29.3385 51.8582C28.8174 51.3527 28.3047 50.8388 27.8015 50.3138C27.4997 49.9986 27.4762 49.6375 27.7243 49.2708C27.9366 48.9555 28.1544 48.6417 28.3694 48.3278C28.8009 47.6986 28.5624 47.1459 27.8043 47.0097C27.4321 46.9431 27.0599 46.8736 26.6878 46.8014C26.2522 46.7167 26.0289 46.4292 26.0165 46.0001C25.9972 45.289 25.9985 44.5765 26.0082 43.8654C26.0151 43.4043 26.2618 43.1251 26.714 43.039C27.0696 42.971 27.4252 42.9085 27.7809 42.8446C28.5748 42.7029 28.7899 42.1932 28.3336 41.5321C28.1268 41.2335 27.9173 40.9363 27.7133 40.6363C27.4431 40.2377 27.4597 39.8544 27.8015 39.5072C28.273 39.0252 28.7513 38.5502 29.2268 38.0711C29.5894 37.7058 29.9767 37.6905 30.3889 37.9794C30.6852 38.1878 31.0147 38.3614 31.271 38.6127C31.6501 38.9836 32.0581 38.8558 32.32 38.5989C32.5254 38.3947 32.5378 37.9808 32.6012 37.653C32.6123 37.5947 32.4634 37.4725 32.3655 37.4294C29.8623 36.3198 27.3563 35.2156 24.8503 34.1129C24.8227 34.1004 24.7841 34.1115 24.6739 34.1115C24.6739 34.3059 24.6739 34.5031 24.6739 34.7017C24.6739 40.5696 24.6739 46.4375 24.6739 52.3041C24.6739 52.4777 24.6794 52.6513 24.6711 52.8249C24.6491 53.3249 24.3679 53.629 23.9212 53.6415C23.4581 53.654 23.1286 53.3374 23.1204 52.8165C23.1052 51.9346 23.1162 51.0527 23.1162 50.0972C22.722 50.0972 22.3678 50.0999 22.0135 50.0972C19.3876 50.0777 17.5322 48.2 17.5239 45.5556C17.5212 44.514 17.5143 43.4723 17.5295 42.4307C17.5336 42.1377 17.4605 41.9835 17.1724 41.846C16.1097 41.3405 15.5693 40.4683 15.5555 39.278C15.5473 38.5836 15.7637 37.7808 15.4852 37.2267C15.2123 36.6822 14.439 36.3961 13.8918 35.9878C8.31187 31.8296 5.85826 24.4589 7.82253 17.7661C7.94521 17.348 8.08857 16.9578 8.6041 16.93C9.17339 16.8994 9.55108 17.3939 9.38292 17.98C8.9239 19.5744 8.65786 21.1965 8.73643 22.859C9.00247 28.5075 11.5457 32.8046 16.3509 35.7184C16.9161 36.0614 17.16 36.4378 17.1201 37.092C17.0759 37.8183 17.0994 38.5502 17.1145 39.278C17.1297 39.9877 17.5749 40.5113 18.2462 40.5224C19.8452 40.5488 21.4456 40.5308 23.0804 40.5308C23.0804 29.4185 23.0804 18.3369 23.0804 7.21357C21.804 7.25662 20.5758 7.483 19.3807 7.8691C16.0532 8.94408 13.39 10.9329 11.3982 13.8287C10.9212 14.5231 10.5642 14.6745 10.1176 14.3759C9.64206 14.0578 9.63241 13.6176 10.1107 12.9398C13.2232 8.53159 17.4454 6.08026 22.8075 5.64555C22.8902 5.63861 22.9729 5.6275 23.1176 5.61083C23.1176 4.85391 23.1176 4.11365 23.1176 3.37339C23.1176 2.97479 23.1025 2.57341 23.1259 2.1762C23.1535 1.69149 23.4829 1.39983 23.935 1.4165C24.3706 1.43316 24.6491 1.71788 24.6725 2.18731C24.6863 2.46508 24.678 2.74285 24.678 3.02062C24.678 6.56219 24.678 10.1038 24.678 13.6453C24.678 13.8106 24.678 13.9745 24.678 14.1398C24.7111 14.1467 24.7428 14.1537 24.7759 14.1606C24.8448 14.0134 24.9192 13.8676 24.984 13.7176C25.8772 11.6704 26.7677 9.62323 27.6609 7.57606C28.0152 6.76497 28.3129 6.64414 29.1083 6.99135C30.2124 7.47467 31.3138 7.96216 32.4138 8.44687C32.888 7.68994 32.888 7.68578 32.3655 7.01218C32.0898 6.65664 31.8073 6.30526 31.5412 5.94277C31.2021 5.48167 31.2187 5.17612 31.6088 4.73724C32.1477 4.12892 32.6991 3.53033 33.2408 2.92479C33.5813 2.54424 33.9673 2.49286 34.396 2.75396C34.8812 3.05118 35.3609 3.35811 35.8461 3.65672C36.3327 3.95532 37.2534 3.52061 37.3389 2.94562C37.4202 2.39703 37.4726 1.84426 37.5567 1.29567C37.6491 0.694293 37.8724 0.50402 38.4789 0.45541C38.9737 0.416522 39.4672 0.374856 39.9621 0.333191C40.3963 0.333191 40.8443 0.333191 41.2923 0.333191ZM33.7674 36.3281C33.7674 36.0198 33.7674 35.8323 33.7674 35.6448C33.7674 33.5101 33.777 31.3754 33.7619 29.2422C33.7577 28.62 33.9135 28.1158 34.3725 27.6589C35.2768 26.7561 36.1411 25.8103 36.9943 24.8562C37.3444 24.4645 37.718 24.2617 38.2514 24.2923C38.8869 24.3284 39.5265 24.3145 40.1619 24.2909C40.3149 24.2853 40.5465 24.1895 40.6017 24.0687C41.0579 23.084 41.4811 22.0826 41.9277 21.0576C41.7416 20.9688 41.5914 20.8938 41.4384 20.8243C40.0544 20.2063 38.6691 19.5952 37.2879 18.9716C36.64 18.6799 36.505 18.3299 36.7779 17.6827C36.9585 17.2522 37.157 16.8286 37.343 16.4008C37.8324 15.2786 38.3204 14.1564 38.8221 13.0065C35.4959 11.5371 32.2139 10.0885 28.9263 8.63575C28.8602 8.74825 28.8188 8.8038 28.7926 8.86491C27.4514 11.9426 26.1102 15.0189 24.7786 18.1008C24.7001 18.2841 24.6697 18.5022 24.6697 18.7049C24.6642 23.0951 24.6684 27.4853 24.6573 31.8754C24.656 32.2018 24.7566 32.3629 25.0557 32.4921C26.7636 33.2282 28.4604 33.9865 30.1614 34.7365C31.3248 35.2489 32.4854 35.7614 33.7674 36.3281ZM41.2261 41.2446C41.4453 41.2446 41.5955 41.2446 41.7458 41.2446C43.364 41.2418 44.9837 41.2196 46.602 41.2474C47.0775 41.2557 47.1768 41.0946 47.1658 40.653C47.1368 39.578 47.1492 38.5016 47.1602 37.4267C47.1658 36.8808 47.4552 36.585 47.9322 36.5878C48.4022 36.5906 48.6917 36.892 48.7137 37.4322C48.7289 37.7961 48.7179 38.1614 48.7179 38.5252C48.7179 38.9794 48.7179 39.4336 48.7179 40.028C49.2568 39.4544 49.7062 39.0225 50.0936 38.5405C50.2686 38.3211 50.4092 38.0003 50.412 37.7239C50.434 34.3934 50.4258 31.0616 50.4244 27.7297C50.4244 27.5686 50.4037 27.4061 50.3885 27.1783C50.1473 27.4144 49.9833 27.6144 49.7834 27.7672C48.8805 28.4588 48.5911 29.3574 48.7013 30.4852C48.7896 31.3782 48.7303 32.2879 48.711 33.1893C48.7 33.699 48.405 33.9795 47.9459 33.9879C47.4676 33.9962 47.1878 33.7323 47.1644 33.2212C47.1465 32.8226 47.1575 32.4226 47.1575 32.024C47.1575 31.1616 47.1575 30.3005 47.1575 29.4394C43.189 29.4394 39.2921 29.4394 35.4036 29.4394C35.4036 31.7254 35.4036 33.9712 35.4036 36.21C36.2885 36.3406 36.3988 36.4503 36.5518 37.3072C36.5973 37.5628 36.6469 37.8183 36.6979 38.0725C36.8496 38.835 37.3789 39.0461 38.0185 38.603C38.3162 38.3961 38.6098 38.185 38.9103 37.9822C39.2894 37.7267 39.6574 37.7475 39.991 38.0669C40.3025 38.3655 40.603 38.6766 40.9077 38.9836C41.8905 39.9738 41.8905 39.9738 41.2261 41.2446ZM45.6109 3.7956C45.0802 4.20531 44.5853 4.5803 44.0987 4.96501C43.801 5.19973 43.4991 5.2539 43.1366 5.10807C42.5949 4.89002 42.0242 4.7428 41.499 4.49419C41.2495 4.37614 41.029 4.12476 40.8815 3.88171C40.7533 3.6706 40.7409 3.38589 40.683 3.13312C40.4073 1.92898 40.4087 1.92759 39.1929 2.00537C39.1433 2.00815 39.0964 2.03176 39.0137 2.05537C38.9406 2.63035 38.8593 3.21228 38.7973 3.7956C38.7449 4.27614 38.5244 4.57614 38.0502 4.74002C37.5981 4.89696 37.1611 5.1164 36.7489 5.36223C36.3244 5.615 35.9563 5.60666 35.5497 5.33584C35.0535 5.0039 34.5352 4.70391 34.0169 4.38447C33.6902 4.75113 33.3966 5.08168 33.0989 5.41639C33.471 5.89832 33.7922 6.3497 34.1506 6.76913C34.5104 7.18996 34.5765 7.60106 34.3008 8.09827C34.1299 8.4052 34.0376 8.75658 33.9011 9.11213C34.5421 9.39406 35.1155 9.64545 35.6889 9.89683C36.6814 7.36495 38.2762 6.19693 40.4804 6.34692C42.4529 6.48164 44.1222 7.89966 44.5715 9.82322C45.0761 11.9884 44.1787 13.6773 41.6989 15.1884C41.9194 15.7564 42.1427 16.33 42.3936 16.973C42.8278 16.7508 43.2372 16.573 43.6122 16.3411C43.9995 16.1022 44.3441 16.1119 44.7177 16.3564C45.2332 16.6925 45.7611 17.0078 46.2987 17.3411C46.624 16.9744 46.9176 16.6439 47.2181 16.305C46.8198 15.7883 46.46 15.3022 46.0796 14.8328C45.7942 14.48 45.7859 14.1328 45.9651 13.7231C46.165 13.2662 46.3387 12.7912 46.4669 12.3093C46.5896 11.8509 46.8473 11.5968 47.3022 11.5051C47.7902 11.4065 48.2795 11.2996 48.7579 11.1607C48.8792 11.126 49.0363 10.9621 49.0487 10.844C49.0873 10.4871 49.0625 10.1246 49.0625 9.73295C48.4105 9.64684 47.8357 9.55101 47.2567 9.5024C46.7467 9.45934 46.4517 9.2149 46.2739 8.73297C46.1085 8.28159 45.8948 7.84133 45.6495 7.42606C45.4069 7.01496 45.4138 6.65941 45.6743 6.26776C46.0065 5.76916 46.3125 5.25112 46.642 4.72058C46.2877 4.40392 45.9693 4.11781 45.6109 3.7956ZM41.6906 45.4376C41.6906 45.0973 41.6906 44.8251 41.6906 44.532C40.705 44.3126 39.8036 44.2918 39.2784 43.0154C38.7518 41.7363 39.3983 41.0891 39.9483 40.246C39.7098 40.0169 39.5044 39.8197 39.2853 39.6099C38.4499 40.2363 37.8007 40.7919 36.556 40.278C35.2906 39.7558 35.2602 38.8475 35.0659 37.8572C34.7475 37.8572 34.4635 37.8572 34.1589 37.8572C33.9907 38.8627 34.0913 40.0294 32.6715 40.1808C31.5481 41.0738 30.7817 40.178 29.9285 39.5697C29.7244 39.7891 29.5397 39.9877 29.3302 40.2127C29.526 40.503 29.6969 40.8057 29.916 41.0668C30.3461 41.5779 30.4605 42.0821 30.0498 42.6668C29.9147 42.8585 29.8306 43.1057 29.7837 43.339C29.6583 43.964 29.2806 44.2515 28.6713 44.2932C28.4659 44.307 28.2647 44.3668 28.0607 44.3945C27.7795 44.4334 27.5341 44.4543 27.5465 44.8695C27.5576 45.2431 27.621 45.4667 28.0455 45.4612C28.2316 45.4584 28.4163 45.5376 28.6052 45.5528C29.2654 45.607 29.6817 45.9126 29.8265 46.6014C29.8926 46.9153 30.1435 47.1917 30.2028 47.5056C30.2607 47.8167 30.2662 48.1903 30.1435 48.468C29.9574 48.8875 29.639 49.2472 29.3771 49.6305C29.5921 49.8569 29.7865 50.0638 29.996 50.2847C30.3971 50.0055 30.7679 49.7569 31.1304 49.4944C31.4585 49.2555 31.7811 49.2402 32.145 49.4236C32.5116 49.6097 32.8935 49.775 33.2836 49.9055C33.6861 50.0402 33.9204 50.2763 33.9852 50.7069C34.0541 51.1652 34.1602 51.6166 34.2471 52.061C34.5627 52.061 34.8302 52.061 35.1513 52.061C35.2809 51.0249 35.2492 49.8763 36.658 49.7138C37.7924 48.8028 38.534 49.8041 39.2839 50.268C39.5513 50.0652 39.7691 49.8986 40.002 49.7208C39.4286 48.8514 38.5037 48.1069 39.3707 46.982C39.5099 45.5348 40.6816 45.6167 41.6906 45.4376ZM19.0705 42.1335C19.0705 43.2612 19.1022 44.3529 19.0636 45.4403C18.9947 47.4083 20.4821 48.9666 23.0804 48.4389C23.0804 46.3473 23.0804 44.2529 23.0804 42.1335C21.753 42.1335 20.4504 42.1335 19.0705 42.1335ZM49.3644 25.9214C49.2114 25.8895 49.1783 25.8756 49.1452 25.8756C45.6012 25.8742 42.0573 25.8728 38.5133 25.8742C38.3975 25.8742 38.2404 25.87 38.1729 25.9381C37.6049 26.5172 37.055 27.113 36.4622 27.7408C36.6056 27.7769 36.6387 27.7936 36.6704 27.7936C40.2143 27.7964 43.7583 27.7978 47.3022 27.7922C47.4442 27.7922 47.6303 27.7547 47.7226 27.6616C48.2644 27.113 48.7827 26.5422 49.3644 25.9214ZM41.1186 13.6426C42.5838 13.1162 43.3668 11.7093 43.0498 10.2107C42.7727 8.89963 41.59 7.93716 40.2253 7.91355C38.8331 7.88855 37.5953 8.82602 37.2769 10.1288C37.1969 10.4551 37.2755 10.6315 37.5994 10.7565C38.1605 10.9732 38.687 11.2857 39.2563 11.4662C40.1523 11.7496 40.7381 12.2829 40.9421 13.2217C40.9738 13.3676 41.0593 13.5037 41.1186 13.6426ZM41.5514 19.1466C40.9476 17.5911 40.3977 16.1731 39.8091 14.6592C39.3266 15.7661 38.8938 16.755 38.4513 17.7688C39.4851 18.2286 40.4542 18.6591 41.5514 19.1466Z" fill="url(#paint0_linear_538_853)"/>
<path d="M41.2923 0.333191C41.4756 0.629017 41.703 0.906787 41.8312 1.22483C41.9718 1.57483 42.06 1.95676 42.0986 2.33314C42.1552 2.88312 42.406 3.16645 42.945 3.32617C43.3227 3.43867 43.5736 3.43033 43.8685 3.16923C44.2559 2.82618 44.6846 2.53036 45.0926 2.21092C45.4951 1.89565 45.8811 1.91509 46.2574 2.25536C46.8722 2.81229 47.4883 3.36922 48.1031 3.92476C48.4822 4.26642 48.5332 4.65113 48.2602 5.08584C47.957 5.56917 47.6551 6.05526 47.3574 6.54136C47.0734 7.00524 47.5117 7.93716 48.0535 8.01355C48.6159 8.0941 49.1796 8.1691 49.7448 8.22882C50.2603 8.28298 50.5167 8.57187 50.5471 9.07602C50.5981 9.92461 50.6477 10.7746 50.6794 11.6232C50.6973 12.1093 50.4354 12.3995 49.9722 12.5093C49.3864 12.6481 48.7978 12.7759 48.2134 12.9245C47.7874 13.0329 47.4483 14.0176 47.713 14.3717C48.0549 14.8286 48.4146 15.2731 48.7579 15.7286C49.1314 16.2244 49.1286 16.5258 48.7317 16.9772C48.2065 17.5744 47.673 18.1661 47.1327 18.7508C46.704 19.2146 46.4062 19.2466 45.8563 18.9146C45.6192 18.773 45.3586 18.6535 45.1588 18.4702C44.4475 17.8161 43.7404 17.8536 42.9808 18.4855C43.1614 18.9535 43.3379 19.4744 43.5598 19.9743C43.7652 20.4354 43.7528 20.8521 43.5363 21.3146C43.0897 22.2673 42.6886 23.2423 42.2296 24.2978C42.4805 24.2978 42.6597 24.2978 42.8375 24.2978C45.5075 24.2978 48.1789 24.2978 50.8489 24.2978C51.7546 24.2978 51.9958 24.5326 51.9972 25.427C51.9985 29.6796 51.9944 33.9337 52.0041 38.1864C52.0054 38.635 51.869 38.978 51.5602 39.3002C50.6022 40.2988 49.6593 41.3113 48.7248 42.3321C48.4243 42.6599 48.1003 42.8168 47.6427 42.8126C45.7653 42.7946 43.8865 42.8112 42.009 42.8168C41.8919 42.8168 41.7761 42.8307 41.6507 42.9043C41.9649 42.9654 42.2792 43.0237 42.5921 43.089C43.0401 43.1835 43.28 43.4543 43.2813 43.9251C43.2827 44.6195 43.2855 45.314 43.2896 46.0084C43.2937 46.5056 43.0318 46.7806 42.5659 46.8736C42.2117 46.9445 41.8547 46.9986 41.499 47.0667C40.7409 47.2111 40.5355 47.7375 40.9821 48.3847C41.1985 48.6986 41.4191 49.0083 41.6286 49.3264C41.8726 49.6958 41.834 50.0527 41.5293 50.3666C41.0359 50.8763 40.5369 51.3791 40.031 51.8763C39.7167 52.186 39.3569 52.2054 38.9944 51.9721C38.6746 51.7666 38.3714 51.5388 38.0598 51.3221C37.3913 50.8569 36.8758 51.0902 36.742 51.9138C36.6842 52.2735 36.618 52.6318 36.5449 52.9874C36.4567 53.4193 36.181 53.6499 35.7468 53.6568C35.0411 53.6665 34.3339 53.6665 33.6282 53.6526C33.1719 53.6429 32.8962 53.3957 32.8121 52.9374C32.7474 52.579 32.6743 52.2221 32.6136 51.8638C32.4772 51.0652 31.9368 50.8444 31.2669 51.3152C30.9706 51.5235 30.6728 51.7318 30.3737 51.9346C30.0098 52.1804 29.6528 52.1624 29.3385 51.8582C28.8174 51.3527 28.3047 50.8388 27.8015 50.3138C27.4997 49.9986 27.4762 49.6375 27.7243 49.2708C27.9366 48.9555 28.1544 48.6417 28.3694 48.3278C28.8009 47.6986 28.5624 47.1459 27.8043 47.0097C27.4321 46.9431 27.0599 46.8736 26.6878 46.8014C26.2522 46.7167 26.0289 46.4292 26.0165 46.0001C25.9972 45.289 25.9985 44.5765 26.0082 43.8654C26.0151 43.4043 26.2618 43.1251 26.714 43.039C27.0696 42.971 27.4252 42.9085 27.7809 42.8446C28.5748 42.7029 28.7899 42.1932 28.3336 41.5321C28.1268 41.2335 27.9173 40.9363 27.7133 40.6363C27.4431 40.2377 27.4597 39.8544 27.8015 39.5072C28.273 39.0252 28.7513 38.5502 29.2268 38.0711C29.5894 37.7058 29.9767 37.6905 30.3889 37.9794C30.6852 38.1878 31.0147 38.3614 31.271 38.6127C31.6501 38.9836 32.0581 38.8558 32.32 38.5989C32.5254 38.3947 32.5378 37.9808 32.6012 37.653C32.6123 37.5947 32.4634 37.4725 32.3655 37.4294C29.8623 36.3198 27.3563 35.2156 24.8503 34.1129C24.8227 34.1004 24.7841 34.1115 24.6739 34.1115C24.6739 34.3059 24.6739 34.5031 24.6739 34.7017C24.6739 40.5696 24.6739 46.4375 24.6739 52.3041C24.6739 52.4777 24.6794 52.6513 24.6711 52.8249C24.6491 53.3249 24.3679 53.629 23.9212 53.6415C23.4581 53.654 23.1286 53.3374 23.1204 52.8165C23.1052 51.9346 23.1162 51.0527 23.1162 50.0972C22.722 50.0972 22.3678 50.0999 22.0135 50.0972C19.3876 50.0777 17.5322 48.2 17.5239 45.5556C17.5212 44.514 17.5143 43.4723 17.5295 42.4307C17.5336 42.1377 17.4605 41.9835 17.1724 41.846C16.1097 41.3405 15.5693 40.4683 15.5555 39.278C15.5473 38.5836 15.7637 37.7808 15.4852 37.2267C15.2123 36.6822 14.439 36.3961 13.8918 35.9878C8.31187 31.8296 5.85826 24.4589 7.82253 17.7661C7.94521 17.348 8.08857 16.9578 8.6041 16.93C9.17339 16.8994 9.55108 17.3939 9.38292 17.98C8.9239 19.5744 8.65786 21.1965 8.73643 22.859C9.00247 28.5075 11.5457 32.8046 16.3509 35.7184C16.9161 36.0614 17.16 36.4378 17.1201 37.092C17.0759 37.8183 17.0994 38.5502 17.1145 39.278C17.1297 39.9877 17.5749 40.5113 18.2462 40.5224C19.8452 40.5488 21.4456 40.5308 23.0804 40.5308C23.0804 29.4185 23.0804 18.3369 23.0804 7.21357C21.804 7.25662 20.5758 7.483 19.3807 7.8691C16.0532 8.94408 13.39 10.9329 11.3982 13.8287C10.9212 14.5231 10.5642 14.6745 10.1176 14.3759C9.64206 14.0578 9.63241 13.6176 10.1107 12.9398C13.2232 8.53159 17.4454 6.08026 22.8075 5.64555C22.8902 5.63861 22.9729 5.6275 23.1176 5.61083C23.1176 4.85391 23.1176 4.11365 23.1176 3.37339C23.1176 2.97479 23.1025 2.57341 23.1259 2.1762C23.1535 1.69149 23.4829 1.39983 23.935 1.4165C24.3706 1.43316 24.6491 1.71788 24.6725 2.18731C24.6863 2.46508 24.678 2.74285 24.678 3.02062C24.678 6.56219 24.678 10.1038 24.678 13.6453C24.678 13.8106 24.678 13.9745 24.678 14.1398C24.7111 14.1467 24.7428 14.1537 24.7759 14.1606C24.8448 14.0134 24.9192 13.8676 24.984 13.7176C25.8772 11.6704 26.7677 9.62323 27.6609 7.57606C28.0152 6.76497 28.3129 6.64414 29.1083 6.99135C30.2124 7.47467 31.3138 7.96216 32.4138 8.44687C32.888 7.68994 32.888 7.68578 32.3655 7.01218C32.0898 6.65664 31.8073 6.30526 31.5412 5.94277C31.2021 5.48167 31.2187 5.17612 31.6088 4.73724C32.1477 4.12892 32.6991 3.53033 33.2408 2.92479C33.5813 2.54424 33.9673 2.49286 34.396 2.75396C34.8812 3.05118 35.3609 3.35811 35.8461 3.65672C36.3327 3.95532 37.2534 3.52061 37.3389 2.94562C37.4202 2.39703 37.4726 1.84426 37.5567 1.29567C37.6491 0.694293 37.8724 0.50402 38.4789 0.45541C38.9737 0.416522 39.4672 0.374856 39.9621 0.333191C40.3963 0.333191 40.8443 0.333191 41.2923 0.333191ZM33.7674 36.3281C33.7674 36.0198 33.7674 35.8323 33.7674 35.6448C33.7674 33.5101 33.777 31.3754 33.7619 29.2422C33.7577 28.62 33.9135 28.1158 34.3725 27.6589C35.2768 26.7561 36.1411 25.8103 36.9943 24.8562C37.3444 24.4645 37.718 24.2617 38.2514 24.2923C38.8869 24.3284 39.5265 24.3145 40.1619 24.2909C40.3149 24.2853 40.5465 24.1895 40.6017 24.0687C41.0579 23.084 41.4811 22.0826 41.9277 21.0576C41.7416 20.9688 41.5914 20.8938 41.4384 20.8243C40.0544 20.2063 38.6691 19.5952 37.2879 18.9716C36.64 18.6799 36.505 18.3299 36.7779 17.6827C36.9585 17.2522 37.157 16.8286 37.343 16.4008C37.8324 15.2786 38.3204 14.1564 38.8221 13.0065C35.4959 11.5371 32.2139 10.0885 28.9263 8.63575C28.8602 8.74825 28.8188 8.8038 28.7926 8.86491C27.4514 11.9426 26.1102 15.0189 24.7786 18.1008C24.7001 18.2841 24.6697 18.5022 24.6697 18.7049C24.6642 23.0951 24.6684 27.4853 24.6573 31.8754C24.656 32.2018 24.7566 32.3629 25.0557 32.4921C26.7636 33.2282 28.4604 33.9865 30.1614 34.7365C31.3248 35.2489 32.4854 35.7614 33.7674 36.3281ZM41.2261 41.2446C41.4453 41.2446 41.5955 41.2446 41.7458 41.2446C43.364 41.2418 44.9837 41.2196 46.602 41.2474C47.0775 41.2557 47.1768 41.0946 47.1658 40.653C47.1368 39.578 47.1492 38.5016 47.1602 37.4267C47.1658 36.8808 47.4552 36.585 47.9322 36.5878C48.4022 36.5906 48.6917 36.892 48.7137 37.4322C48.7289 37.7961 48.7179 38.1614 48.7179 38.5252C48.7179 38.9794 48.7179 39.4336 48.7179 40.028C49.2568 39.4544 49.7062 39.0225 50.0936 38.5405C50.2686 38.3211 50.4092 38.0003 50.412 37.7239C50.434 34.3934 50.4258 31.0616 50.4244 27.7297C50.4244 27.5686 50.4037 27.4061 50.3885 27.1783C50.1473 27.4144 49.9833 27.6144 49.7834 27.7672C48.8805 28.4588 48.5911 29.3574 48.7013 30.4852C48.7896 31.3782 48.7303 32.2879 48.711 33.1893C48.7 33.699 48.405 33.9795 47.9459 33.9879C47.4676 33.9962 47.1878 33.7323 47.1644 33.2212C47.1465 32.8226 47.1575 32.4226 47.1575 32.024C47.1575 31.1616 47.1575 30.3005 47.1575 29.4394C43.189 29.4394 39.2921 29.4394 35.4036 29.4394C35.4036 31.7254 35.4036 33.9712 35.4036 36.21C36.2885 36.3406 36.3988 36.4503 36.5518 37.3072C36.5973 37.5628 36.6469 37.8183 36.6979 38.0725C36.8496 38.835 37.3789 39.0461 38.0185 38.603C38.3162 38.3961 38.6098 38.185 38.9103 37.9822C39.2894 37.7267 39.6574 37.7475 39.991 38.0669C40.3025 38.3655 40.603 38.6766 40.9077 38.9836C41.8905 39.9738 41.8905 39.9738 41.2261 41.2446ZM45.6109 3.7956C45.0802 4.20531 44.5853 4.5803 44.0987 4.96501C43.801 5.19973 43.4991 5.2539 43.1366 5.10807C42.5949 4.89002 42.0242 4.7428 41.499 4.49419C41.2495 4.37614 41.029 4.12476 40.8815 3.88171C40.7533 3.6706 40.7409 3.38589 40.683 3.13312C40.4073 1.92898 40.4087 1.92759 39.1929 2.00537C39.1433 2.00815 39.0964 2.03176 39.0137 2.05537C38.9406 2.63035 38.8593 3.21228 38.7973 3.7956C38.7449 4.27614 38.5244 4.57614 38.0502 4.74002C37.5981 4.89696 37.1611 5.1164 36.7489 5.36223C36.3244 5.615 35.9563 5.60666 35.5497 5.33584C35.0535 5.0039 34.5352 4.70391 34.0169 4.38447C33.6902 4.75113 33.3966 5.08168 33.0989 5.41639C33.471 5.89832 33.7922 6.3497 34.1506 6.76913C34.5104 7.18996 34.5765 7.60106 34.3008 8.09827C34.1299 8.4052 34.0376 8.75658 33.9011 9.11213C34.5421 9.39406 35.1155 9.64545 35.6889 9.89683C36.6814 7.36495 38.2762 6.19693 40.4804 6.34692C42.4529 6.48164 44.1222 7.89966 44.5715 9.82322C45.0761 11.9884 44.1787 13.6773 41.6989 15.1884C41.9194 15.7564 42.1427 16.33 42.3936 16.973C42.8278 16.7508 43.2372 16.573 43.6122 16.3411C43.9995 16.1022 44.3441 16.1119 44.7177 16.3564C45.2332 16.6925 45.7611 17.0078 46.2987 17.3411C46.624 16.9744 46.9176 16.6439 47.2181 16.305C46.8198 15.7883 46.46 15.3022 46.0796 14.8328C45.7942 14.48 45.7859 14.1328 45.9651 13.7231C46.165 13.2662 46.3387 12.7912 46.4669 12.3093C46.5896 11.8509 46.8473 11.5968 47.3022 11.5051C47.7902 11.4065 48.2795 11.2996 48.7579 11.1607C48.8792 11.126 49.0363 10.9621 49.0487 10.844C49.0873 10.4871 49.0625 10.1246 49.0625 9.73295C48.4105 9.64684 47.8357 9.55101 47.2567 9.5024C46.7467 9.45934 46.4517 9.2149 46.2739 8.73297C46.1085 8.28159 45.8948 7.84133 45.6495 7.42606C45.4069 7.01496 45.4138 6.65941 45.6743 6.26776C46.0065 5.76916 46.3125 5.25112 46.642 4.72058C46.2877 4.40392 45.9693 4.11781 45.6109 3.7956ZM41.6906 45.4376C41.6906 45.0973 41.6906 44.8251 41.6906 44.532C40.705 44.3126 39.8036 44.2918 39.2784 43.0154C38.7518 41.7363 39.3983 41.0891 39.9483 40.246C39.7098 40.0169 39.5044 39.8197 39.2853 39.6099C38.4499 40.2363 37.8007 40.7919 36.556 40.278C35.2906 39.7558 35.2602 38.8475 35.0659 37.8572C34.7475 37.8572 34.4635 37.8572 34.1589 37.8572C33.9907 38.8627 34.0913 40.0294 32.6715 40.1808C31.5481 41.0738 30.7817 40.178 29.9285 39.5697C29.7244 39.7891 29.5397 39.9877 29.3302 40.2127C29.526 40.503 29.6969 40.8057 29.916 41.0668C30.3461 41.5779 30.4605 42.0821 30.0498 42.6668C29.9147 42.8585 29.8306 43.1057 29.7837 43.339C29.6583 43.964 29.2806 44.2515 28.6713 44.2932C28.4659 44.307 28.2647 44.3668 28.0607 44.3945C27.7795 44.4334 27.5341 44.4543 27.5465 44.8695C27.5576 45.2431 27.621 45.4667 28.0455 45.4612C28.2316 45.4584 28.4163 45.5376 28.6052 45.5528C29.2654 45.607 29.6817 45.9126 29.8265 46.6014C29.8926 46.9153 30.1435 47.1917 30.2028 47.5056C30.2607 47.8167 30.2662 48.1903 30.1435 48.468C29.9574 48.8875 29.639 49.2472 29.3771 49.6305C29.5921 49.8569 29.7865 50.0638 29.996 50.2847C30.3971 50.0055 30.7679 49.7569 31.1304 49.4944C31.4585 49.2555 31.7811 49.2402 32.145 49.4236C32.5116 49.6097 32.8935 49.775 33.2836 49.9055C33.6861 50.0402 33.9204 50.2763 33.9852 50.7069C34.0541 51.1652 34.1602 51.6166 34.2471 52.061C34.5627 52.061 34.8302 52.061 35.1513 52.061C35.2809 51.0249 35.2492 49.8763 36.658 49.7138C37.7924 48.8028 38.534 49.8041 39.2839 50.268C39.5513 50.0652 39.7691 49.8986 40.002 49.7208C39.4286 48.8514 38.5037 48.1069 39.3707 46.982C39.5099 45.5348 40.6816 45.6167 41.6906 45.4376ZM19.0705 42.1335C19.0705 43.2612 19.1022 44.3529 19.0636 45.4403C18.9947 47.4083 20.4821 48.9666 23.0804 48.4389C23.0804 46.3473 23.0804 44.2529 23.0804 42.1335C21.753 42.1335 20.4504 42.1335 19.0705 42.1335ZM49.3644 25.9214C49.2114 25.8895 49.1783 25.8756 49.1452 25.8756C45.6012 25.8742 42.0573 25.8728 38.5133 25.8742C38.3975 25.8742 38.2404 25.87 38.1729 25.9381C37.6049 26.5172 37.055 27.113 36.4622 27.7408C36.6056 27.7769 36.6387 27.7936 36.6704 27.7936C40.2143 27.7964 43.7583 27.7978 47.3022 27.7922C47.4442 27.7922 47.6303 27.7547 47.7226 27.6616C48.2644 27.113 48.7827 26.5422 49.3644 25.9214ZM41.1186 13.6426C42.5838 13.1162 43.3668 11.7093 43.0498 10.2107C42.7727 8.89963 41.59 7.93716 40.2253 7.91355C38.8331 7.88855 37.5953 8.82602 37.2769 10.1288C37.1969 10.4551 37.2755 10.6315 37.5994 10.7565C38.1605 10.9732 38.687 11.2857 39.2563 11.4662C40.1523 11.7496 40.7381 12.2829 40.9421 13.2217C40.9738 13.3676 41.0593 13.5037 41.1186 13.6426ZM41.5514 19.1466C40.9476 17.5911 40.3977 16.1731 39.8091 14.6592C39.3266 15.7661 38.8938 16.755 38.4513 17.7688C39.4851 18.2286 40.4542 18.6591 41.5514 19.1466Z" fill="url(#paint1_linear_538_853)"/>
<path d="M10.3877 35.6105C10.5931 35.773 10.9005 35.905 11.0011 36.1314C11.1004 36.3536 11.0976 36.7744 10.9529 36.9313C10.0528 37.9063 9.11545 38.8466 8.15744 39.7646C7.83764 40.0715 7.44479 39.9785 7.14705 39.6604C6.86447 39.359 6.79968 38.9827 7.09053 38.6785C8.00719 37.7188 8.95142 36.7855 9.89426 35.8522C9.99765 35.7494 10.1658 35.7161 10.3877 35.6105Z" fill="#F1F2F4"/>
<path d="M10.3877 35.6105C10.5931 35.773 10.9005 35.905 11.0011 36.1314C11.1004 36.3536 11.0976 36.7744 10.9529 36.9313C10.0528 37.9063 9.11545 38.8466 8.15744 39.7646C7.83764 40.0715 7.44479 39.9785 7.14705 39.6604C6.86447 39.359 6.79968 38.9827 7.09053 38.6785C8.00719 37.7188 8.95142 36.7855 9.89426 35.8522C9.99765 35.7494 10.1658 35.7161 10.3877 35.6105Z" fill="url(#paint2_linear_538_853)"/>
<path d="M10.3877 35.6105C10.5931 35.773 10.9005 35.905 11.0011 36.1314C11.1004 36.3536 11.0976 36.7744 10.9529 36.9313C10.0528 37.9063 9.11545 38.8466 8.15744 39.7646C7.83764 40.0715 7.44479 39.9785 7.14705 39.6604C6.86447 39.359 6.79968 38.9827 7.09053 38.6785C8.00719 37.7188 8.95142 36.7855 9.89426 35.8522C9.99765 35.7494 10.1658 35.7161 10.3877 35.6105Z" fill="url(#paint3_linear_538_853)"/>
<path d="M2.61069 23.3644C2.00969 23.3644 1.40732 23.3727 0.80632 23.3616C0.290786 23.3519 0.0164779 23.0852 -6.33285e-05 22.6172C-0.0166045 22.1311 0.274245 21.8075 0.795293 21.8019C2.01521 21.788 3.23512 21.788 4.45503 21.8019C4.97608 21.8075 5.27796 22.1297 5.26693 22.6075C5.2559 23.0824 4.95678 23.3574 4.41506 23.3644C3.81406 23.3727 3.21169 23.3658 2.61069 23.3644Z" fill="#F1F2F4"/>
<path d="M2.61069 23.3644C2.00969 23.3644 1.40732 23.3727 0.80632 23.3616C0.290786 23.3519 0.0164779 23.0852 -6.33285e-05 22.6172C-0.0166045 22.1311 0.274245 21.8075 0.795293 21.8019C2.01521 21.788 3.23512 21.788 4.45503 21.8019C4.97608 21.8075 5.27796 22.1297 5.26693 22.6075C5.2559 23.0824 4.95678 23.3574 4.41506 23.3644C3.81406 23.3727 3.21169 23.3658 2.61069 23.3644Z" fill="url(#paint4_linear_538_853)"/>
<path d="M2.61069 23.3644C2.00969 23.3644 1.40732 23.3727 0.80632 23.3616C0.290786 23.3519 0.0164779 23.0852 -6.33285e-05 22.6172C-0.0166045 22.1311 0.274245 21.8075 0.795293 21.8019C2.01521 21.788 3.23512 21.788 4.45503 21.8019C4.97608 21.8075 5.27796 22.1297 5.26693 22.6075C5.2559 23.0824 4.95678 23.3574 4.41506 23.3644C3.81406 23.3727 3.21169 23.3658 2.61069 23.3644Z" fill="url(#paint5_linear_538_853)"/>
<path d="M10.957 8.66012C10.7792 8.87956 10.6413 9.19344 10.4166 9.28511C10.1961 9.37399 9.79359 9.33371 9.62956 9.17955C8.68671 8.29624 7.78245 7.36988 6.88509 6.43796C6.56392 6.10463 6.60527 5.68937 6.94023 5.37965C7.26003 5.08244 7.62669 5.01438 7.95338 5.33382C8.87693 6.23796 9.7867 7.15877 10.6868 8.08653C10.8067 8.21152 10.8453 8.41707 10.957 8.66012Z" fill="#F1F2F4"/>
<path d="M10.957 8.66012C10.7792 8.87956 10.6413 9.19344 10.4166 9.28511C10.1961 9.37399 9.79359 9.33371 9.62956 9.17955C8.68671 8.29624 7.78245 7.36988 6.88509 6.43796C6.56392 6.10463 6.60527 5.68937 6.94023 5.37965C7.26003 5.08244 7.62669 5.01438 7.95338 5.33382C8.87693 6.23796 9.7867 7.15877 10.6868 8.08653C10.8067 8.21152 10.8453 8.41707 10.957 8.66012Z" fill="url(#paint6_linear_538_853)"/>
<path d="M10.957 8.66012C10.7792 8.87956 10.6413 9.19344 10.4166 9.28511C10.1961 9.37399 9.79359 9.33371 9.62956 9.17955C8.68671 8.29624 7.78245 7.36988 6.88509 6.43796C6.56392 6.10463 6.60527 5.68937 6.94023 5.37965C7.26003 5.08244 7.62669 5.01438 7.95338 5.33382C8.87693 6.23796 9.7867 7.15877 10.6868 8.08653C10.8067 8.21152 10.8453 8.41707 10.957 8.66012Z" fill="url(#paint7_linear_538_853)"/>
<path d="M38.1922 44.9482C38.1991 46.9106 36.6525 48.4939 34.7034 48.5189C32.7433 48.5439 31.1167 46.9106 31.1209 44.919C31.1236 42.9566 32.6895 41.3788 34.6345 41.3774C36.5849 41.3761 38.1853 42.9816 38.1922 44.9482ZM32.6854 44.9162C32.6812 46.044 33.5565 46.9342 34.6731 46.937C35.7675 46.9384 36.6442 46.0509 36.6359 44.9523C36.6277 43.8677 35.7413 42.9691 34.662 42.9496C33.5772 42.9288 32.6895 43.8121 32.6854 44.9162Z" fill="#F1F2F4"/>
<path d="M38.1922 44.9482C38.1991 46.9106 36.6525 48.4939 34.7034 48.5189C32.7433 48.5439 31.1167 46.9106 31.1209 44.919C31.1236 42.9566 32.6895 41.3788 34.6345 41.3774C36.5849 41.3761 38.1853 42.9816 38.1922 44.9482ZM32.6854 44.9162C32.6812 46.044 33.5565 46.9342 34.6731 46.937C35.7675 46.9384 36.6442 46.0509 36.6359 44.9523C36.6277 43.8677 35.7413 42.9691 34.662 42.9496C33.5772 42.9288 32.6895 43.8121 32.6854 44.9162Z" fill="url(#paint8_linear_538_853)"/>
<path d="M38.1922 44.9482C38.1991 46.9106 36.6525 48.4939 34.7034 48.5189C32.7433 48.5439 31.1167 46.9106 31.1209 44.919C31.1236 42.9566 32.6895 41.3788 34.6345 41.3774C36.5849 41.3761 38.1853 42.9816 38.1922 44.9482ZM32.6854 44.9162C32.6812 46.044 33.5565 46.9342 34.6731 46.937C35.7675 46.9384 36.6442 46.0509 36.6359 44.9523C36.6277 43.8677 35.7413 42.9691 34.662 42.9496C33.5772 42.9288 32.6895 43.8121 32.6854 44.9162Z" fill="url(#paint9_linear_538_853)"/>
<defs>
<linearGradient id="paint0_linear_538_853" x1="11.3972" y1="27.123" x2="44.5048" y2="27.123" gradientUnits="userSpaceOnUse">
<stop stop-color="#FF1C54"/>
<stop offset="1" stop-color="#FF4444"/>
</linearGradient>
<linearGradient id="paint1_linear_538_853" x1="19.957" y1="26.9984" x2="44.0827" y2="26.9984" gradientUnits="userSpaceOnUse">
<stop stop-color="#1882DB"/>
<stop offset="1" stop-color="#0197D5"/>
</linearGradient>
<linearGradient id="paint2_linear_538_853" x1="7.29583" y1="37.7917" x2="10.3726" y2="37.7917" gradientUnits="userSpaceOnUse">
<stop stop-color="#FF1C54"/>
<stop offset="1" stop-color="#FF4444"/>
</linearGradient>
<linearGradient id="paint3_linear_538_853" x1="8.09131" y1="37.7816" x2="10.3334" y2="37.7816" gradientUnits="userSpaceOnUse">
<stop stop-color="#1882DB"/>
<stop offset="1" stop-color="#0197D5"/>
</linearGradient>
<linearGradient id="paint4_linear_538_853" x1="0.497807" y1="22.5836" x2="4.38641" y2="22.5836" gradientUnits="userSpaceOnUse">
<stop stop-color="#FF1C54"/>
<stop offset="1" stop-color="#FF4444"/>
</linearGradient>
<linearGradient id="paint5_linear_538_853" x1="1.50318" y1="22.58" x2="4.33683" y2="22.58" gradientUnits="userSpaceOnUse">
<stop stop-color="#1882DB"/>
<stop offset="1" stop-color="#0197D5"/>
</linearGradient>
<linearGradient id="paint6_linear_538_853" x1="7.07143" y1="7.23741" x2="10.2394" y2="7.23741" gradientUnits="userSpaceOnUse">
<stop stop-color="#FF1C54"/>
<stop offset="1" stop-color="#FF4444"/>
</linearGradient>
<linearGradient id="paint7_linear_538_853" x1="7.8905" y1="7.22758" x2="10.199" y2="7.22758" gradientUnits="userSpaceOnUse">
<stop stop-color="#1882DB"/>
<stop offset="1" stop-color="#0197D5"/>
</linearGradient>
<linearGradient id="paint8_linear_538_853" x1="31.7901" y1="44.965" x2="37.0099" y2="44.965" gradientUnits="userSpaceOnUse">
<stop stop-color="#FF1C54"/>
<stop offset="1" stop-color="#FF4444"/>
</linearGradient>
<linearGradient id="paint9_linear_538_853" x1="33.1396" y1="44.9483" x2="36.9433" y2="44.9483" gradientUnits="userSpaceOnUse">
<stop stop-color="#1882DB"/>
<stop offset="1" stop-color="#0197D5"/>
</linearGradient>
</defs>
</svg>
