<svg width="64" height="63" viewBox="0 0 64 63" fill="none" xmlns="http://www.w3.org/2000/svg">
<path d="M44.34 45.0029C44.34 45.9808 44.3417 46.8766 44.34 47.7723C44.3383 48.8408 44.3434 49.911 44.3298 50.9795C44.3144 52.1 43.9077 53.0762 43.0857 53.8512C42.2278 54.6614 41.7391 55.6074 41.7152 56.7916C41.7032 57.3536 41.6468 57.9256 41.5255 58.4741C41.0248 60.7419 39.2646 62.2197 36.9013 62.2683C32.9725 62.3489 29.0421 62.3992 25.1117 62.3975C22.3382 62.3958 20.1867 60.393 20.2516 57.6924C20.3012 55.5906 19.7014 53.8378 18.5 52.1352C16.9825 49.9848 15.6274 47.722 14.2244 45.4961C13.9937 45.1304 13.7459 44.9895 13.3067 44.9929C9.91117 45.0113 6.51392 45.0046 3.11837 45.0012C1.26594 45.0012 0.37561 44.1206 0.373901 42.2939C0.373901 31.3925 0.373901 20.4895 0.373901 9.58641C0.373901 7.77818 1.28986 6.87742 3.12349 6.87239C4.23085 6.86903 5.3382 6.87239 6.54297 6.87239C6.54297 6.37252 6.57373 5.91795 6.53613 5.46841C6.47461 4.72197 6.79246 4.18017 7.37348 3.73901C8.65002 2.77451 10.1214 2.21091 11.6491 1.81169C18.4231 0.0370046 25.0433 0.38087 31.4414 3.33644C31.8703 3.53437 32.1574 3.39179 32.5094 3.23747C39.3193 0.253388 46.2779 -0.0586069 53.351 2.20588C54.3301 2.51955 55.2444 3.05967 56.1484 3.56624C56.9242 4.00069 57.3395 4.67836 57.2284 5.61099C57.1823 5.99847 57.2199 6.39769 57.2199 6.87071C58.4092 6.87071 59.5337 6.85058 60.6581 6.88077C61.099 6.89252 61.5656 6.93781 61.9671 7.09716C62.7498 7.40748 63.1514 8.02476 63.1514 8.87016C63.1428 20.003 63.1326 31.1359 63.1309 42.2688C63.1309 43.0504 63.001 43.77 62.4097 44.3454C61.8526 44.8872 61.1605 45.008 60.4069 45.0063C55.323 44.9979 50.2391 45.0012 45.1552 45.0012C44.9074 45.0029 44.6562 45.0029 44.34 45.0029ZM44.5212 38.1004C47.8825 37.7515 51.2046 37.406 54.5438 37.0588C54.5506 37.0236 54.5762 36.9648 54.5762 36.9061C54.5796 26.6371 54.5831 16.3698 54.5626 6.10079C54.5626 5.90285 54.3387 5.61099 54.1439 5.52376C47.3545 2.46252 40.5497 2.39878 33.7313 5.44996C33.2938 5.64621 33.1725 5.89614 33.1742 6.35575C33.1896 15.2627 33.1861 24.168 33.1861 33.075C33.1861 33.2746 33.1861 33.4759 33.1861 33.7442C35.0283 32.8619 36.5612 33.3618 37.9283 34.5444C40.6762 32.5063 44.8014 34.3364 44.5212 38.1004ZM22.6851 33.9371C22.7124 33.9371 22.7397 33.9371 22.7671 33.9371C22.7671 34.5662 22.7637 35.1952 22.7671 35.8242C22.7808 38.2145 22.803 40.6048 22.8098 42.9951C22.8115 43.7214 22.4766 44.1726 21.8802 44.3286C21.2582 44.493 20.6805 44.2464 20.3029 43.6526C20.2243 43.5285 20.1593 43.396 20.0893 43.2668C19.1545 41.5492 18.2249 39.8282 17.2833 38.1139C16.8082 37.25 15.9931 36.8139 15.1404 36.933C13.6502 37.141 12.941 38.7647 13.7886 40.0731C16.5057 44.2615 19.2297 48.4449 21.9605 52.625C22.5637 53.5476 22.9158 54.5389 22.9329 55.6376C22.9414 56.2666 22.9175 56.8957 22.9414 57.5247C23.0029 59.1283 23.8608 59.9502 25.4945 59.9368C29.2967 59.9066 33.0973 59.863 36.8995 59.811C38.3196 59.7925 39.3296 58.8347 39.2561 57.4609C39.1416 55.3524 39.8747 53.6365 41.37 52.1369C41.8109 51.6957 42.2142 50.9862 42.2176 50.3957C42.2483 46.1821 42.1749 41.9668 42.1287 37.7532C42.1185 36.8575 41.5255 36.2637 40.6693 36.2587C39.7841 36.2536 39.2441 36.8005 39.2288 37.7448C39.2134 38.6456 39.2373 39.548 39.2185 40.4488C39.2014 41.2942 38.7195 41.779 37.9368 41.7874C37.132 41.7957 36.6313 41.2858 36.621 40.4152C36.609 39.4088 36.6244 38.4024 36.6159 37.3959C36.6073 36.4616 36.0143 35.8662 35.1206 35.8762C34.2405 35.888 33.7279 36.4331 33.7142 37.3943C33.7039 38.2112 33.7159 39.0297 33.7108 39.8466C33.7039 40.8849 33.2477 41.4167 32.3864 41.4032C31.549 41.3898 31.1099 40.8681 31.1064 39.8667C31.103 38.9442 31.1081 38.0216 31.1047 37.099C31.0996 36.101 30.5408 35.4921 29.6351 35.4904C28.7055 35.4904 28.2065 36.049 28.2013 37.1074C28.1962 37.9042 28.2065 38.701 28.1979 39.4977C28.1894 40.4371 27.6647 41.0292 26.8718 41.0158C26.1285 41.004 25.6021 40.3851 25.5936 39.5095C25.5509 34.7088 25.5098 29.9064 25.4603 25.1057C25.4569 24.797 25.4381 24.4666 25.327 24.1831C24.9955 23.341 23.8898 23.1146 23.1977 23.7101C22.7927 24.0573 22.6799 24.4901 22.6816 25.0033C22.6919 27.9841 22.6851 30.9615 22.6851 33.9371ZM30.5579 33.0012C30.5613 32.9626 30.5784 32.8804 30.5784 32.7982C30.5801 23.9097 30.5767 15.0228 30.5904 6.13433C30.5904 5.75692 30.4058 5.62608 30.117 5.49692C23.3618 2.48432 16.5963 2.3971 9.80864 5.40802C9.33357 5.61937 9.17294 5.87434 9.17294 6.39098C9.19002 16.452 9.18661 26.5147 9.18661 36.5757C9.18661 36.7988 9.18661 37.0236 9.18661 37.245C9.54035 37.2852 9.81718 37.3003 10.0872 37.3523C10.6562 37.4614 11.0971 37.458 11.2971 36.7468C11.4013 36.3711 11.7328 36.0255 12.0302 35.7353C14.209 33.605 17.9549 34.1468 19.4262 36.7921C19.6108 37.1242 19.7851 37.4614 20.0466 37.9495C20.0466 35.4703 20.0466 33.1941 20.0466 30.8491C19.7868 30.8491 19.5578 30.8491 19.3288 30.8491C17.6199 30.8491 15.9111 30.8558 14.2039 30.8457C13.252 30.8407 12.7377 30.3744 12.7342 29.5575C12.7308 28.7355 13.2332 28.2743 14.1936 28.2625C15.5607 28.2474 16.9278 28.2592 18.2932 28.2575C18.864 28.2575 19.4348 28.2575 20.0312 28.2575C20.0312 27.1102 20.0312 26.0366 20.0312 24.9212C19.7936 24.9212 19.6022 24.9212 19.4126 24.9212C17.6182 24.9212 15.8239 24.9295 14.0313 24.9161C13.1375 24.9094 12.6505 24.4783 12.6061 23.7134C12.5548 22.8429 13.088 22.3329 14.1031 22.3279C16.2392 22.3178 18.3736 22.3329 20.5097 22.3128C20.7574 22.3111 21.0633 22.2189 21.2411 22.0595C22.5364 20.887 24.0231 20.5666 25.6209 21.241C27.2273 21.9203 28.0749 23.1632 28.0783 24.9446C28.0834 27.4809 28.1467 30.0171 28.1877 32.5533C28.1911 32.7747 28.2082 32.9945 28.2184 33.184C29.0182 33.1219 29.753 33.0649 30.5579 33.0012ZM60.7197 9.51261C59.5269 9.51261 58.3904 9.51261 57.2216 9.51261C57.2216 9.83467 57.2216 10.1064 57.2216 10.3781C57.2216 19.5568 57.2216 28.7339 57.2216 37.9126C57.2216 39.2327 56.7875 39.6537 55.4512 39.7711C52.2658 40.0529 49.0805 40.3515 45.8985 40.6736C44.3571 40.8296 44.3605 40.8598 44.4853 42.3812C44.4887 42.4197 44.5177 42.455 44.5485 42.5237C49.9212 42.5237 55.3076 42.5237 60.7179 42.5237C60.7197 31.5083 60.7197 20.5348 60.7197 9.51261ZM3.04488 42.5137C6.15163 42.5137 9.18661 42.5137 12.2865 42.5137C12.0661 42.1681 11.8832 41.888 11.7072 41.6045C11.3432 41.0208 11.1142 40.1938 10.5845 39.9137C9.99149 39.6017 9.1268 39.7812 8.38001 39.751C6.90183 39.6906 6.54297 39.3266 6.54297 37.8773C6.54297 28.6953 6.54297 19.5132 6.54297 10.3329C6.54297 10.0661 6.54297 9.79944 6.54297 9.5059C5.3382 9.5059 4.2018 9.5059 3.04488 9.5059C3.04488 20.5264 3.04488 31.5049 3.04488 42.5137Z" fill="#00B086"/>
<path d="M44.4478 16.4073C46.2182 16.4073 47.9886 16.3989 49.759 16.4107C50.6135 16.4157 51.092 16.8317 51.1552 17.5681C51.2218 18.3397 50.8117 18.8647 50.0256 18.9704C49.7112 19.0123 49.3882 19.0006 49.0686 19.0006C45.8901 19.0022 42.7133 19.0022 39.5348 19.0006C39.3212 19.0006 39.1059 19.009 38.8957 18.9804C38.125 18.8815 37.6328 18.3346 37.6601 17.6285C37.6892 16.9038 38.1933 16.4191 39.0085 16.4123C40.8216 16.3956 42.6347 16.4073 44.4478 16.4073Z" fill="#00B086"/>
<path d="M44.4012 30.7158C42.653 30.7158 40.9031 30.7208 39.1549 30.7141C38.3842 30.7108 37.8664 30.3468 37.699 29.7295C37.511 29.03 37.9126 28.354 38.6286 28.188C38.8132 28.146 39.008 28.1242 39.1977 28.1242C42.6735 28.1209 46.1511 28.1158 49.627 28.1242C50.6642 28.1276 51.194 28.6107 51.1632 29.4728C51.1342 30.2629 50.6318 30.7074 49.7124 30.7124C47.9403 30.7225 46.1699 30.7158 44.4012 30.7158Z" fill="#00B086"/>
<path d="M44.3963 10.4826C46.1872 10.4826 47.9798 10.4726 49.7707 10.486C50.7328 10.4927 51.2591 11.0781 51.1463 11.9654C51.0712 12.5559 50.7413 12.9232 50.1381 13.0172C49.8869 13.0574 49.6289 13.0608 49.3742 13.0608C46.0693 13.0641 42.7626 13.0625 39.4576 13.0625C39.2867 13.0625 39.1158 13.0675 38.9467 13.0507C38.1418 12.9752 37.624 12.4217 37.6616 11.6887C37.6992 10.9624 38.2016 10.4927 39.0236 10.486C40.8128 10.4726 42.6037 10.4826 44.3963 10.4826Z" fill="#00B086"/>
<path d="M44.475 22.3255C46.2044 22.3255 47.9338 22.3188 49.6649 22.3288C50.4886 22.3339 50.9483 22.6291 51.1106 23.2179C51.3618 24.1337 50.8372 24.8701 49.8614 24.912C49.0719 24.9456 48.2807 24.9221 47.4912 24.9221C44.7997 24.9221 42.1099 24.9238 39.4184 24.9204C39.1843 24.9204 38.9451 24.9204 38.7195 24.8667C38.0616 24.7107 37.6053 24.0901 37.6634 23.4762C37.7249 22.8304 38.1778 22.401 38.9007 22.3423C39.304 22.3104 39.7107 22.3272 40.1174 22.3272C41.5699 22.3255 43.0225 22.3255 44.475 22.3255Z" fill="#00B086"/>
<path d="M19.4774 19.0004C17.7292 19.0004 15.9793 19.0122 14.2311 18.9954C13.2571 18.9853 12.6846 18.4184 12.741 17.5797C12.794 16.8098 13.2981 16.4089 14.2534 16.4072C17.5378 16.4022 20.8223 16.4055 24.1051 16.4055C24.3614 16.4055 24.6177 16.3988 24.8724 16.4089C25.7217 16.4424 26.2241 16.9121 26.236 17.6787C26.248 18.4419 25.7644 18.9652 24.9151 18.9853C23.4659 19.0206 22.0151 18.9988 20.5643 19.0004C20.2037 19.0004 19.8397 19.0004 19.4774 19.0004Z" fill="#00B086"/>
<path d="M19.4654 10.4834C21.2563 10.4834 23.0473 10.4716 24.8382 10.4884C25.9318 10.4985 26.5351 11.3892 26.1198 12.3302C25.872 12.8921 25.3884 13.0582 24.8211 13.0615C23.5633 13.0683 22.3056 13.0649 21.0462 13.0649C18.8075 13.0649 16.5689 13.0599 14.3285 13.0683C13.686 13.0699 13.1323 12.9139 12.8418 12.3017C12.418 11.4093 13.0349 10.5018 14.091 10.4901C15.8836 10.47 17.6745 10.4834 19.4654 10.4834Z" fill="#00B086"/>
</svg>
