<svg width="47" height="47" viewBox="0 0 47 47" fill="none" xmlns="http://www.w3.org/2000/svg">
<path d="M46.3334 27.9162C46.0655 29.1641 45.3561 30.2041 44.7436 31.2879C43.0026 34.3656 41.2593 37.4421 39.5077 40.5139C39.3566 40.7784 39.3248 41.0062 39.4097 41.3025C39.7922 42.6484 40.151 44.0001 40.5122 45.3518C40.6786 45.974 40.4118 46.3305 39.7709 46.3305C34.9045 46.334 30.0369 46.3329 25.1705 46.3305C24.591 46.3305 24.3525 46.1062 24.3514 45.5372C24.3478 42.1006 24.3407 38.6628 24.3584 35.2262C24.3667 33.649 24.9675 32.2937 26.0758 31.1793C29.1351 28.1063 32.1933 25.0309 35.2834 21.9898C35.7508 21.5306 36.3893 21.2461 37.0232 20.8341C37.0232 18.8118 37.0232 16.6466 37.0232 14.4791C36.3043 14.6054 35.7272 15.3716 35.7154 16.2511C35.7 17.3573 35.7166 18.4635 35.7071 19.5697C35.7024 20.0679 35.3554 20.3854 34.9246 20.2934C34.5563 20.2143 34.384 19.9593 34.384 19.5886C34.384 18.4234 34.3616 17.257 34.3934 16.0929C34.4347 14.6361 35.3837 13.5406 37.0385 12.9975C37.0385 12.3636 37.0361 11.7166 37.0385 11.0697C37.0456 9.46059 37.9414 8.24816 39.4652 7.75351C39.6021 7.70864 39.7638 7.57288 39.8099 7.44184C40.3823 5.84573 41.6039 4.93906 43.1525 4.98628C44.6503 5.03233 45.8165 6.03344 46.265 7.65552C46.2803 7.71101 46.3098 7.76295 46.3323 7.81608C46.3334 14.5169 46.3334 21.2166 46.3334 27.9162ZM39.0403 44.987C38.7016 43.7451 38.3852 42.535 38.0347 41.3344C37.9107 40.907 37.9509 40.5564 38.1751 40.1633C40.2678 36.5036 42.3369 32.832 44.4261 29.17C44.8167 28.4852 45.0127 27.7745 45.0115 26.9824C45.0009 20.8588 45.0056 14.7353 45.0056 8.61059C45.0056 8.46302 45.0103 8.31545 44.9997 8.16788C44.9466 7.37573 44.3965 6.66267 43.6494 6.41476C42.8787 6.15858 42.0572 6.38642 41.5249 7.00976C41.1531 7.44538 41.0185 7.95656 41.0197 8.52559C41.0256 13.6752 41.0138 18.8248 41.0303 23.9755C41.0338 25.0911 40.655 26.0002 39.8665 26.7841C36.9039 29.7272 33.9579 32.6856 31.0048 35.637C30.9115 35.7303 30.8194 35.8295 30.712 35.905C30.4004 36.1258 30.0924 36.0963 29.8386 35.82C29.5978 35.5579 29.6061 35.2557 29.8103 34.9712C29.8953 34.8532 30.0098 34.754 30.1136 34.6501C33.0243 31.7388 35.9349 28.8276 38.8444 25.9163C38.9907 25.77 39.1406 25.6259 39.2681 25.4654C40.1699 24.325 39.5762 22.6403 38.1598 22.3216C37.3454 22.1386 36.695 22.4313 36.1249 23.0027C33.1659 25.9695 30.2104 28.9397 27.2337 31.89C26.1773 32.9371 25.6603 34.1613 25.6709 35.65C25.6934 38.6014 25.6768 41.5528 25.678 44.5042C25.678 44.66 25.6922 44.817 25.7004 44.9882C30.1467 44.987 34.5528 44.987 39.0403 44.987ZM39.6564 21.4987C39.6564 17.375 39.6564 13.262 39.6564 9.13594C38.8196 9.44406 38.3699 10.1252 38.3687 11.0779C38.3652 13.7307 38.3675 16.3822 38.3675 19.0349C38.3675 19.6818 38.3675 20.33 38.3675 20.9498C38.8137 21.1398 39.228 21.3169 39.6564 21.4987Z" fill="#F1F2F4"/>
<path d="M46.3334 27.9162C46.0655 29.1641 45.3561 30.2041 44.7436 31.2879C43.0026 34.3656 41.2593 37.4421 39.5077 40.5139C39.3566 40.7784 39.3248 41.0062 39.4097 41.3025C39.7922 42.6484 40.151 44.0001 40.5122 45.3518C40.6786 45.974 40.4118 46.3305 39.7709 46.3305C34.9045 46.334 30.0369 46.3329 25.1705 46.3305C24.591 46.3305 24.3525 46.1062 24.3514 45.5372C24.3478 42.1006 24.3407 38.6628 24.3584 35.2262C24.3667 33.649 24.9675 32.2937 26.0758 31.1793C29.1351 28.1063 32.1933 25.0309 35.2834 21.9898C35.7508 21.5306 36.3893 21.2461 37.0232 20.8341C37.0232 18.8118 37.0232 16.6466 37.0232 14.4791C36.3043 14.6054 35.7272 15.3716 35.7154 16.2511C35.7 17.3573 35.7166 18.4635 35.7071 19.5697C35.7024 20.0679 35.3554 20.3854 34.9246 20.2934C34.5563 20.2143 34.384 19.9593 34.384 19.5886C34.384 18.4234 34.3616 17.257 34.3934 16.0929C34.4347 14.6361 35.3837 13.5406 37.0385 12.9975C37.0385 12.3636 37.0361 11.7166 37.0385 11.0697C37.0456 9.46059 37.9414 8.24816 39.4652 7.75351C39.6021 7.70864 39.7638 7.57288 39.8099 7.44184C40.3823 5.84573 41.6039 4.93906 43.1525 4.98628C44.6503 5.03233 45.8165 6.03344 46.265 7.65552C46.2803 7.71101 46.3098 7.76295 46.3323 7.81608C46.3334 14.5169 46.3334 21.2166 46.3334 27.9162ZM39.0403 44.987C38.7016 43.7451 38.3852 42.535 38.0347 41.3344C37.9107 40.907 37.9509 40.5564 38.1751 40.1633C40.2678 36.5036 42.3369 32.832 44.4261 29.17C44.8167 28.4852 45.0127 27.7745 45.0115 26.9824C45.0009 20.8588 45.0056 14.7353 45.0056 8.61059C45.0056 8.46302 45.0103 8.31545 44.9997 8.16788C44.9466 7.37573 44.3965 6.66267 43.6494 6.41476C42.8787 6.15858 42.0572 6.38642 41.5249 7.00976C41.1531 7.44538 41.0185 7.95656 41.0197 8.52559C41.0256 13.6752 41.0138 18.8248 41.0303 23.9755C41.0338 25.0911 40.655 26.0002 39.8665 26.7841C36.9039 29.7272 33.9579 32.6856 31.0048 35.637C30.9115 35.7303 30.8194 35.8295 30.712 35.905C30.4004 36.1258 30.0924 36.0963 29.8386 35.82C29.5978 35.5579 29.6061 35.2557 29.8103 34.9712C29.8953 34.8532 30.0098 34.754 30.1136 34.6501C33.0243 31.7388 35.9349 28.8276 38.8444 25.9163C38.9907 25.77 39.1406 25.6259 39.2681 25.4654C40.1699 24.325 39.5762 22.6403 38.1598 22.3216C37.3454 22.1386 36.695 22.4313 36.1249 23.0027C33.1659 25.9695 30.2104 28.9397 27.2337 31.89C26.1773 32.9371 25.6603 34.1613 25.6709 35.65C25.6934 38.6014 25.6768 41.5528 25.678 44.5042C25.678 44.66 25.6922 44.817 25.7004 44.9882C30.1467 44.987 34.5528 44.987 39.0403 44.987ZM39.6564 21.4987C39.6564 17.375 39.6564 13.262 39.6564 9.13594C38.8196 9.44406 38.3699 10.1252 38.3687 11.0779C38.3652 13.7307 38.3675 16.3822 38.3675 19.0349C38.3675 19.6818 38.3675 20.33 38.3675 20.9498C38.8137 21.1398 39.228 21.3169 39.6564 21.4987Z" fill="url(#paint0_linear_537_845)"/>
<path d="M46.3334 27.9162C46.0655 29.1641 45.3561 30.2041 44.7436 31.2879C43.0026 34.3656 41.2593 37.4421 39.5077 40.5139C39.3566 40.7784 39.3248 41.0062 39.4097 41.3025C39.7922 42.6484 40.151 44.0001 40.5122 45.3518C40.6786 45.974 40.4118 46.3305 39.7709 46.3305C34.9045 46.334 30.0369 46.3329 25.1705 46.3305C24.591 46.3305 24.3525 46.1062 24.3514 45.5372C24.3478 42.1006 24.3407 38.6628 24.3584 35.2262C24.3667 33.649 24.9675 32.2937 26.0758 31.1793C29.1351 28.1063 32.1933 25.0309 35.2834 21.9898C35.7508 21.5306 36.3893 21.2461 37.0232 20.8341C37.0232 18.8118 37.0232 16.6466 37.0232 14.4791C36.3043 14.6054 35.7272 15.3716 35.7154 16.2511C35.7 17.3573 35.7166 18.4635 35.7071 19.5697C35.7024 20.0679 35.3554 20.3854 34.9246 20.2934C34.5563 20.2143 34.384 19.9593 34.384 19.5886C34.384 18.4234 34.3616 17.257 34.3934 16.0929C34.4347 14.6361 35.3837 13.5406 37.0385 12.9975C37.0385 12.3636 37.0361 11.7166 37.0385 11.0697C37.0456 9.46059 37.9414 8.24816 39.4652 7.75351C39.6021 7.70864 39.7638 7.57288 39.8099 7.44184C40.3823 5.84573 41.6039 4.93906 43.1525 4.98628C44.6503 5.03233 45.8165 6.03344 46.265 7.65552C46.2803 7.71101 46.3098 7.76295 46.3323 7.81608C46.3334 14.5169 46.3334 21.2166 46.3334 27.9162ZM39.0403 44.987C38.7016 43.7451 38.3852 42.535 38.0347 41.3344C37.9107 40.907 37.9509 40.5564 38.1751 40.1633C40.2678 36.5036 42.3369 32.832 44.4261 29.17C44.8167 28.4852 45.0127 27.7745 45.0115 26.9824C45.0009 20.8588 45.0056 14.7353 45.0056 8.61059C45.0056 8.46302 45.0103 8.31545 44.9997 8.16788C44.9466 7.37573 44.3965 6.66267 43.6494 6.41476C42.8787 6.15858 42.0572 6.38642 41.5249 7.00976C41.1531 7.44538 41.0185 7.95656 41.0197 8.52559C41.0256 13.6752 41.0138 18.8248 41.0303 23.9755C41.0338 25.0911 40.655 26.0002 39.8665 26.7841C36.9039 29.7272 33.9579 32.6856 31.0048 35.637C30.9115 35.7303 30.8194 35.8295 30.712 35.905C30.4004 36.1258 30.0924 36.0963 29.8386 35.82C29.5978 35.5579 29.6061 35.2557 29.8103 34.9712C29.8953 34.8532 30.0098 34.754 30.1136 34.6501C33.0243 31.7388 35.9349 28.8276 38.8444 25.9163C38.9907 25.77 39.1406 25.6259 39.2681 25.4654C40.1699 24.325 39.5762 22.6403 38.1598 22.3216C37.3454 22.1386 36.695 22.4313 36.1249 23.0027C33.1659 25.9695 30.2104 28.9397 27.2337 31.89C26.1773 32.9371 25.6603 34.1613 25.6709 35.65C25.6934 38.6014 25.6768 41.5528 25.678 44.5042C25.678 44.66 25.6922 44.817 25.7004 44.9882C30.1467 44.987 34.5528 44.987 39.0403 44.987ZM39.6564 21.4987C39.6564 17.375 39.6564 13.262 39.6564 9.13594C38.8196 9.44406 38.3699 10.1252 38.3687 11.0779C38.3652 13.7307 38.3675 16.3822 38.3675 19.0349C38.3675 19.6818 38.3675 20.33 38.3675 20.9498C38.8137 21.1398 39.228 21.3169 39.6564 21.4987Z" fill="url(#paint1_linear_537_845)"/>
<path d="M29.2484 1.00002C29.881 1.17828 30.5373 1.29988 31.144 1.54426C35.8888 3.46266 37.278 9.58856 33.7418 13.2825C30.6317 16.5314 27.4059 19.6705 24.2273 22.8533C23.8343 23.2464 23.5085 23.2452 23.1167 22.8521C19.9381 19.6693 16.717 16.5255 13.6046 13.279C11.6122 11.2 11.1106 8.64884 12.0536 5.93238C13.0026 3.20058 14.9997 1.59856 17.8537 1.08266C17.9363 1.06731 18.0142 1.02835 18.0956 1.00002C18.6563 1.00002 19.2169 1.00002 19.7776 1.00002C19.8142 1.02127 19.8496 1.05787 19.8885 1.06259C21.2211 1.23613 22.4156 1.73905 23.4601 2.58315C23.675 2.75669 23.7812 2.61974 23.9523 2.52884C24.7538 2.10148 25.554 1.6694 26.3791 1.29398C26.7438 1.12752 27.1687 1.09328 27.5664 0.99884C28.1271 1.00002 28.6877 1.00002 29.2484 1.00002ZM23.6348 21.5334C23.7517 21.4366 23.7989 21.4024 23.8402 21.3611C26.7992 18.3955 29.7772 15.4488 32.7091 12.4573C34.9847 10.1363 34.9351 6.42113 32.6595 4.11314C30.3744 1.7969 26.7131 1.7237 24.3206 3.94905C23.7895 4.44252 23.5534 4.44134 23.014 3.9396C21.0063 2.07315 18.0331 1.7969 15.7386 3.26314C12.4608 5.35745 12.0052 9.82231 14.7943 12.6297C17.4453 15.2989 20.1081 17.9552 22.7638 20.6185C23.0529 20.9089 23.3303 21.2135 23.6348 21.5334Z" fill="#F1F2F4"/>
<path d="M29.2484 1.00002C29.881 1.17828 30.5373 1.29988 31.144 1.54426C35.8888 3.46266 37.278 9.58856 33.7418 13.2825C30.6317 16.5314 27.4059 19.6705 24.2273 22.8533C23.8343 23.2464 23.5085 23.2452 23.1167 22.8521C19.9381 19.6693 16.717 16.5255 13.6046 13.279C11.6122 11.2 11.1106 8.64884 12.0536 5.93238C13.0026 3.20058 14.9997 1.59856 17.8537 1.08266C17.9363 1.06731 18.0142 1.02835 18.0956 1.00002C18.6563 1.00002 19.2169 1.00002 19.7776 1.00002C19.8142 1.02127 19.8496 1.05787 19.8885 1.06259C21.2211 1.23613 22.4156 1.73905 23.4601 2.58315C23.675 2.75669 23.7812 2.61974 23.9523 2.52884C24.7538 2.10148 25.554 1.6694 26.3791 1.29398C26.7438 1.12752 27.1687 1.09328 27.5664 0.99884C28.1271 1.00002 28.6877 1.00002 29.2484 1.00002ZM23.6348 21.5334C23.7517 21.4366 23.7989 21.4024 23.8402 21.3611C26.7992 18.3955 29.7772 15.4488 32.7091 12.4573C34.9847 10.1363 34.9351 6.42113 32.6595 4.11314C30.3744 1.7969 26.7131 1.7237 24.3206 3.94905C23.7895 4.44252 23.5534 4.44134 23.014 3.9396C21.0063 2.07315 18.0331 1.7969 15.7386 3.26314C12.4608 5.35745 12.0052 9.82231 14.7943 12.6297C17.4453 15.2989 20.1081 17.9552 22.7638 20.6185C23.0529 20.9089 23.3303 21.2135 23.6348 21.5334Z" fill="url(#paint2_linear_537_845)"/>
<path d="M29.2484 1.00002C29.881 1.17828 30.5373 1.29988 31.144 1.54426C35.8888 3.46266 37.278 9.58856 33.7418 13.2825C30.6317 16.5314 27.4059 19.6705 24.2273 22.8533C23.8343 23.2464 23.5085 23.2452 23.1167 22.8521C19.9381 19.6693 16.717 16.5255 13.6046 13.279C11.6122 11.2 11.1106 8.64884 12.0536 5.93238C13.0026 3.20058 14.9997 1.59856 17.8537 1.08266C17.9363 1.06731 18.0142 1.02835 18.0956 1.00002C18.6563 1.00002 19.2169 1.00002 19.7776 1.00002C19.8142 1.02127 19.8496 1.05787 19.8885 1.06259C21.2211 1.23613 22.4156 1.73905 23.4601 2.58315C23.675 2.75669 23.7812 2.61974 23.9523 2.52884C24.7538 2.10148 25.554 1.6694 26.3791 1.29398C26.7438 1.12752 27.1687 1.09328 27.5664 0.99884C28.1271 1.00002 28.6877 1.00002 29.2484 1.00002ZM23.6348 21.5334C23.7517 21.4366 23.7989 21.4024 23.8402 21.3611C26.7992 18.3955 29.7772 15.4488 32.7091 12.4573C34.9847 10.1363 34.9351 6.42113 32.6595 4.11314C30.3744 1.7969 26.7131 1.7237 24.3206 3.94905C23.7895 4.44252 23.5534 4.44134 23.014 3.9396C21.0063 2.07315 18.0331 1.7969 15.7386 3.26314C12.4608 5.35745 12.0052 9.82231 14.7943 12.6297C17.4453 15.2989 20.1081 17.9552 22.7638 20.6185C23.0529 20.9089 23.3303 21.2135 23.6348 21.5334Z" fill="url(#paint3_linear_537_845)"/>
<path d="M10.3268 21.0139C11.2073 21.1946 11.8376 21.7329 12.4396 22.3385C15.2888 25.2049 18.1393 28.0713 21.0157 30.9117C22.3624 32.241 23.0199 33.8076 23.0022 35.7024C22.9726 38.9183 22.9951 42.1353 22.9939 45.3511C22.9939 46.1586 22.8157 46.3333 22.006 46.3333C17.2564 46.3333 12.5068 46.3333 7.75727 46.3333C6.86967 46.3333 6.63715 46.0346 6.86731 45.1882C7.21905 43.8955 7.5637 42.5992 7.93195 41.3112C8.01576 41.0185 7.99215 40.7882 7.83989 40.5214C5.83926 37.014 3.86342 33.4924 1.851 29.9921C1.27619 28.991 0.995271 27.9544 0.998812 26.7963C1.01888 20.6586 1.00471 14.5221 1.01062 8.38434C1.01298 6.42344 2.51433 4.9442 4.42997 4.9867C5.78851 5.01622 7.02902 5.95122 7.46455 7.30295C7.55425 7.58275 7.68645 7.72205 7.97444 7.81059C9.36249 8.23441 10.2772 9.46927 10.3008 10.9166C10.3126 11.6084 10.3032 12.3002 10.3032 13.0015C11.5461 13.3427 12.4195 14.0664 12.7984 15.2977C12.9011 15.6306 12.9471 15.9907 12.953 16.3401C12.9731 17.3719 12.9613 18.4049 12.9601 19.4379C12.9589 20.001 12.7311 20.3009 12.3062 20.3068C11.8742 20.3127 11.6346 20.014 11.6334 19.458C11.631 18.3955 11.6417 17.333 11.6287 16.2716C11.6169 15.3933 11.0798 14.659 10.328 14.4713C10.3268 16.6388 10.3268 18.8004 10.3268 21.0139ZM21.666 44.9804C21.666 44.7974 21.666 44.638 21.666 44.4799C21.666 41.5438 21.6483 38.6066 21.6731 35.6705C21.6861 34.1653 21.1668 32.9257 20.0939 31.8715C18.0212 29.8339 15.9781 27.7655 13.9232 25.7102C12.9742 24.761 12.0371 23.7989 11.0704 22.8674C10.112 21.9442 8.65194 22.1012 7.96382 23.1708C7.4315 23.9984 7.56488 24.9771 8.32972 25.7444C11.2793 28.6994 14.2336 31.6507 17.1856 34.6045C17.2895 34.7084 17.4004 34.8087 17.4936 34.9221C17.7403 35.2184 17.7368 35.595 17.4936 35.8429C17.2363 36.1062 16.8881 36.118 16.5777 35.8689C16.4975 35.8051 16.4278 35.7272 16.3546 35.654C13.3921 32.6908 10.4354 29.7217 7.46337 26.768C6.68555 25.9947 6.31139 25.0987 6.31493 23.9984C6.32909 18.9078 6.32083 13.8161 6.32083 8.72552C6.32083 8.54844 6.32673 8.37018 6.31375 8.19427C6.24883 7.3608 5.67166 6.63712 4.88793 6.39983C4.10303 6.16136 3.26737 6.43052 2.75275 7.09163C2.42935 7.50719 2.33374 7.98413 2.33374 8.5024C2.33846 14.6708 2.34082 20.838 2.33138 27.0064C2.3302 27.7832 2.52377 28.4798 2.90619 29.1527C5.00124 32.8278 7.08095 36.5111 9.176 40.1862C9.38019 40.5439 9.45573 40.8744 9.32236 41.2735C9.1642 41.748 9.04617 42.2356 8.91515 42.7196C8.71214 43.4669 8.51385 44.2154 8.30847 44.9816C12.7842 44.9804 17.2033 44.9804 21.666 44.9804ZM7.67937 9.13754C7.67937 13.2825 7.67937 17.3943 7.67937 21.5039C8.11844 21.3162 8.53391 21.1391 8.97771 20.949C8.97771 19.9857 8.97771 18.9999 8.97771 18.013C8.97771 15.6991 8.98125 13.3864 8.97653 11.0725C8.97299 10.1221 8.51503 9.43268 7.67937 9.13754Z" fill="#F1F2F4"/>
<path d="M10.3268 21.0139C11.2073 21.1946 11.8376 21.7329 12.4396 22.3385C15.2888 25.2049 18.1393 28.0713 21.0157 30.9117C22.3624 32.241 23.0199 33.8076 23.0022 35.7024C22.9726 38.9183 22.9951 42.1353 22.9939 45.3511C22.9939 46.1586 22.8157 46.3333 22.006 46.3333C17.2564 46.3333 12.5068 46.3333 7.75727 46.3333C6.86967 46.3333 6.63715 46.0346 6.86731 45.1882C7.21905 43.8955 7.5637 42.5992 7.93195 41.3112C8.01576 41.0185 7.99215 40.7882 7.83989 40.5214C5.83926 37.014 3.86342 33.4924 1.851 29.9921C1.27619 28.991 0.995271 27.9544 0.998812 26.7963C1.01888 20.6586 1.00471 14.5221 1.01062 8.38434C1.01298 6.42344 2.51433 4.9442 4.42997 4.9867C5.78851 5.01622 7.02902 5.95122 7.46455 7.30295C7.55425 7.58275 7.68645 7.72205 7.97444 7.81059C9.36249 8.23441 10.2772 9.46927 10.3008 10.9166C10.3126 11.6084 10.3032 12.3002 10.3032 13.0015C11.5461 13.3427 12.4195 14.0664 12.7984 15.2977C12.9011 15.6306 12.9471 15.9907 12.953 16.3401C12.9731 17.3719 12.9613 18.4049 12.9601 19.4379C12.9589 20.001 12.7311 20.3009 12.3062 20.3068C11.8742 20.3127 11.6346 20.014 11.6334 19.458C11.631 18.3955 11.6417 17.333 11.6287 16.2716C11.6169 15.3933 11.0798 14.659 10.328 14.4713C10.3268 16.6388 10.3268 18.8004 10.3268 21.0139ZM21.666 44.9804C21.666 44.7974 21.666 44.638 21.666 44.4799C21.666 41.5438 21.6483 38.6066 21.6731 35.6705C21.6861 34.1653 21.1668 32.9257 20.0939 31.8715C18.0212 29.8339 15.9781 27.7655 13.9232 25.7102C12.9742 24.761 12.0371 23.7989 11.0704 22.8674C10.112 21.9442 8.65194 22.1012 7.96382 23.1708C7.4315 23.9984 7.56488 24.9771 8.32972 25.7444C11.2793 28.6994 14.2336 31.6507 17.1856 34.6045C17.2895 34.7084 17.4004 34.8087 17.4936 34.9221C17.7403 35.2184 17.7368 35.595 17.4936 35.8429C17.2363 36.1062 16.8881 36.118 16.5777 35.8689C16.4975 35.8051 16.4278 35.7272 16.3546 35.654C13.3921 32.6908 10.4354 29.7217 7.46337 26.768C6.68555 25.9947 6.31139 25.0987 6.31493 23.9984C6.32909 18.9078 6.32083 13.8161 6.32083 8.72552C6.32083 8.54844 6.32673 8.37018 6.31375 8.19427C6.24883 7.3608 5.67166 6.63712 4.88793 6.39983C4.10303 6.16136 3.26737 6.43052 2.75275 7.09163C2.42935 7.50719 2.33374 7.98413 2.33374 8.5024C2.33846 14.6708 2.34082 20.838 2.33138 27.0064C2.3302 27.7832 2.52377 28.4798 2.90619 29.1527C5.00124 32.8278 7.08095 36.5111 9.176 40.1862C9.38019 40.5439 9.45573 40.8744 9.32236 41.2735C9.1642 41.748 9.04617 42.2356 8.91515 42.7196C8.71214 43.4669 8.51385 44.2154 8.30847 44.9816C12.7842 44.9804 17.2033 44.9804 21.666 44.9804ZM7.67937 9.13754C7.67937 13.2825 7.67937 17.3943 7.67937 21.5039C8.11844 21.3162 8.53391 21.1391 8.97771 20.949C8.97771 19.9857 8.97771 18.9999 8.97771 18.013C8.97771 15.6991 8.98125 13.3864 8.97653 11.0725C8.97299 10.1221 8.51503 9.43268 7.67937 9.13754Z" fill="url(#paint4_linear_537_845)"/>
<path d="M10.3268 21.0139C11.2073 21.1946 11.8376 21.7329 12.4396 22.3385C15.2888 25.2049 18.1393 28.0713 21.0157 30.9117C22.3624 32.241 23.0199 33.8076 23.0022 35.7024C22.9726 38.9183 22.9951 42.1353 22.9939 45.3511C22.9939 46.1586 22.8157 46.3333 22.006 46.3333C17.2564 46.3333 12.5068 46.3333 7.75727 46.3333C6.86967 46.3333 6.63715 46.0346 6.86731 45.1882C7.21905 43.8955 7.5637 42.5992 7.93195 41.3112C8.01576 41.0185 7.99215 40.7882 7.83989 40.5214C5.83926 37.014 3.86342 33.4924 1.851 29.9921C1.27619 28.991 0.995271 27.9544 0.998812 26.7963C1.01888 20.6586 1.00471 14.5221 1.01062 8.38434C1.01298 6.42344 2.51433 4.9442 4.42997 4.9867C5.78851 5.01622 7.02902 5.95122 7.46455 7.30295C7.55425 7.58275 7.68645 7.72205 7.97444 7.81059C9.36249 8.23441 10.2772 9.46927 10.3008 10.9166C10.3126 11.6084 10.3032 12.3002 10.3032 13.0015C11.5461 13.3427 12.4195 14.0664 12.7984 15.2977C12.9011 15.6306 12.9471 15.9907 12.953 16.3401C12.9731 17.3719 12.9613 18.4049 12.9601 19.4379C12.9589 20.001 12.7311 20.3009 12.3062 20.3068C11.8742 20.3127 11.6346 20.014 11.6334 19.458C11.631 18.3955 11.6417 17.333 11.6287 16.2716C11.6169 15.3933 11.0798 14.659 10.328 14.4713C10.3268 16.6388 10.3268 18.8004 10.3268 21.0139ZM21.666 44.9804C21.666 44.7974 21.666 44.638 21.666 44.4799C21.666 41.5438 21.6483 38.6066 21.6731 35.6705C21.6861 34.1653 21.1668 32.9257 20.0939 31.8715C18.0212 29.8339 15.9781 27.7655 13.9232 25.7102C12.9742 24.761 12.0371 23.7989 11.0704 22.8674C10.112 21.9442 8.65194 22.1012 7.96382 23.1708C7.4315 23.9984 7.56488 24.9771 8.32972 25.7444C11.2793 28.6994 14.2336 31.6507 17.1856 34.6045C17.2895 34.7084 17.4004 34.8087 17.4936 34.9221C17.7403 35.2184 17.7368 35.595 17.4936 35.8429C17.2363 36.1062 16.8881 36.118 16.5777 35.8689C16.4975 35.8051 16.4278 35.7272 16.3546 35.654C13.3921 32.6908 10.4354 29.7217 7.46337 26.768C6.68555 25.9947 6.31139 25.0987 6.31493 23.9984C6.32909 18.9078 6.32083 13.8161 6.32083 8.72552C6.32083 8.54844 6.32673 8.37018 6.31375 8.19427C6.24883 7.3608 5.67166 6.63712 4.88793 6.39983C4.10303 6.16136 3.26737 6.43052 2.75275 7.09163C2.42935 7.50719 2.33374 7.98413 2.33374 8.5024C2.33846 14.6708 2.34082 20.838 2.33138 27.0064C2.3302 27.7832 2.52377 28.4798 2.90619 29.1527C5.00124 32.8278 7.08095 36.5111 9.176 40.1862C9.38019 40.5439 9.45573 40.8744 9.32236 41.2735C9.1642 41.748 9.04617 42.2356 8.91515 42.7196C8.71214 43.4669 8.51385 44.2154 8.30847 44.9816C12.7842 44.9804 17.2033 44.9804 21.666 44.9804ZM7.67937 9.13754C7.67937 13.2825 7.67937 17.3943 7.67937 21.5039C8.11844 21.3162 8.53391 21.1391 8.97771 20.949C8.97771 19.9857 8.97771 18.9999 8.97771 18.013C8.97771 15.6991 8.98125 13.3864 8.97653 11.0725C8.97299 10.1221 8.51503 9.43268 7.67937 9.13754Z" fill="url(#paint5_linear_537_845)"/>
<defs>
<linearGradient id="paint0_linear_537_845" x1="26.4276" y1="25.7552" x2="42.6573" y2="25.7552" gradientUnits="userSpaceOnUse">
<stop stop-color="#FF1C54"/>
<stop offset="1" stop-color="#FF4444"/>
</linearGradient>
<linearGradient id="paint1_linear_537_845" x1="30.6237" y1="25.6586" x2="42.4503" y2="25.6586" gradientUnits="userSpaceOnUse">
<stop stop-color="#1882DB"/>
<stop offset="1" stop-color="#0197D5"/>
</linearGradient>
<linearGradient id="paint2_linear_537_845" x1="13.8773" y1="12.1249" x2="31.6907" y2="12.1249" gradientUnits="userSpaceOnUse">
<stop stop-color="#FF1C54"/>
<stop offset="1" stop-color="#FF4444"/>
</linearGradient>
<linearGradient id="paint3_linear_537_845" x1="18.4828" y1="12.0732" x2="31.4636" y2="12.0732" gradientUnits="userSpaceOnUse">
<stop stop-color="#1882DB"/>
<stop offset="1" stop-color="#0197D5"/>
</linearGradient>
<linearGradient id="paint4_linear_537_845" x1="3.08113" y1="25.7562" x2="19.3234" y2="25.7562" gradientUnits="userSpaceOnUse">
<stop stop-color="#FF1C54"/>
<stop offset="1" stop-color="#FF4444"/>
</linearGradient>
<linearGradient id="paint5_linear_537_845" x1="7.28049" y1="25.6595" x2="19.1164" y2="25.6595" gradientUnits="userSpaceOnUse">
<stop stop-color="#1882DB"/>
<stop offset="1" stop-color="#0197D5"/>
</linearGradient>
</defs>
</svg>
