<svg width="49" height="56" viewBox="0 0 49 56" fill="none" xmlns="http://www.w3.org/2000/svg">
<path d="M7.81605 55.3344C6.905 55.1034 6.03446 54.7964 5.30729 54.1419C4.56868 53.4767 4.06797 52.6607 3.80826 51.6992C3.45714 50.3987 3.14757 49.0865 2.81618 47.7806C2.71334 47.3753 2.79125 47.0341 3.14341 46.8031C3.60881 46.4983 4.13965 46.7603 4.31417 47.4063C4.62789 48.5699 4.91669 49.741 5.21275 50.9089C5.76956 53.1088 7.32469 54.0767 9.47506 53.5665C10.9211 53.2243 12.3703 52.8949 13.8163 52.5537C15.8088 52.0842 17.0221 49.8789 16.322 47.9293C14.7585 43.5829 13.1681 39.2461 11.5891 34.9062C11.5589 34.8249 11.5226 34.7457 11.4696 34.6185C10.303 34.9596 9.14783 35.2987 7.99161 35.6377C7.0629 35.9093 6.13211 36.1767 5.20444 36.4537C3.10601 37.0815 2.16588 38.7884 2.7071 40.9766C2.93253 41.8888 3.16419 42.799 3.38546 43.7123C3.52985 44.3101 3.32313 44.7401 2.85254 44.8545C2.41519 44.9604 2.03914 44.6877 1.8937 44.1144C1.6101 42.9979 1.31196 41.8835 1.08238 40.7552C0.577511 38.274 2.08069 35.6826 4.711 34.9329C6.88838 34.3126 9.07511 33.7137 11.2224 32.9929C12.2103 32.6613 13.1203 32.0731 14.048 31.5672C14.1591 31.5073 14.2059 31.2346 14.2069 31.0603C14.2173 28.8368 14.2038 26.6123 14.2173 24.3889C14.2277 22.6574 15.1024 21.3269 16.6409 21.0767C17.7981 20.8884 19.0312 20.8906 20.1895 21.0788C21.7072 21.3248 22.5913 22.6552 22.6235 24.3407C22.6391 25.1567 22.6266 25.9738 22.6266 26.8925C23.0982 26.6358 23.5221 26.4465 23.895 26.1792C24.0155 26.0925 24.0363 25.8038 24.0373 25.607C24.0467 23.1696 24.0487 20.7323 24.0415 18.2949C24.0363 16.7249 24.6066 15.4961 25.9965 14.7517C27.7439 13.8149 30.5643 14.3122 31.6872 15.7367C32.2981 16.5121 32.4643 17.419 32.4643 18.3826C32.4632 23.6488 32.4643 28.9149 32.4643 34.1811C32.4643 34.3896 32.4643 34.5982 32.4643 34.7842C32.5463 34.8088 32.5619 34.8185 32.5775 34.8174C33.8698 34.7297 33.8698 34.7297 33.8698 33.4249C33.8698 25.8284 33.8719 18.2318 33.8677 10.6353C33.8667 9.36047 34.2033 8.23858 35.2234 7.44396C35.56 7.18193 35.9558 6.92633 36.3599 6.84184C37.7935 6.54238 39.2499 6.39051 40.5921 7.18621C41.5769 7.77015 42.1607 8.68563 42.2396 9.86741C42.2988 10.7529 42.2895 11.6449 42.2791 12.5336C42.2718 13.1047 41.9758 13.4095 41.5104 13.4074C41.0471 13.4053 40.7635 13.1015 40.7458 12.5261C40.725 11.8502 40.7448 11.1743 40.7365 10.4984C40.7188 9.03 39.9698 8.2589 38.557 8.25356C38.1248 8.25142 37.6917 8.23965 37.2616 8.26318C36.3568 8.31238 35.6327 8.98722 35.48 9.90698C35.4478 10.0984 35.4291 10.2952 35.4291 10.4898C35.427 18.1752 35.427 25.8615 35.4281 33.5469C35.4281 33.6356 35.4374 33.7233 35.4468 33.9062C35.7023 33.7768 35.9412 33.6934 36.1396 33.5511C37.5961 32.502 39.0536 31.4517 40.4861 30.3683C40.6471 30.2464 40.7271 29.9149 40.7281 29.6807C40.7416 25.269 40.7375 20.8564 40.7406 16.4447C40.7406 16.2148 40.7458 15.9806 40.7811 15.7538C40.8455 15.3378 41.1343 15.1293 41.5083 15.1282C41.9062 15.1271 42.1991 15.3474 42.2583 15.7891C42.2864 15.9998 42.2885 16.2148 42.2885 16.4276C42.2905 20.3954 42.2895 24.3621 42.2895 28.3299C42.2895 28.5363 42.2895 28.7427 42.2895 28.9363C42.9543 28.6743 43.5402 28.3577 44.1646 28.2123C45.8454 27.8187 47.3642 28.5727 48.1682 30.1192C48.9941 31.7073 48.8112 33.3779 47.5335 34.6088C46.4261 35.6773 45.2179 36.6355 44.0441 37.6301C42.2563 39.1445 40.4695 40.66 38.664 42.1509C37.514 43.1016 36.175 43.6588 34.7497 44.0171C29.353 45.3721 23.9573 46.7315 18.5617 48.0908C18.4131 48.1282 18.2677 48.1785 18.1628 48.2105C18.1046 48.9592 18.1285 49.695 17.9778 50.3912C17.5883 52.1847 16.4965 53.4211 14.7938 53.9227C13.006 54.4499 11.1704 54.8061 9.35663 55.2381C9.2569 55.2617 9.16133 55.3023 9.06368 55.3344C8.64503 55.3344 8.23054 55.3344 7.81605 55.3344ZM17.5426 46.6897C17.6693 46.663 17.7514 46.647 17.8324 46.6266C23.0598 45.309 28.284 43.9807 33.5145 42.6813C35.053 42.2995 36.5593 41.8674 37.8122 40.814C40.5941 38.4729 43.3709 36.1264 46.1425 33.7736C46.3523 33.595 46.5352 33.3682 46.6848 33.133C47.1242 32.4453 47.2239 31.7105 46.8406 30.964C46.4427 30.1876 45.8257 29.6497 44.9499 29.7138C44.4284 29.7523 43.856 29.9395 43.4239 30.2389C41.3909 31.6496 39.3953 33.1169 37.3935 34.5757C36.0129 35.581 34.4973 36.3115 32.8144 36.3992C30.5227 36.52 28.2217 36.4687 25.9249 36.4644C25.152 36.4633 24.6139 36.0184 24.3666 35.2794C24.1194 34.5404 24.3012 33.8698 24.8757 33.3469C25.3026 32.9586 25.7514 32.5961 26.196 32.2282C27.3501 31.2721 28.0056 30.0101 28.3152 28.5427C28.4928 27.7011 28.015 26.9417 27.2109 26.6904C26.6946 26.5289 26.2614 26.731 25.8303 26.9652C21.6688 29.2379 17.5093 31.5127 13.3488 33.7875C13.2148 33.8613 13.0881 33.949 12.9364 34.0442C14.477 38.2697 16.0062 42.4706 17.5426 46.6897ZM25.7555 34.7169C25.7763 34.7607 25.7971 34.8056 25.8168 34.8495C26.0028 34.8612 26.1887 34.8837 26.3747 34.8848C27.6878 34.8891 29.0008 34.8687 30.3118 34.9019C30.7897 34.9137 30.9175 34.7693 30.9164 34.2784C30.8998 28.962 30.906 23.6456 30.905 18.3292C30.905 18.1516 30.8988 17.973 30.877 17.7976C30.745 16.7078 30.0054 16.0052 28.9333 15.957C28.5884 15.9421 28.2425 15.9517 27.8976 15.9528C26.3549 15.956 25.6039 16.7185 25.5997 18.3035C25.5945 20.4371 25.5976 22.5707 25.5997 24.7044C25.5997 24.8733 25.6143 25.0423 25.6236 25.2402C25.8542 25.1856 26.0194 25.145 26.1856 25.1076C28.2851 24.6348 30.2391 26.499 29.8579 28.6721C29.7187 29.4657 29.4361 30.2464 29.1234 30.9908C28.5261 32.4111 27.3751 33.3436 26.2292 34.2688C26.062 34.4046 25.9134 34.5671 25.7555 34.7169ZM15.7963 30.5373C15.8649 30.5437 15.9054 30.5619 15.9293 30.548C17.5748 29.6561 19.2203 28.7652 20.8585 27.8583C20.9634 27.7994 21.0611 27.6155 21.0632 27.4882C21.0767 26.3695 21.0995 25.2498 21.0549 24.1333C21.0175 23.191 20.3484 22.575 19.4291 22.5526C18.8432 22.5387 18.2563 22.5472 17.6704 22.5483C16.3604 22.5515 15.7724 23.1483 15.7693 24.4905C15.7652 26.3546 15.7672 28.2187 15.7693 30.0828C15.7703 30.2357 15.788 30.3887 15.7963 30.5373Z" fill="#F1F2F4"/>
<path d="M7.81605 55.3344C6.905 55.1034 6.03446 54.7964 5.30729 54.1419C4.56868 53.4767 4.06797 52.6607 3.80826 51.6992C3.45714 50.3987 3.14757 49.0865 2.81618 47.7806C2.71334 47.3753 2.79125 47.0341 3.14341 46.8031C3.60881 46.4983 4.13965 46.7603 4.31417 47.4063C4.62789 48.5699 4.91669 49.741 5.21275 50.9089C5.76956 53.1088 7.32469 54.0767 9.47506 53.5665C10.9211 53.2243 12.3703 52.8949 13.8163 52.5537C15.8088 52.0842 17.0221 49.8789 16.322 47.9293C14.7585 43.5829 13.1681 39.2461 11.5891 34.9062C11.5589 34.8249 11.5226 34.7457 11.4696 34.6185C10.303 34.9596 9.14783 35.2987 7.99161 35.6377C7.0629 35.9093 6.13211 36.1767 5.20444 36.4537C3.10601 37.0815 2.16588 38.7884 2.7071 40.9766C2.93253 41.8888 3.16419 42.799 3.38546 43.7123C3.52985 44.3101 3.32313 44.7401 2.85254 44.8545C2.41519 44.9604 2.03914 44.6877 1.8937 44.1144C1.6101 42.9979 1.31196 41.8835 1.08238 40.7552C0.577511 38.274 2.08069 35.6826 4.711 34.9329C6.88838 34.3126 9.07511 33.7137 11.2224 32.9929C12.2103 32.6613 13.1203 32.0731 14.048 31.5672C14.1591 31.5073 14.2059 31.2346 14.2069 31.0603C14.2173 28.8368 14.2038 26.6123 14.2173 24.3889C14.2277 22.6574 15.1024 21.3269 16.6409 21.0767C17.7981 20.8884 19.0312 20.8906 20.1895 21.0788C21.7072 21.3248 22.5913 22.6552 22.6235 24.3407C22.6391 25.1567 22.6266 25.9738 22.6266 26.8925C23.0982 26.6358 23.5221 26.4465 23.895 26.1792C24.0155 26.0925 24.0363 25.8038 24.0373 25.607C24.0467 23.1696 24.0487 20.7323 24.0415 18.2949C24.0363 16.7249 24.6066 15.4961 25.9965 14.7517C27.7439 13.8149 30.5643 14.3122 31.6872 15.7367C32.2981 16.5121 32.4643 17.419 32.4643 18.3826C32.4632 23.6488 32.4643 28.9149 32.4643 34.1811C32.4643 34.3896 32.4643 34.5982 32.4643 34.7842C32.5463 34.8088 32.5619 34.8185 32.5775 34.8174C33.8698 34.7297 33.8698 34.7297 33.8698 33.4249C33.8698 25.8284 33.8719 18.2318 33.8677 10.6353C33.8667 9.36047 34.2033 8.23858 35.2234 7.44396C35.56 7.18193 35.9558 6.92633 36.3599 6.84184C37.7935 6.54238 39.2499 6.39051 40.5921 7.18621C41.5769 7.77015 42.1607 8.68563 42.2396 9.86741C42.2988 10.7529 42.2895 11.6449 42.2791 12.5336C42.2718 13.1047 41.9758 13.4095 41.5104 13.4074C41.0471 13.4053 40.7635 13.1015 40.7458 12.5261C40.725 11.8502 40.7448 11.1743 40.7365 10.4984C40.7188 9.03 39.9698 8.2589 38.557 8.25356C38.1248 8.25142 37.6917 8.23965 37.2616 8.26318C36.3568 8.31238 35.6327 8.98722 35.48 9.90698C35.4478 10.0984 35.4291 10.2952 35.4291 10.4898C35.427 18.1752 35.427 25.8615 35.4281 33.5469C35.4281 33.6356 35.4374 33.7233 35.4468 33.9062C35.7023 33.7768 35.9412 33.6934 36.1396 33.5511C37.5961 32.502 39.0536 31.4517 40.4861 30.3683C40.6471 30.2464 40.7271 29.9149 40.7281 29.6807C40.7416 25.269 40.7375 20.8564 40.7406 16.4447C40.7406 16.2148 40.7458 15.9806 40.7811 15.7538C40.8455 15.3378 41.1343 15.1293 41.5083 15.1282C41.9062 15.1271 42.1991 15.3474 42.2583 15.7891C42.2864 15.9998 42.2885 16.2148 42.2885 16.4276C42.2905 20.3954 42.2895 24.3621 42.2895 28.3299C42.2895 28.5363 42.2895 28.7427 42.2895 28.9363C42.9543 28.6743 43.5402 28.3577 44.1646 28.2123C45.8454 27.8187 47.3642 28.5727 48.1682 30.1192C48.9941 31.7073 48.8112 33.3779 47.5335 34.6088C46.4261 35.6773 45.2179 36.6355 44.0441 37.6301C42.2563 39.1445 40.4695 40.66 38.664 42.1509C37.514 43.1016 36.175 43.6588 34.7497 44.0171C29.353 45.3721 23.9573 46.7315 18.5617 48.0908C18.4131 48.1282 18.2677 48.1785 18.1628 48.2105C18.1046 48.9592 18.1285 49.695 17.9778 50.3912C17.5883 52.1847 16.4965 53.4211 14.7938 53.9227C13.006 54.4499 11.1704 54.8061 9.35663 55.2381C9.2569 55.2617 9.16133 55.3023 9.06368 55.3344C8.64503 55.3344 8.23054 55.3344 7.81605 55.3344ZM17.5426 46.6897C17.6693 46.663 17.7514 46.647 17.8324 46.6266C23.0598 45.309 28.284 43.9807 33.5145 42.6813C35.053 42.2995 36.5593 41.8674 37.8122 40.814C40.5941 38.4729 43.3709 36.1264 46.1425 33.7736C46.3523 33.595 46.5352 33.3682 46.6848 33.133C47.1242 32.4453 47.2239 31.7105 46.8406 30.964C46.4427 30.1876 45.8257 29.6497 44.9499 29.7138C44.4284 29.7523 43.856 29.9395 43.4239 30.2389C41.3909 31.6496 39.3953 33.1169 37.3935 34.5757C36.0129 35.581 34.4973 36.3115 32.8144 36.3992C30.5227 36.52 28.2217 36.4687 25.9249 36.4644C25.152 36.4633 24.6139 36.0184 24.3666 35.2794C24.1194 34.5404 24.3012 33.8698 24.8757 33.3469C25.3026 32.9586 25.7514 32.5961 26.196 32.2282C27.3501 31.2721 28.0056 30.0101 28.3152 28.5427C28.4928 27.7011 28.015 26.9417 27.2109 26.6904C26.6946 26.5289 26.2614 26.731 25.8303 26.9652C21.6688 29.2379 17.5093 31.5127 13.3488 33.7875C13.2148 33.8613 13.0881 33.949 12.9364 34.0442C14.477 38.2697 16.0062 42.4706 17.5426 46.6897ZM25.7555 34.7169C25.7763 34.7607 25.7971 34.8056 25.8168 34.8495C26.0028 34.8612 26.1887 34.8837 26.3747 34.8848C27.6878 34.8891 29.0008 34.8687 30.3118 34.9019C30.7897 34.9137 30.9175 34.7693 30.9164 34.2784C30.8998 28.962 30.906 23.6456 30.905 18.3292C30.905 18.1516 30.8988 17.973 30.877 17.7976C30.745 16.7078 30.0054 16.0052 28.9333 15.957C28.5884 15.9421 28.2425 15.9517 27.8976 15.9528C26.3549 15.956 25.6039 16.7185 25.5997 18.3035C25.5945 20.4371 25.5976 22.5707 25.5997 24.7044C25.5997 24.8733 25.6143 25.0423 25.6236 25.2402C25.8542 25.1856 26.0194 25.145 26.1856 25.1076C28.2851 24.6348 30.2391 26.499 29.8579 28.6721C29.7187 29.4657 29.4361 30.2464 29.1234 30.9908C28.5261 32.4111 27.3751 33.3436 26.2292 34.2688C26.062 34.4046 25.9134 34.5671 25.7555 34.7169ZM15.7963 30.5373C15.8649 30.5437 15.9054 30.5619 15.9293 30.548C17.5748 29.6561 19.2203 28.7652 20.8585 27.8583C20.9634 27.7994 21.0611 27.6155 21.0632 27.4882C21.0767 26.3695 21.0995 25.2498 21.0549 24.1333C21.0175 23.191 20.3484 22.575 19.4291 22.5526C18.8432 22.5387 18.2563 22.5472 17.6704 22.5483C16.3604 22.5515 15.7724 23.1483 15.7693 24.4905C15.7652 26.3546 15.7672 28.2187 15.7693 30.0828C15.7703 30.2357 15.788 30.3887 15.7963 30.5373Z" fill="url(#paint0_linear_538_854)"/>
<path d="M7.81605 55.3344C6.905 55.1034 6.03446 54.7964 5.30729 54.1419C4.56868 53.4767 4.06797 52.6607 3.80826 51.6992C3.45714 50.3987 3.14757 49.0865 2.81618 47.7806C2.71334 47.3753 2.79125 47.0341 3.14341 46.8031C3.60881 46.4983 4.13965 46.7603 4.31417 47.4063C4.62789 48.5699 4.91669 49.741 5.21275 50.9089C5.76956 53.1088 7.32469 54.0767 9.47506 53.5665C10.9211 53.2243 12.3703 52.8949 13.8163 52.5537C15.8088 52.0842 17.0221 49.8789 16.322 47.9293C14.7585 43.5829 13.1681 39.2461 11.5891 34.9062C11.5589 34.8249 11.5226 34.7457 11.4696 34.6185C10.303 34.9596 9.14783 35.2987 7.99161 35.6377C7.0629 35.9093 6.13211 36.1767 5.20444 36.4537C3.10601 37.0815 2.16588 38.7884 2.7071 40.9766C2.93253 41.8888 3.16419 42.799 3.38546 43.7123C3.52985 44.3101 3.32313 44.7401 2.85254 44.8545C2.41519 44.9604 2.03914 44.6877 1.8937 44.1144C1.6101 42.9979 1.31196 41.8835 1.08238 40.7552C0.577511 38.274 2.08069 35.6826 4.711 34.9329C6.88838 34.3126 9.07511 33.7137 11.2224 32.9929C12.2103 32.6613 13.1203 32.0731 14.048 31.5672C14.1591 31.5073 14.2059 31.2346 14.2069 31.0603C14.2173 28.8368 14.2038 26.6123 14.2173 24.3889C14.2277 22.6574 15.1024 21.3269 16.6409 21.0767C17.7981 20.8884 19.0312 20.8906 20.1895 21.0788C21.7072 21.3248 22.5913 22.6552 22.6235 24.3407C22.6391 25.1567 22.6266 25.9738 22.6266 26.8925C23.0982 26.6358 23.5221 26.4465 23.895 26.1792C24.0155 26.0925 24.0363 25.8038 24.0373 25.607C24.0467 23.1696 24.0487 20.7323 24.0415 18.2949C24.0363 16.7249 24.6066 15.4961 25.9965 14.7517C27.7439 13.8149 30.5643 14.3122 31.6872 15.7367C32.2981 16.5121 32.4643 17.419 32.4643 18.3826C32.4632 23.6488 32.4643 28.9149 32.4643 34.1811C32.4643 34.3896 32.4643 34.5982 32.4643 34.7842C32.5463 34.8088 32.5619 34.8185 32.5775 34.8174C33.8698 34.7297 33.8698 34.7297 33.8698 33.4249C33.8698 25.8284 33.8719 18.2318 33.8677 10.6353C33.8667 9.36047 34.2033 8.23858 35.2234 7.44396C35.56 7.18193 35.9558 6.92633 36.3599 6.84184C37.7935 6.54238 39.2499 6.39051 40.5921 7.18621C41.5769 7.77015 42.1607 8.68563 42.2396 9.86741C42.2988 10.7529 42.2895 11.6449 42.2791 12.5336C42.2718 13.1047 41.9758 13.4095 41.5104 13.4074C41.0471 13.4053 40.7635 13.1015 40.7458 12.5261C40.725 11.8502 40.7448 11.1743 40.7365 10.4984C40.7188 9.03 39.9698 8.2589 38.557 8.25356C38.1248 8.25142 37.6917 8.23965 37.2616 8.26318C36.3568 8.31238 35.6327 8.98722 35.48 9.90698C35.4478 10.0984 35.4291 10.2952 35.4291 10.4898C35.427 18.1752 35.427 25.8615 35.4281 33.5469C35.4281 33.6356 35.4374 33.7233 35.4468 33.9062C35.7023 33.7768 35.9412 33.6934 36.1396 33.5511C37.5961 32.502 39.0536 31.4517 40.4861 30.3683C40.6471 30.2464 40.7271 29.9149 40.7281 29.6807C40.7416 25.269 40.7375 20.8564 40.7406 16.4447C40.7406 16.2148 40.7458 15.9806 40.7811 15.7538C40.8455 15.3378 41.1343 15.1293 41.5083 15.1282C41.9062 15.1271 42.1991 15.3474 42.2583 15.7891C42.2864 15.9998 42.2885 16.2148 42.2885 16.4276C42.2905 20.3954 42.2895 24.3621 42.2895 28.3299C42.2895 28.5363 42.2895 28.7427 42.2895 28.9363C42.9543 28.6743 43.5402 28.3577 44.1646 28.2123C45.8454 27.8187 47.3642 28.5727 48.1682 30.1192C48.9941 31.7073 48.8112 33.3779 47.5335 34.6088C46.4261 35.6773 45.2179 36.6355 44.0441 37.6301C42.2563 39.1445 40.4695 40.66 38.664 42.1509C37.514 43.1016 36.175 43.6588 34.7497 44.0171C29.353 45.3721 23.9573 46.7315 18.5617 48.0908C18.4131 48.1282 18.2677 48.1785 18.1628 48.2105C18.1046 48.9592 18.1285 49.695 17.9778 50.3912C17.5883 52.1847 16.4965 53.4211 14.7938 53.9227C13.006 54.4499 11.1704 54.8061 9.35663 55.2381C9.2569 55.2617 9.16133 55.3023 9.06368 55.3344C8.64503 55.3344 8.23054 55.3344 7.81605 55.3344ZM17.5426 46.6897C17.6693 46.663 17.7514 46.647 17.8324 46.6266C23.0598 45.309 28.284 43.9807 33.5145 42.6813C35.053 42.2995 36.5593 41.8674 37.8122 40.814C40.5941 38.4729 43.3709 36.1264 46.1425 33.7736C46.3523 33.595 46.5352 33.3682 46.6848 33.133C47.1242 32.4453 47.2239 31.7105 46.8406 30.964C46.4427 30.1876 45.8257 29.6497 44.9499 29.7138C44.4284 29.7523 43.856 29.9395 43.4239 30.2389C41.3909 31.6496 39.3953 33.1169 37.3935 34.5757C36.0129 35.581 34.4973 36.3115 32.8144 36.3992C30.5227 36.52 28.2217 36.4687 25.9249 36.4644C25.152 36.4633 24.6139 36.0184 24.3666 35.2794C24.1194 34.5404 24.3012 33.8698 24.8757 33.3469C25.3026 32.9586 25.7514 32.5961 26.196 32.2282C27.3501 31.2721 28.0056 30.0101 28.3152 28.5427C28.4928 27.7011 28.015 26.9417 27.2109 26.6904C26.6946 26.5289 26.2614 26.731 25.8303 26.9652C21.6688 29.2379 17.5093 31.5127 13.3488 33.7875C13.2148 33.8613 13.0881 33.949 12.9364 34.0442C14.477 38.2697 16.0062 42.4706 17.5426 46.6897ZM25.7555 34.7169C25.7763 34.7607 25.7971 34.8056 25.8168 34.8495C26.0028 34.8612 26.1887 34.8837 26.3747 34.8848C27.6878 34.8891 29.0008 34.8687 30.3118 34.9019C30.7897 34.9137 30.9175 34.7693 30.9164 34.2784C30.8998 28.962 30.906 23.6456 30.905 18.3292C30.905 18.1516 30.8988 17.973 30.877 17.7976C30.745 16.7078 30.0054 16.0052 28.9333 15.957C28.5884 15.9421 28.2425 15.9517 27.8976 15.9528C26.3549 15.956 25.6039 16.7185 25.5997 18.3035C25.5945 20.4371 25.5976 22.5707 25.5997 24.7044C25.5997 24.8733 25.6143 25.0423 25.6236 25.2402C25.8542 25.1856 26.0194 25.145 26.1856 25.1076C28.2851 24.6348 30.2391 26.499 29.8579 28.6721C29.7187 29.4657 29.4361 30.2464 29.1234 30.9908C28.5261 32.4111 27.3751 33.3436 26.2292 34.2688C26.062 34.4046 25.9134 34.5671 25.7555 34.7169ZM15.7963 30.5373C15.8649 30.5437 15.9054 30.5619 15.9293 30.548C17.5748 29.6561 19.2203 28.7652 20.8585 27.8583C20.9634 27.7994 21.0611 27.6155 21.0632 27.4882C21.0767 26.3695 21.0995 25.2498 21.0549 24.1333C21.0175 23.191 20.3484 22.575 19.4291 22.5526C18.8432 22.5387 18.2563 22.5472 17.6704 22.5483C16.3604 22.5515 15.7724 23.1483 15.7693 24.4905C15.7652 26.3546 15.7672 28.2187 15.7693 30.0828C15.7703 30.2357 15.788 30.3887 15.7963 30.5373Z" fill="url(#paint1_linear_538_854)"/>
<path d="M15.9666 14.0442C15.8523 14.2078 15.7505 14.4025 15.6061 14.5522C12.0668 18.2291 8.52029 21.8974 4.98308 25.5764C4.25487 26.3336 3.45497 26.7892 2.38913 26.4352C0.693769 25.8716 0.124492 23.8984 1.24954 22.4813C1.35862 22.3444 1.47912 22.215 1.60066 22.0888C5.59184 17.9467 9.58301 13.8046 13.5752 9.66359C14.7595 8.43475 15.5978 8.30213 17.1 9.09997C17.7284 9.43365 18.3517 9.78016 18.9917 10.0882C19.1215 10.1502 19.3781 10.1352 19.4726 10.0433C20.9156 8.63688 22.3408 7.21126 23.7682 5.78885C23.8004 5.75676 23.8129 5.70329 23.7817 5.76532C23.1885 5.50437 22.5247 5.3525 22.0375 4.96535C21.2023 4.30334 21.1285 3.31727 21.4402 2.34297C21.7549 1.35798 22.4759 0.73554 23.4763 0.709872C25.7035 0.65212 27.9339 0.648912 30.1611 0.708803C31.4025 0.741957 32.2523 1.68631 32.271 2.96755C32.3053 5.20812 32.3032 7.44976 32.2741 9.69139C32.2575 10.9373 31.3547 11.8796 30.1341 12.0346C28.9571 12.1833 28.0513 11.548 27.6991 10.2967C27.5869 9.89567 27.5381 9.47643 27.4519 9.01976C27.3002 9.15879 27.16 9.27964 27.028 9.41012C25.2225 11.1983 23.4191 12.9886 21.6126 14.7757C20.5187 15.857 19.6233 15.9907 18.2842 15.2805C17.5508 14.8912 16.8184 14.4987 15.9666 14.0442ZM30.7335 6.3407C30.7325 6.3407 30.7325 6.3407 30.7314 6.3407C30.7314 5.27336 30.7408 4.20708 30.7283 3.13974C30.7211 2.54297 30.48 2.28843 29.9035 2.28629C27.8653 2.2756 25.8271 2.2756 23.789 2.28629C23.2197 2.2895 22.8571 2.64457 22.8571 3.14295C22.8571 3.64347 23.2155 3.98356 23.7879 3.99533C24.4091 4.00816 25.0314 4.00388 25.6537 3.99746C26.0578 3.99319 26.4141 4.07019 26.5979 4.49691C26.7849 4.93326 26.5772 5.24341 26.2863 5.5311C24.2201 7.57702 22.1518 9.62295 20.0918 11.6764C19.7136 12.0539 19.3293 12.0988 18.8722 11.8496C18.0037 11.3748 17.127 10.916 16.2523 10.4539C15.4846 10.0486 15.3828 10.0668 14.7719 10.6999C10.7683 14.8517 6.76467 19.0045 2.76103 23.1573C2.65196 23.2706 2.53665 23.3808 2.44315 23.507C2.1367 23.9198 2.16059 24.3807 2.49509 24.7101C2.81401 25.0235 3.29291 25.0085 3.65754 24.6695C3.78532 24.5508 3.9027 24.4192 4.02425 24.293C7.72351 20.4557 11.4228 16.6184 15.1231 12.7833C15.6612 12.2261 15.8689 12.1918 16.5338 12.5426C17.3472 12.9715 18.1585 13.4057 18.9709 13.8367C19.7604 14.2549 19.9141 14.2335 20.5603 13.5939C22.8883 11.2892 25.2163 8.9834 27.5422 6.67545C27.8414 6.3792 28.1458 6.1236 28.5925 6.33001C29.0309 6.53321 29.0756 6.93106 29.0693 7.35992C29.061 8.03583 29.0631 8.71175 29.0683 9.38766C29.0735 10.0572 29.3882 10.4518 29.9025 10.4497C30.4156 10.4475 30.7273 10.0539 30.7314 9.38124C30.7377 8.36737 30.7335 7.35457 30.7335 6.3407Z" fill="#F1F2F4"/>
<path d="M15.9666 14.0442C15.8523 14.2078 15.7505 14.4025 15.6061 14.5522C12.0668 18.2291 8.52029 21.8974 4.98308 25.5764C4.25487 26.3336 3.45497 26.7892 2.38913 26.4352C0.693769 25.8716 0.124492 23.8984 1.24954 22.4813C1.35862 22.3444 1.47912 22.215 1.60066 22.0888C5.59184 17.9467 9.58301 13.8046 13.5752 9.66359C14.7595 8.43475 15.5978 8.30213 17.1 9.09997C17.7284 9.43365 18.3517 9.78016 18.9917 10.0882C19.1215 10.1502 19.3781 10.1352 19.4726 10.0433C20.9156 8.63688 22.3408 7.21126 23.7682 5.78885C23.8004 5.75676 23.8129 5.70329 23.7817 5.76532C23.1885 5.50437 22.5247 5.3525 22.0375 4.96535C21.2023 4.30334 21.1285 3.31727 21.4402 2.34297C21.7549 1.35798 22.4759 0.73554 23.4763 0.709872C25.7035 0.65212 27.9339 0.648912 30.1611 0.708803C31.4025 0.741957 32.2523 1.68631 32.271 2.96755C32.3053 5.20812 32.3032 7.44976 32.2741 9.69139C32.2575 10.9373 31.3547 11.8796 30.1341 12.0346C28.9571 12.1833 28.0513 11.548 27.6991 10.2967C27.5869 9.89567 27.5381 9.47643 27.4519 9.01976C27.3002 9.15879 27.16 9.27964 27.028 9.41012C25.2225 11.1983 23.4191 12.9886 21.6126 14.7757C20.5187 15.857 19.6233 15.9907 18.2842 15.2805C17.5508 14.8912 16.8184 14.4987 15.9666 14.0442ZM30.7335 6.3407C30.7325 6.3407 30.7325 6.3407 30.7314 6.3407C30.7314 5.27336 30.7408 4.20708 30.7283 3.13974C30.7211 2.54297 30.48 2.28843 29.9035 2.28629C27.8653 2.2756 25.8271 2.2756 23.789 2.28629C23.2197 2.2895 22.8571 2.64457 22.8571 3.14295C22.8571 3.64347 23.2155 3.98356 23.7879 3.99533C24.4091 4.00816 25.0314 4.00388 25.6537 3.99746C26.0578 3.99319 26.4141 4.07019 26.5979 4.49691C26.7849 4.93326 26.5772 5.24341 26.2863 5.5311C24.2201 7.57702 22.1518 9.62295 20.0918 11.6764C19.7136 12.0539 19.3293 12.0988 18.8722 11.8496C18.0037 11.3748 17.127 10.916 16.2523 10.4539C15.4846 10.0486 15.3828 10.0668 14.7719 10.6999C10.7683 14.8517 6.76467 19.0045 2.76103 23.1573C2.65196 23.2706 2.53665 23.3808 2.44315 23.507C2.1367 23.9198 2.16059 24.3807 2.49509 24.7101C2.81401 25.0235 3.29291 25.0085 3.65754 24.6695C3.78532 24.5508 3.9027 24.4192 4.02425 24.293C7.72351 20.4557 11.4228 16.6184 15.1231 12.7833C15.6612 12.2261 15.8689 12.1918 16.5338 12.5426C17.3472 12.9715 18.1585 13.4057 18.9709 13.8367C19.7604 14.2549 19.9141 14.2335 20.5603 13.5939C22.8883 11.2892 25.2163 8.9834 27.5422 6.67545C27.8414 6.3792 28.1458 6.1236 28.5925 6.33001C29.0309 6.53321 29.0756 6.93106 29.0693 7.35992C29.061 8.03583 29.0631 8.71175 29.0683 9.38766C29.0735 10.0572 29.3882 10.4518 29.9025 10.4497C30.4156 10.4475 30.7273 10.0539 30.7314 9.38124C30.7377 8.36737 30.7335 7.35457 30.7335 6.3407Z" fill="url(#paint2_linear_538_854)"/>
<path d="M15.9666 14.0442C15.8523 14.2078 15.7505 14.4025 15.6061 14.5522C12.0668 18.2291 8.52029 21.8974 4.98308 25.5764C4.25487 26.3336 3.45497 26.7892 2.38913 26.4352C0.693769 25.8716 0.124492 23.8984 1.24954 22.4813C1.35862 22.3444 1.47912 22.215 1.60066 22.0888C5.59184 17.9467 9.58301 13.8046 13.5752 9.66359C14.7595 8.43475 15.5978 8.30213 17.1 9.09997C17.7284 9.43365 18.3517 9.78016 18.9917 10.0882C19.1215 10.1502 19.3781 10.1352 19.4726 10.0433C20.9156 8.63688 22.3408 7.21126 23.7682 5.78885C23.8004 5.75676 23.8129 5.70329 23.7817 5.76532C23.1885 5.50437 22.5247 5.3525 22.0375 4.96535C21.2023 4.30334 21.1285 3.31727 21.4402 2.34297C21.7549 1.35798 22.4759 0.73554 23.4763 0.709872C25.7035 0.65212 27.9339 0.648912 30.1611 0.708803C31.4025 0.741957 32.2523 1.68631 32.271 2.96755C32.3053 5.20812 32.3032 7.44976 32.2741 9.69139C32.2575 10.9373 31.3547 11.8796 30.1341 12.0346C28.9571 12.1833 28.0513 11.548 27.6991 10.2967C27.5869 9.89567 27.5381 9.47643 27.4519 9.01976C27.3002 9.15879 27.16 9.27964 27.028 9.41012C25.2225 11.1983 23.4191 12.9886 21.6126 14.7757C20.5187 15.857 19.6233 15.9907 18.2842 15.2805C17.5508 14.8912 16.8184 14.4987 15.9666 14.0442ZM30.7335 6.3407C30.7325 6.3407 30.7325 6.3407 30.7314 6.3407C30.7314 5.27336 30.7408 4.20708 30.7283 3.13974C30.7211 2.54297 30.48 2.28843 29.9035 2.28629C27.8653 2.2756 25.8271 2.2756 23.789 2.28629C23.2197 2.2895 22.8571 2.64457 22.8571 3.14295C22.8571 3.64347 23.2155 3.98356 23.7879 3.99533C24.4091 4.00816 25.0314 4.00388 25.6537 3.99746C26.0578 3.99319 26.4141 4.07019 26.5979 4.49691C26.7849 4.93326 26.5772 5.24341 26.2863 5.5311C24.2201 7.57702 22.1518 9.62295 20.0918 11.6764C19.7136 12.0539 19.3293 12.0988 18.8722 11.8496C18.0037 11.3748 17.127 10.916 16.2523 10.4539C15.4846 10.0486 15.3828 10.0668 14.7719 10.6999C10.7683 14.8517 6.76467 19.0045 2.76103 23.1573C2.65196 23.2706 2.53665 23.3808 2.44315 23.507C2.1367 23.9198 2.16059 24.3807 2.49509 24.7101C2.81401 25.0235 3.29291 25.0085 3.65754 24.6695C3.78532 24.5508 3.9027 24.4192 4.02425 24.293C7.72351 20.4557 11.4228 16.6184 15.1231 12.7833C15.6612 12.2261 15.8689 12.1918 16.5338 12.5426C17.3472 12.9715 18.1585 13.4057 18.9709 13.8367C19.7604 14.2549 19.9141 14.2335 20.5603 13.5939C22.8883 11.2892 25.2163 8.9834 27.5422 6.67545C27.8414 6.3792 28.1458 6.1236 28.5925 6.33001C29.0309 6.53321 29.0756 6.93106 29.0693 7.35992C29.061 8.03583 29.0631 8.71175 29.0683 9.38766C29.0735 10.0572 29.3882 10.4518 29.9025 10.4497C30.4156 10.4475 30.7273 10.0539 30.7314 9.38124C30.7377 8.36737 30.7335 7.35457 30.7335 6.3407Z" fill="url(#paint3_linear_538_854)"/>
<path d="M10.3215 51.7237C8.62613 51.7119 7.27566 50.2992 7.28916 48.5516C7.30267 46.8458 8.67703 45.4383 10.336 45.4309C11.9992 45.4234 13.4099 46.8779 13.4047 48.5933C13.3985 50.3248 12.0096 51.7355 10.3215 51.7237ZM10.3527 50.1238C11.1868 50.1184 11.8641 49.4115 11.8506 48.5623C11.8371 47.7367 11.1629 47.0447 10.361 47.0308C9.53822 47.018 8.84844 47.7238 8.84532 48.5794C8.84324 49.4436 9.51121 50.1291 10.3527 50.1238Z" fill="#F1F2F4"/>
<path d="M10.3215 51.7237C8.62613 51.7119 7.27566 50.2992 7.28916 48.5516C7.30267 46.8458 8.67703 45.4383 10.336 45.4309C11.9992 45.4234 13.4099 46.8779 13.4047 48.5933C13.3985 50.3248 12.0096 51.7355 10.3215 51.7237ZM10.3527 50.1238C11.1868 50.1184 11.8641 49.4115 11.8506 48.5623C11.8371 47.7367 11.1629 47.0447 10.361 47.0308C9.53822 47.018 8.84844 47.7238 8.84532 48.5794C8.84324 49.4436 9.51121 50.1291 10.3527 50.1238Z" fill="url(#paint4_linear_538_854)"/>
<path d="M10.3215 51.7237C8.62613 51.7119 7.27566 50.2992 7.28916 48.5516C7.30267 46.8458 8.67703 45.4383 10.336 45.4309C11.9992 45.4234 13.4099 46.8779 13.4047 48.5933C13.3985 50.3248 12.0096 51.7355 10.3215 51.7237ZM10.3527 50.1238C11.1868 50.1184 11.8641 49.4115 11.8506 48.5623C11.8371 47.7367 11.1629 47.0447 10.361 47.0308C9.53822 47.018 8.84844 47.7238 8.84532 48.5794C8.84324 49.4436 9.51121 50.1291 10.3527 50.1238Z" fill="url(#paint5_linear_538_854)"/>
<defs>
<linearGradient id="paint0_linear_538_854" x1="5.49801" y1="31.0811" x2="40.6967" y2="31.0811" gradientUnits="userSpaceOnUse">
<stop stop-color="#FF1C54"/>
<stop offset="1" stop-color="#FF4444"/>
</linearGradient>
<linearGradient id="paint1_linear_538_854" x1="14.5984" y1="30.9672" x2="40.2479" y2="30.9672" gradientUnits="userSpaceOnUse">
<stop stop-color="#1882DB"/>
<stop offset="1" stop-color="#0197D5"/>
</linearGradient>
<linearGradient id="paint2_linear_538_854" x1="3.65983" y1="13.6717" x2="27.0078" y2="13.6717" gradientUnits="userSpaceOnUse">
<stop stop-color="#FF1C54"/>
<stop offset="1" stop-color="#FF4444"/>
</linearGradient>
<linearGradient id="paint3_linear_538_854" x1="9.6963" y1="13.6112" x2="26.7101" y2="13.6112" gradientUnits="userSpaceOnUse">
<stop stop-color="#1882DB"/>
<stop offset="1" stop-color="#0197D5"/>
</linearGradient>
<linearGradient id="paint4_linear_538_854" x1="7.86783" y1="48.592" x2="12.3822" y2="48.592" gradientUnits="userSpaceOnUse">
<stop stop-color="#FF1C54"/>
<stop offset="1" stop-color="#FF4444"/>
</linearGradient>
<linearGradient id="paint5_linear_538_854" x1="9.03499" y1="48.5773" x2="12.3246" y2="48.5773" gradientUnits="userSpaceOnUse">
<stop stop-color="#1882DB"/>
<stop offset="1" stop-color="#0197D5"/>
</linearGradient>
</defs>
</svg>
