<svg width="65" height="62" viewBox="0 0 65 62" fill="none" xmlns="http://www.w3.org/2000/svg">
<path d="M0.35083 32.7673C0.714267 32.0375 1.31323 31.8049 2.09002 31.8539C2.74982 31.8951 3.41586 31.8476 4.07722 31.8713C4.83685 31.8983 5.32663 32.37 5.35783 33.0569C5.38903 33.755 4.96008 34.3074 4.20669 34.3613C3.32071 34.4246 2.42694 34.4008 1.53941 34.3692C0.93264 34.3486 0.583242 33.9307 0.35083 33.4004C0.35083 33.1883 0.35083 32.9778 0.35083 32.7673Z" fill="#FF1C54"/>
<path d="M32.3534 19.0854C37.3027 19.0854 42.252 19.1028 47.2013 19.0743C48.5817 19.0664 49.5753 19.603 50.3162 20.7807C52.4766 24.2093 54.6728 27.6157 56.8503 31.0332C57.8111 32.5401 57.7316 33.7906 56.5617 35.1234C49.2758 43.4306 41.9868 51.7361 34.6916 60.0337C33.216 61.7132 31.3785 61.7195 29.9123 60.0511C22.6171 51.7519 15.3296 43.4464 8.04373 35.1393C6.86919 33.8001 6.77872 32.5401 7.73177 31.0506C9.92486 27.6189 12.1382 24.1982 14.3157 20.7554C15.0473 19.5998 16.0253 19.0696 17.3808 19.0759C22.3706 19.1012 27.362 19.0854 32.3534 19.0854ZM29.8125 56.1303C29.8172 56.1192 29.8218 56.1097 29.8265 56.0986C29.814 56.1081 29.8016 56.116 29.7875 56.1255C29.7501 55.9007 29.7376 55.6665 29.6705 55.4496C27.5929 48.5845 25.509 41.721 23.425 34.8575C23.3782 34.704 23.3112 34.5552 23.2628 34.427C19.1028 34.427 14.9958 34.427 10.7625 34.427C11.2413 34.9746 11.6469 35.44 12.054 35.9038C17.9766 42.6486 23.8945 49.3902 29.8125 56.1303ZM34.7774 56.1239C41.04 48.9913 47.3042 41.8571 53.5669 34.723C53.6293 34.6517 53.6792 34.5694 53.7806 34.4285C49.5706 34.4285 45.4465 34.4285 41.3067 34.4285C41.2459 34.6201 41.1866 34.7989 41.132 34.9794C39.098 41.6799 37.0625 48.3787 35.0316 55.0808C34.9302 55.4179 34.8787 55.7709 34.8054 56.1128C34.793 56.1081 34.7805 56.1034 34.768 56.1002C34.7774 56.0986 34.7883 56.0954 34.7976 56.0939C34.7914 56.1018 34.7852 56.1128 34.7774 56.1239ZM25.9051 34.4301C28.0265 41.4155 30.1276 48.3313 32.2271 55.247C32.2754 55.2391 32.3238 55.2312 32.3721 55.2233C34.4716 48.3091 36.5696 41.3949 38.6831 34.4317C34.4124 34.4301 30.2024 34.4301 25.9051 34.4301ZM21.9339 31.8373C19.9529 28.7316 18.0437 25.7368 16.0814 22.6596C14.0974 25.7605 12.1726 28.7649 10.2056 31.8373C14.1629 31.8373 17.9813 31.8373 21.9339 31.8373ZM48.5365 22.6643C46.568 25.7542 44.6541 28.7601 42.7059 31.8183C46.6538 31.8183 50.4628 31.8183 54.3748 31.8183C52.4142 28.7427 50.5034 25.7463 48.5365 22.6643ZM34.5637 21.6513C36.5181 24.7174 38.4273 27.7107 40.388 30.7847C42.3471 27.7091 44.2563 24.7126 46.2077 21.6513C42.2863 21.6513 38.4757 21.6513 34.5637 21.6513ZM24.2205 30.7625C26.1734 27.6964 28.0811 24.7 30.0075 21.675C26.1001 21.675 22.2942 21.675 18.4243 21.675C20.3741 24.7316 22.2801 27.7186 24.2205 30.7625ZM32.2957 22.7593C30.3428 25.8238 28.4492 28.795 26.5275 31.8088C30.4208 31.8088 34.2033 31.8088 38.067 31.8088C36.1297 28.7728 34.2408 25.8112 32.2957 22.7593Z" fill="#FF1C54"/>
<path d="M33.5643 6.08399C33.5643 7.39147 33.5721 8.69896 33.5611 10.0049C33.5533 10.896 33.0776 11.4627 32.3538 11.4801C31.641 11.4991 31.0826 10.9229 31.0763 10.0603C31.0576 7.40414 31.0576 4.74801 31.0779 2.09031C31.0841 1.32576 31.5178 0.830311 32.1433 0.735336C32.6986 0.651442 33.2523 0.945863 33.4473 1.48247C33.5377 1.73099 33.5565 2.01749 33.558 2.28659C33.5705 3.5545 33.5643 4.81924 33.5643 6.08399Z" fill="#FF1C54"/>
<path d="M53.8779 9.84375C54.9526 9.86908 55.5313 10.8552 55.1024 11.6704C55.0057 11.854 54.87 12.0218 54.7249 12.1706C53.4646 13.4575 52.1996 14.7397 50.9346 16.0218C50.5664 16.3954 50.15 16.6566 49.5978 16.5236C48.6853 16.3052 48.2969 15.2035 48.9676 14.4817C50.334 13.008 51.7675 11.596 53.1963 10.1825C53.4038 9.9783 53.7391 9.91023 53.8779 9.84375Z" fill="#FF1C54"/>
<path d="M10.5377 9.66113C10.987 9.92548 11.3535 10.0537 11.6046 10.3006C12.932 11.6081 14.2376 12.9378 15.5354 14.2769C16.1141 14.8737 16.1499 15.624 15.6695 16.1416C15.1548 16.6972 14.417 16.6908 13.7899 16.0672C12.4547 14.7391 11.1383 13.3889 9.82021 12.0418C9.4209 11.6334 9.22748 11.1 9.51449 10.6045C9.72818 10.2341 10.1634 9.99354 10.5377 9.66113Z" fill="#FF1C54"/>
<path d="M61.8028 31.8746C62.2177 31.8746 62.6326 31.8509 63.0459 31.881C63.7073 31.9284 64.183 32.416 64.2283 33.0444C64.272 33.6554 63.8508 34.2759 63.1941 34.3234C62.2083 34.3946 61.2085 34.3978 60.2258 34.3123C59.5442 34.2537 59.1901 33.6807 59.24 33.0112C59.2868 32.397 59.7282 31.9332 60.3755 31.8841C60.8497 31.8477 61.3286 31.8778 61.8043 31.8778C61.8028 31.8762 61.8028 31.8746 61.8028 31.8746Z" fill="#FF1C54"/>
<path d="M32.3541 13.2581C33.0298 13.2723 33.5667 13.8424 33.5542 14.5329C33.5417 15.2091 32.9596 15.7808 32.3026 15.7634C31.6472 15.7444 31.0714 15.1363 31.087 14.4806C31.1026 13.8139 31.694 13.2438 32.3541 13.2581Z" fill="#FF1C54"/>
</svg>
