<svg width="52" height="57" viewBox="0 0 52 57" fill="none" xmlns="http://www.w3.org/2000/svg">
<path d="M51.1575 0.666809C51.4927 0.958476 51.8049 1.26035 51.6049 1.77368C51.4078 2.27827 50.9891 2.31181 50.5359 2.31035C47.4612 2.30452 44.3851 2.30743 41.3104 2.30743C40.6414 2.30743 40.6083 2.33952 40.6083 3.01473C40.6069 6.55118 40.6069 10.0876 40.6083 13.6241C40.6083 14.2789 40.6558 14.3241 41.3277 14.3241C44.3664 14.3256 47.4066 14.3241 50.4453 14.3256C50.6251 14.3256 50.8524 14.2628 50.9747 14.3503C51.2323 14.5326 51.5819 14.7733 51.6164 15.0285C51.651 15.2837 51.392 15.6293 51.1776 15.8539C51.0596 15.9778 50.7719 15.9618 50.5604 15.9618C47.431 15.9676 44.3017 15.9676 41.1723 15.9647C40.0328 15.9633 39.4616 15.5462 39.0487 14.4772C38.9998 14.3503 38.8113 14.1987 38.6832 14.1958C37.5869 14.1739 36.4891 14.1695 35.3927 14.1972C35.2129 14.2016 34.9985 14.3533 34.8661 14.4991C34.023 15.4222 33.1914 16.3556 32.3698 17.2976C31.7857 17.967 31.0778 18.3024 30.1872 18.2893C28.8405 18.2703 27.4953 18.2849 26.0147 18.2849C26.3385 18.6801 26.596 18.9922 26.8521 19.3058C27.7111 20.3572 27.6147 21.4276 26.5802 22.3158C26.2378 22.6089 25.8939 22.8991 25.4177 23.3045C26.1083 23.3045 26.6507 23.3045 27.1931 23.3045C27.4089 23.3045 27.6262 23.2899 27.8406 23.3103C28.2938 23.3541 28.5671 23.6078 28.6046 24.076C28.6405 24.5178 28.3341 24.8751 27.8751 24.9335C27.6981 24.9568 27.5154 24.9437 27.3355 24.9437C20.4121 24.9437 13.4873 24.9437 6.56386 24.9437C6.34948 24.9437 6.1351 24.9437 5.88044 24.9437C5.88044 26.071 5.88044 27.1691 5.88044 28.2993C15.9217 28.2993 25.9471 28.2993 36.0056 28.2993C36.0056 27.1968 36.0056 26.1118 36.0056 24.9437C35.8186 24.9437 35.6301 24.9437 35.4402 24.9437C34.2172 24.9437 32.9943 24.9481 31.7713 24.9422C31.1498 24.9393 30.7714 24.6141 30.7757 24.1124C30.78 23.6122 31.1555 23.306 31.7871 23.3045C33.2432 23.3001 34.7007 23.2987 36.1567 23.306C37.1164 23.3103 37.6473 23.8543 37.6559 24.8401C37.6646 26.0243 37.6631 27.2099 37.6559 28.3941C37.6502 29.4281 37.1135 29.9618 36.0776 29.9691C35.0546 29.9764 34.0316 29.9706 32.9324 29.9706C32.9324 30.4912 32.9051 30.9783 32.9482 31.4595C32.9626 31.6243 33.1295 31.8008 33.2676 31.9262C34.4892 33.0301 35.7064 34.1399 36.9524 35.2147C37.5768 35.7528 37.853 36.3916 37.8516 37.2185C37.8387 42.5953 37.8473 47.9737 37.843 53.3506C37.8415 55.4476 36.6243 56.6668 34.5467 56.6668C25.4651 56.6668 16.3821 56.6683 7.30051 56.6668C5.26464 56.6668 4.04311 55.4374 4.0388 53.371C4.03304 51.0376 4.03592 48.7043 4.04023 46.371C4.04023 46.1726 4.0057 45.9101 4.11217 45.7891C4.31936 45.5543 4.59704 45.2831 4.87904 45.2378C5.25457 45.1766 5.55527 45.4522 5.62721 45.8693C5.66174 46.0647 5.65455 46.2689 5.65455 46.4687C5.65599 48.7291 5.65455 50.9895 5.65599 53.2499C5.65743 54.5566 6.12215 55.0247 7.4113 55.0247C9.56947 55.0247 11.7276 55.0247 13.8858 55.0247C14.0613 55.0247 14.2354 55.0247 14.529 55.0247C14.3347 54.8074 14.2153 54.6645 14.0844 54.5318C12.1017 52.5193 10.1162 50.5097 8.13357 48.4987C7.07606 47.4253 7.07319 46.3914 8.12494 45.3253C9.29467 44.1397 10.4658 42.9556 11.6571 41.7495C11.1809 40.9693 10.8802 40.1526 10.8903 39.2295C10.9234 36.0489 14.2743 34.0364 17.0252 35.572C17.3892 35.7747 17.5835 35.7616 17.877 35.4553C19.1935 34.0831 20.5387 32.7399 21.8754 31.3881C22.8811 30.3716 23.9127 30.3745 24.927 31.3997C27.3715 33.8716 29.8117 36.3478 32.2519 38.8241C33.2849 39.8726 33.2892 40.9168 32.2634 41.9581C30.3196 43.9312 28.3743 45.9043 26.4234 47.8716C26.2852 48.0116 26.1068 48.1108 25.8378 48.3106C27.3499 48.8487 28.3326 49.7266 28.7887 51.1105C29.2391 52.477 29.0002 53.7633 28.1528 55.0247C28.7412 55.0247 29.2362 55.0247 29.7326 55.0247C31.3512 55.0247 32.9698 55.0262 34.5884 55.0247C35.7035 55.0233 36.22 54.5201 36.2215 53.4001C36.2272 48.0043 36.2287 42.6085 36.2085 37.2126C36.2071 36.9501 36.0359 36.6191 35.8387 36.4368C34.6043 35.2935 33.3568 34.1633 32.0792 33.071C31.5181 32.5912 31.2577 32.0443 31.308 31.3122C31.3368 30.8966 31.3138 30.4766 31.3138 30.0143C24.4119 30.0143 17.5346 30.0143 10.5665 30.0143C10.5665 30.4941 10.5536 30.9958 10.5694 31.496C10.5896 32.1056 10.3651 32.5766 9.90759 32.9762C8.61412 34.1078 7.34655 35.2687 6.05165 36.3989C5.76677 36.6483 5.6416 36.9049 5.64592 37.2885C5.66318 38.8562 5.65023 40.4239 5.65455 41.9916C5.65599 42.3999 5.58117 42.7601 5.17399 42.9453C4.66035 43.1801 4.06613 42.8403 4.0575 42.2293C4.0316 40.3714 4.0129 38.5106 4.09635 36.6556C4.11649 36.2122 4.46036 35.6974 4.79991 35.3708C5.94662 34.2683 7.14513 33.2168 8.35514 32.1828C8.78965 31.8124 9.04576 31.4318 8.95367 30.8397C8.91339 30.5772 8.94648 30.3031 8.94648 29.9706C7.92782 29.9706 6.9624 29.972 5.99698 29.9706C4.68769 29.9691 4.22008 29.4922 4.22008 28.1564C4.22008 27.0626 4.21577 25.9689 4.22152 24.8751C4.22728 23.8295 4.75099 23.3074 5.79123 23.3045C7.42713 23.3001 9.06446 23.3016 10.7004 23.2987C10.7334 23.2987 10.7651 23.2797 10.8816 23.2433C10.6874 23.0041 10.5148 22.7853 10.3363 22.571C7.43576 19.0666 4.53374 15.5622 1.63171 12.0578C1.58567 12.0024 1.53963 11.9456 1.49503 11.8887C0.75118 10.9437 0.836068 9.85868 1.74538 9.08139C4.4877 6.7466 7.22857 4.41618 9.97521 2.09014C10.932 1.27931 12.0025 1.38577 12.8211 2.35702C13.3348 2.9666 13.8239 3.59806 14.3577 4.19014C14.4786 4.32431 14.7592 4.42493 14.9304 4.3841C17.4324 3.80223 19.9316 3.20139 22.4235 2.57868C22.6998 2.51014 22.9789 2.31618 23.1818 2.10618C24.1285 1.13202 25.2177 0.881184 26.5341 1.16556C28.6765 1.62785 30.839 1.99535 32.9957 2.38618C33.3281 2.44598 33.6763 2.43285 34.0173 2.43431C35.528 2.43868 37.0387 2.44306 38.5494 2.42702C38.7134 2.42556 38.9954 2.32785 39.0185 2.22577C39.2098 1.41056 39.7709 0.977434 40.4716 0.666809C44.0355 0.666809 47.5965 0.666809 51.1575 0.666809ZM10.2543 16.1908C11.414 17.5878 12.8369 17.6987 14.1074 16.5349C16.6555 14.2016 19.2036 11.8712 21.7372 9.52181C22.2768 9.0216 22.8537 8.78535 23.5904 8.84077C25.0062 8.94868 26.4248 9.0216 27.8434 9.07118C28.0923 9.07993 28.3945 8.95597 28.5902 8.79264C29.0822 8.38139 29.5167 8.31139 29.8721 8.67452C30.2304 9.04202 30.1887 9.50285 29.7369 9.96514C28.8894 10.8328 28.0132 11.6714 27.1902 12.5624C26.5672 13.2362 25.8478 13.5308 24.94 13.5089C23.3947 13.4724 21.848 13.4928 20.3028 13.5016C19.5733 13.506 19.2956 13.7933 19.2755 14.5297C19.2669 14.8753 19.2683 15.2224 19.2741 15.5681C19.2884 16.376 19.5532 16.6414 20.3531 16.6428C23.6062 16.6443 26.8608 16.6385 30.1138 16.6501C30.5642 16.6516 30.9008 16.5101 31.1987 16.1689C32.1137 15.1174 33.0576 14.0893 33.9683 13.0335C34.2647 12.6893 34.5942 12.5274 35.0445 12.5347C36.0143 12.5522 36.9855 12.5406 37.9566 12.5391C38.289 12.5391 38.6213 12.5391 38.9451 12.5391C38.9451 9.6691 38.9451 6.89389 38.9451 4.07493C37.161 4.07493 35.4201 4.07931 33.6791 4.07202C33.3583 4.07056 33.0317 4.04868 32.7152 3.99035C30.4534 3.57764 28.1916 3.16785 25.9356 2.72452C25.3213 2.60348 24.868 2.77848 24.422 3.18973C20.8294 6.49722 17.2267 9.7916 13.6268 13.0918C12.5075 14.1185 11.3924 15.1437 10.2543 16.1908ZM11.4543 49.4568C12.4701 50.4849 13.4599 51.4868 14.4685 52.5091C16.1519 51.1426 17.9274 51.0756 19.8553 52.3866C20.297 51.7522 20.7646 51.1645 21.1416 50.5228C21.5574 49.817 22.0336 49.1491 22.7689 48.8268C23.5962 48.4637 24.1745 47.8439 24.7817 47.2314C25.6853 46.3185 26.5831 45.3983 27.4924 44.4912C27.9125 44.0712 28.3542 43.6731 28.7801 43.2706C27.4981 41.3368 27.5945 39.5401 28.9081 37.8689C27.8866 36.8291 26.8996 35.8258 25.8982 34.8049C24.2148 36.1656 22.4408 36.2283 20.7301 35.0601C20.0208 35.7806 19.3532 36.4572 18.736 37.0828C18.8913 37.7318 19.1546 38.3924 19.1906 39.0647C19.3618 42.2658 16.0929 44.4328 13.2225 43.0635C13.0743 42.992 12.8197 42.9424 12.7146 43.0212C12.3032 43.3318 11.9305 43.6964 11.5737 44.0143C12.8513 46.0297 12.7909 47.5187 11.4543 49.4568ZM17.5979 15.5491C16.7504 16.3249 15.985 17.0366 15.2095 17.7366C13.247 19.507 10.8615 19.367 9.11338 17.3837C8.36377 16.5335 8.40406 15.676 9.23999 14.9016C10.1033 14.1024 10.9737 13.3135 11.8399 12.5187C13.211 11.2616 14.5822 10.0031 15.9792 8.72118C15.2469 7.83743 14.5361 6.97993 13.8355 6.13264C11.8744 7.22931 10.1349 6.97118 8.54218 5.44577C7.44439 6.38056 6.36243 7.30223 5.28478 8.21952C6.51926 10.1008 6.42142 11.8785 5.05889 13.5993C5.10493 13.6708 5.13803 13.7335 5.18263 13.7874C7.73503 16.8718 10.286 19.9576 12.8513 23.0303C12.9779 23.182 13.2412 23.2899 13.4412 23.2914C16.4785 23.3074 19.5172 23.3045 22.5545 23.2972C22.7458 23.2972 22.9358 23.2141 23.2048 23.1514C22.0883 21.5428 22.0365 19.9591 22.9142 18.2835C21.907 18.2835 20.9776 18.2951 20.0467 18.2806C18.9575 18.2631 18.0209 17.5222 17.7446 16.4722C17.6756 16.2126 17.6583 15.9385 17.5979 15.5491ZM24.8882 49.8783C23.4724 49.8637 22.3415 50.972 22.32 52.3953C22.2969 53.8464 23.4221 55.0189 24.8393 55.0247C26.2262 55.0291 27.3816 53.877 27.3989 52.4726C27.4161 51.0697 26.278 49.8928 24.8882 49.8783ZM12.5161 39.2543C12.5118 40.682 13.6211 41.821 15.0268 41.8341C16.4253 41.8472 17.5749 40.7112 17.5936 39.301C17.6123 37.8747 16.4483 36.6789 15.0455 36.6818C13.6571 36.6847 12.519 37.8412 12.5161 39.2543ZM26.6953 10.6564C25.5184 10.5922 24.4479 10.5324 23.3775 10.4814C23.2609 10.4756 23.1098 10.4974 23.0264 10.5689C22.5861 10.951 22.1631 11.352 21.6135 11.8581C22.7113 11.8581 23.6465 11.7778 24.5616 11.8799C25.5702 11.9937 26.104 11.4235 26.6953 10.6564ZM20.2553 4.80118C18.6784 5.18473 17.2612 5.53035 15.7534 5.89639C16.2641 6.51181 16.7159 7.05577 17.1849 7.62014C18.205 6.68389 19.1705 5.79868 20.2553 4.80118ZM21.8063 33.7374C22.7991 34.4608 24.1012 34.3441 24.7515 33.4837C24.4062 33.1526 24.0451 32.8245 23.7069 32.4745C23.4739 32.2339 23.294 32.2645 23.0753 32.4906C22.6725 32.9047 22.2523 33.2999 21.8063 33.7374ZM30.1872 39.0049C29.3441 39.8726 29.2678 41.1851 29.9829 41.9756C30.4002 41.5483 30.8332 41.137 31.2188 40.6835C31.3138 40.5726 31.3296 40.2576 31.2433 40.1483C30.9224 39.7414 30.544 39.3812 30.1872 39.0049ZM10.4054 45.2743C9.96802 45.7395 9.54789 46.1624 9.16086 46.6131C9.06878 46.721 8.9954 46.9951 9.05727 47.0666C9.42416 47.4968 9.83421 47.8906 10.2328 48.3003C11.0183 47.3378 11.0845 46.3039 10.4054 45.2743ZM15.5965 53.7706C15.9807 54.1483 16.3246 54.5245 16.713 54.8424C16.8252 54.9343 17.1317 54.9401 17.2411 54.8497C17.7087 54.4589 18.136 54.0185 18.5863 53.5868C17.6511 52.8693 16.5102 52.9393 15.5965 53.7706ZM9.8486 4.33889C10.6083 5.23868 11.8859 5.43264 12.7132 4.78223C12.3334 4.32139 11.9722 3.84598 11.5636 3.41431C11.4643 3.30931 11.1521 3.26556 11.0399 3.34431C10.6198 3.64327 10.2414 4.00348 9.8486 4.33889ZM3.98556 9.31764C3.57839 9.66764 3.1597 10.0045 2.77267 10.3764C2.69354 10.4522 2.66332 10.7074 2.72519 10.7906C3.11078 11.3024 3.52947 11.7895 3.94384 12.2926C4.69776 11.3637 4.70783 10.2247 3.98556 9.31764ZM24.4839 19.0024C23.7343 19.9518 23.7429 21.2643 24.4767 21.957C24.8465 21.6435 25.2133 21.3241 25.5917 21.0164C25.8162 20.8341 25.8622 20.6518 25.6637 20.4185C25.2781 19.9649 24.8997 19.5041 24.4839 19.0024ZM20.8754 53.7691C20.4567 54.1949 20.0265 54.6324 19.6683 54.9956C20.1719 54.9956 20.8078 54.9956 21.4711 54.9956C21.2437 54.5274 21.0337 54.0943 20.8754 53.7691Z" fill="#F1F2F4"/>
<path d="M51.1575 0.666809C51.4927 0.958476 51.8049 1.26035 51.6049 1.77368C51.4078 2.27827 50.9891 2.31181 50.5359 2.31035C47.4612 2.30452 44.3851 2.30743 41.3104 2.30743C40.6414 2.30743 40.6083 2.33952 40.6083 3.01473C40.6069 6.55118 40.6069 10.0876 40.6083 13.6241C40.6083 14.2789 40.6558 14.3241 41.3277 14.3241C44.3664 14.3256 47.4066 14.3241 50.4453 14.3256C50.6251 14.3256 50.8524 14.2628 50.9747 14.3503C51.2323 14.5326 51.5819 14.7733 51.6164 15.0285C51.651 15.2837 51.392 15.6293 51.1776 15.8539C51.0596 15.9778 50.7719 15.9618 50.5604 15.9618C47.431 15.9676 44.3017 15.9676 41.1723 15.9647C40.0328 15.9633 39.4616 15.5462 39.0487 14.4772C38.9998 14.3503 38.8113 14.1987 38.6832 14.1958C37.5869 14.1739 36.4891 14.1695 35.3927 14.1972C35.2129 14.2016 34.9985 14.3533 34.8661 14.4991C34.023 15.4222 33.1914 16.3556 32.3698 17.2976C31.7857 17.967 31.0778 18.3024 30.1872 18.2893C28.8405 18.2703 27.4953 18.2849 26.0147 18.2849C26.3385 18.6801 26.596 18.9922 26.8521 19.3058C27.7111 20.3572 27.6147 21.4276 26.5802 22.3158C26.2378 22.6089 25.8939 22.8991 25.4177 23.3045C26.1083 23.3045 26.6507 23.3045 27.1931 23.3045C27.4089 23.3045 27.6262 23.2899 27.8406 23.3103C28.2938 23.3541 28.5671 23.6078 28.6046 24.076C28.6405 24.5178 28.3341 24.8751 27.8751 24.9335C27.6981 24.9568 27.5154 24.9437 27.3355 24.9437C20.4121 24.9437 13.4873 24.9437 6.56386 24.9437C6.34948 24.9437 6.1351 24.9437 5.88044 24.9437C5.88044 26.071 5.88044 27.1691 5.88044 28.2993C15.9217 28.2993 25.9471 28.2993 36.0056 28.2993C36.0056 27.1968 36.0056 26.1118 36.0056 24.9437C35.8186 24.9437 35.6301 24.9437 35.4402 24.9437C34.2172 24.9437 32.9943 24.9481 31.7713 24.9422C31.1498 24.9393 30.7714 24.6141 30.7757 24.1124C30.78 23.6122 31.1555 23.306 31.7871 23.3045C33.2432 23.3001 34.7007 23.2987 36.1567 23.306C37.1164 23.3103 37.6473 23.8543 37.6559 24.8401C37.6646 26.0243 37.6631 27.2099 37.6559 28.3941C37.6502 29.4281 37.1135 29.9618 36.0776 29.9691C35.0546 29.9764 34.0316 29.9706 32.9324 29.9706C32.9324 30.4912 32.9051 30.9783 32.9482 31.4595C32.9626 31.6243 33.1295 31.8008 33.2676 31.9262C34.4892 33.0301 35.7064 34.1399 36.9524 35.2147C37.5768 35.7528 37.853 36.3916 37.8516 37.2185C37.8387 42.5953 37.8473 47.9737 37.843 53.3506C37.8415 55.4476 36.6243 56.6668 34.5467 56.6668C25.4651 56.6668 16.3821 56.6683 7.30051 56.6668C5.26464 56.6668 4.04311 55.4374 4.0388 53.371C4.03304 51.0376 4.03592 48.7043 4.04023 46.371C4.04023 46.1726 4.0057 45.9101 4.11217 45.7891C4.31936 45.5543 4.59704 45.2831 4.87904 45.2378C5.25457 45.1766 5.55527 45.4522 5.62721 45.8693C5.66174 46.0647 5.65455 46.2689 5.65455 46.4687C5.65599 48.7291 5.65455 50.9895 5.65599 53.2499C5.65743 54.5566 6.12215 55.0247 7.4113 55.0247C9.56947 55.0247 11.7276 55.0247 13.8858 55.0247C14.0613 55.0247 14.2354 55.0247 14.529 55.0247C14.3347 54.8074 14.2153 54.6645 14.0844 54.5318C12.1017 52.5193 10.1162 50.5097 8.13357 48.4987C7.07606 47.4253 7.07319 46.3914 8.12494 45.3253C9.29467 44.1397 10.4658 42.9556 11.6571 41.7495C11.1809 40.9693 10.8802 40.1526 10.8903 39.2295C10.9234 36.0489 14.2743 34.0364 17.0252 35.572C17.3892 35.7747 17.5835 35.7616 17.877 35.4553C19.1935 34.0831 20.5387 32.7399 21.8754 31.3881C22.8811 30.3716 23.9127 30.3745 24.927 31.3997C27.3715 33.8716 29.8117 36.3478 32.2519 38.8241C33.2849 39.8726 33.2892 40.9168 32.2634 41.9581C30.3196 43.9312 28.3743 45.9043 26.4234 47.8716C26.2852 48.0116 26.1068 48.1108 25.8378 48.3106C27.3499 48.8487 28.3326 49.7266 28.7887 51.1105C29.2391 52.477 29.0002 53.7633 28.1528 55.0247C28.7412 55.0247 29.2362 55.0247 29.7326 55.0247C31.3512 55.0247 32.9698 55.0262 34.5884 55.0247C35.7035 55.0233 36.22 54.5201 36.2215 53.4001C36.2272 48.0043 36.2287 42.6085 36.2085 37.2126C36.2071 36.9501 36.0359 36.6191 35.8387 36.4368C34.6043 35.2935 33.3568 34.1633 32.0792 33.071C31.5181 32.5912 31.2577 32.0443 31.308 31.3122C31.3368 30.8966 31.3138 30.4766 31.3138 30.0143C24.4119 30.0143 17.5346 30.0143 10.5665 30.0143C10.5665 30.4941 10.5536 30.9958 10.5694 31.496C10.5896 32.1056 10.3651 32.5766 9.90759 32.9762C8.61412 34.1078 7.34655 35.2687 6.05165 36.3989C5.76677 36.6483 5.6416 36.9049 5.64592 37.2885C5.66318 38.8562 5.65023 40.4239 5.65455 41.9916C5.65599 42.3999 5.58117 42.7601 5.17399 42.9453C4.66035 43.1801 4.06613 42.8403 4.0575 42.2293C4.0316 40.3714 4.0129 38.5106 4.09635 36.6556C4.11649 36.2122 4.46036 35.6974 4.79991 35.3708C5.94662 34.2683 7.14513 33.2168 8.35514 32.1828C8.78965 31.8124 9.04576 31.4318 8.95367 30.8397C8.91339 30.5772 8.94648 30.3031 8.94648 29.9706C7.92782 29.9706 6.9624 29.972 5.99698 29.9706C4.68769 29.9691 4.22008 29.4922 4.22008 28.1564C4.22008 27.0626 4.21577 25.9689 4.22152 24.8751C4.22728 23.8295 4.75099 23.3074 5.79123 23.3045C7.42713 23.3001 9.06446 23.3016 10.7004 23.2987C10.7334 23.2987 10.7651 23.2797 10.8816 23.2433C10.6874 23.0041 10.5148 22.7853 10.3363 22.571C7.43576 19.0666 4.53374 15.5622 1.63171 12.0578C1.58567 12.0024 1.53963 11.9456 1.49503 11.8887C0.75118 10.9437 0.836068 9.85868 1.74538 9.08139C4.4877 6.7466 7.22857 4.41618 9.97521 2.09014C10.932 1.27931 12.0025 1.38577 12.8211 2.35702C13.3348 2.9666 13.8239 3.59806 14.3577 4.19014C14.4786 4.32431 14.7592 4.42493 14.9304 4.3841C17.4324 3.80223 19.9316 3.20139 22.4235 2.57868C22.6998 2.51014 22.9789 2.31618 23.1818 2.10618C24.1285 1.13202 25.2177 0.881184 26.5341 1.16556C28.6765 1.62785 30.839 1.99535 32.9957 2.38618C33.3281 2.44598 33.6763 2.43285 34.0173 2.43431C35.528 2.43868 37.0387 2.44306 38.5494 2.42702C38.7134 2.42556 38.9954 2.32785 39.0185 2.22577C39.2098 1.41056 39.7709 0.977434 40.4716 0.666809C44.0355 0.666809 47.5965 0.666809 51.1575 0.666809ZM10.2543 16.1908C11.414 17.5878 12.8369 17.6987 14.1074 16.5349C16.6555 14.2016 19.2036 11.8712 21.7372 9.52181C22.2768 9.0216 22.8537 8.78535 23.5904 8.84077C25.0062 8.94868 26.4248 9.0216 27.8434 9.07118C28.0923 9.07993 28.3945 8.95597 28.5902 8.79264C29.0822 8.38139 29.5167 8.31139 29.8721 8.67452C30.2304 9.04202 30.1887 9.50285 29.7369 9.96514C28.8894 10.8328 28.0132 11.6714 27.1902 12.5624C26.5672 13.2362 25.8478 13.5308 24.94 13.5089C23.3947 13.4724 21.848 13.4928 20.3028 13.5016C19.5733 13.506 19.2956 13.7933 19.2755 14.5297C19.2669 14.8753 19.2683 15.2224 19.2741 15.5681C19.2884 16.376 19.5532 16.6414 20.3531 16.6428C23.6062 16.6443 26.8608 16.6385 30.1138 16.6501C30.5642 16.6516 30.9008 16.5101 31.1987 16.1689C32.1137 15.1174 33.0576 14.0893 33.9683 13.0335C34.2647 12.6893 34.5942 12.5274 35.0445 12.5347C36.0143 12.5522 36.9855 12.5406 37.9566 12.5391C38.289 12.5391 38.6213 12.5391 38.9451 12.5391C38.9451 9.6691 38.9451 6.89389 38.9451 4.07493C37.161 4.07493 35.4201 4.07931 33.6791 4.07202C33.3583 4.07056 33.0317 4.04868 32.7152 3.99035C30.4534 3.57764 28.1916 3.16785 25.9356 2.72452C25.3213 2.60348 24.868 2.77848 24.422 3.18973C20.8294 6.49722 17.2267 9.7916 13.6268 13.0918C12.5075 14.1185 11.3924 15.1437 10.2543 16.1908ZM11.4543 49.4568C12.4701 50.4849 13.4599 51.4868 14.4685 52.5091C16.1519 51.1426 17.9274 51.0756 19.8553 52.3866C20.297 51.7522 20.7646 51.1645 21.1416 50.5228C21.5574 49.817 22.0336 49.1491 22.7689 48.8268C23.5962 48.4637 24.1745 47.8439 24.7817 47.2314C25.6853 46.3185 26.5831 45.3983 27.4924 44.4912C27.9125 44.0712 28.3542 43.6731 28.7801 43.2706C27.4981 41.3368 27.5945 39.5401 28.9081 37.8689C27.8866 36.8291 26.8996 35.8258 25.8982 34.8049C24.2148 36.1656 22.4408 36.2283 20.7301 35.0601C20.0208 35.7806 19.3532 36.4572 18.736 37.0828C18.8913 37.7318 19.1546 38.3924 19.1906 39.0647C19.3618 42.2658 16.0929 44.4328 13.2225 43.0635C13.0743 42.992 12.8197 42.9424 12.7146 43.0212C12.3032 43.3318 11.9305 43.6964 11.5737 44.0143C12.8513 46.0297 12.7909 47.5187 11.4543 49.4568ZM17.5979 15.5491C16.7504 16.3249 15.985 17.0366 15.2095 17.7366C13.247 19.507 10.8615 19.367 9.11338 17.3837C8.36377 16.5335 8.40406 15.676 9.23999 14.9016C10.1033 14.1024 10.9737 13.3135 11.8399 12.5187C13.211 11.2616 14.5822 10.0031 15.9792 8.72118C15.2469 7.83743 14.5361 6.97993 13.8355 6.13264C11.8744 7.22931 10.1349 6.97118 8.54218 5.44577C7.44439 6.38056 6.36243 7.30223 5.28478 8.21952C6.51926 10.1008 6.42142 11.8785 5.05889 13.5993C5.10493 13.6708 5.13803 13.7335 5.18263 13.7874C7.73503 16.8718 10.286 19.9576 12.8513 23.0303C12.9779 23.182 13.2412 23.2899 13.4412 23.2914C16.4785 23.3074 19.5172 23.3045 22.5545 23.2972C22.7458 23.2972 22.9358 23.2141 23.2048 23.1514C22.0883 21.5428 22.0365 19.9591 22.9142 18.2835C21.907 18.2835 20.9776 18.2951 20.0467 18.2806C18.9575 18.2631 18.0209 17.5222 17.7446 16.4722C17.6756 16.2126 17.6583 15.9385 17.5979 15.5491ZM24.8882 49.8783C23.4724 49.8637 22.3415 50.972 22.32 52.3953C22.2969 53.8464 23.4221 55.0189 24.8393 55.0247C26.2262 55.0291 27.3816 53.877 27.3989 52.4726C27.4161 51.0697 26.278 49.8928 24.8882 49.8783ZM12.5161 39.2543C12.5118 40.682 13.6211 41.821 15.0268 41.8341C16.4253 41.8472 17.5749 40.7112 17.5936 39.301C17.6123 37.8747 16.4483 36.6789 15.0455 36.6818C13.6571 36.6847 12.519 37.8412 12.5161 39.2543ZM26.6953 10.6564C25.5184 10.5922 24.4479 10.5324 23.3775 10.4814C23.2609 10.4756 23.1098 10.4974 23.0264 10.5689C22.5861 10.951 22.1631 11.352 21.6135 11.8581C22.7113 11.8581 23.6465 11.7778 24.5616 11.8799C25.5702 11.9937 26.104 11.4235 26.6953 10.6564ZM20.2553 4.80118C18.6784 5.18473 17.2612 5.53035 15.7534 5.89639C16.2641 6.51181 16.7159 7.05577 17.1849 7.62014C18.205 6.68389 19.1705 5.79868 20.2553 4.80118ZM21.8063 33.7374C22.7991 34.4608 24.1012 34.3441 24.7515 33.4837C24.4062 33.1526 24.0451 32.8245 23.7069 32.4745C23.4739 32.2339 23.294 32.2645 23.0753 32.4906C22.6725 32.9047 22.2523 33.2999 21.8063 33.7374ZM30.1872 39.0049C29.3441 39.8726 29.2678 41.1851 29.9829 41.9756C30.4002 41.5483 30.8332 41.137 31.2188 40.6835C31.3138 40.5726 31.3296 40.2576 31.2433 40.1483C30.9224 39.7414 30.544 39.3812 30.1872 39.0049ZM10.4054 45.2743C9.96802 45.7395 9.54789 46.1624 9.16086 46.6131C9.06878 46.721 8.9954 46.9951 9.05727 47.0666C9.42416 47.4968 9.83421 47.8906 10.2328 48.3003C11.0183 47.3378 11.0845 46.3039 10.4054 45.2743ZM15.5965 53.7706C15.9807 54.1483 16.3246 54.5245 16.713 54.8424C16.8252 54.9343 17.1317 54.9401 17.2411 54.8497C17.7087 54.4589 18.136 54.0185 18.5863 53.5868C17.6511 52.8693 16.5102 52.9393 15.5965 53.7706ZM9.8486 4.33889C10.6083 5.23868 11.8859 5.43264 12.7132 4.78223C12.3334 4.32139 11.9722 3.84598 11.5636 3.41431C11.4643 3.30931 11.1521 3.26556 11.0399 3.34431C10.6198 3.64327 10.2414 4.00348 9.8486 4.33889ZM3.98556 9.31764C3.57839 9.66764 3.1597 10.0045 2.77267 10.3764C2.69354 10.4522 2.66332 10.7074 2.72519 10.7906C3.11078 11.3024 3.52947 11.7895 3.94384 12.2926C4.69776 11.3637 4.70783 10.2247 3.98556 9.31764ZM24.4839 19.0024C23.7343 19.9518 23.7429 21.2643 24.4767 21.957C24.8465 21.6435 25.2133 21.3241 25.5917 21.0164C25.8162 20.8341 25.8622 20.6518 25.6637 20.4185C25.2781 19.9649 24.8997 19.5041 24.4839 19.0024ZM20.8754 53.7691C20.4567 54.1949 20.0265 54.6324 19.6683 54.9956C20.1719 54.9956 20.8078 54.9956 21.4711 54.9956C21.2437 54.5274 21.0337 54.0943 20.8754 53.7691Z" fill="url(#paint0_linear_539_869)"/>
<path d="M51.1575 0.666809C51.4927 0.958476 51.8049 1.26035 51.6049 1.77368C51.4078 2.27827 50.9891 2.31181 50.5359 2.31035C47.4612 2.30452 44.3851 2.30743 41.3104 2.30743C40.6414 2.30743 40.6083 2.33952 40.6083 3.01473C40.6069 6.55118 40.6069 10.0876 40.6083 13.6241C40.6083 14.2789 40.6558 14.3241 41.3277 14.3241C44.3664 14.3256 47.4066 14.3241 50.4453 14.3256C50.6251 14.3256 50.8524 14.2628 50.9747 14.3503C51.2323 14.5326 51.5819 14.7733 51.6164 15.0285C51.651 15.2837 51.392 15.6293 51.1776 15.8539C51.0596 15.9778 50.7719 15.9618 50.5604 15.9618C47.431 15.9676 44.3017 15.9676 41.1723 15.9647C40.0328 15.9633 39.4616 15.5462 39.0487 14.4772C38.9998 14.3503 38.8113 14.1987 38.6832 14.1958C37.5869 14.1739 36.4891 14.1695 35.3927 14.1972C35.2129 14.2016 34.9985 14.3533 34.8661 14.4991C34.023 15.4222 33.1914 16.3556 32.3698 17.2976C31.7857 17.967 31.0778 18.3024 30.1872 18.2893C28.8405 18.2703 27.4953 18.2849 26.0147 18.2849C26.3385 18.6801 26.596 18.9922 26.8521 19.3058C27.7111 20.3572 27.6147 21.4276 26.5802 22.3158C26.2378 22.6089 25.8939 22.8991 25.4177 23.3045C26.1083 23.3045 26.6507 23.3045 27.1931 23.3045C27.4089 23.3045 27.6262 23.2899 27.8406 23.3103C28.2938 23.3541 28.5671 23.6078 28.6046 24.076C28.6405 24.5178 28.3341 24.8751 27.8751 24.9335C27.6981 24.9568 27.5154 24.9437 27.3355 24.9437C20.4121 24.9437 13.4873 24.9437 6.56386 24.9437C6.34948 24.9437 6.1351 24.9437 5.88044 24.9437C5.88044 26.071 5.88044 27.1691 5.88044 28.2993C15.9217 28.2993 25.9471 28.2993 36.0056 28.2993C36.0056 27.1968 36.0056 26.1118 36.0056 24.9437C35.8186 24.9437 35.6301 24.9437 35.4402 24.9437C34.2172 24.9437 32.9943 24.9481 31.7713 24.9422C31.1498 24.9393 30.7714 24.6141 30.7757 24.1124C30.78 23.6122 31.1555 23.306 31.7871 23.3045C33.2432 23.3001 34.7007 23.2987 36.1567 23.306C37.1164 23.3103 37.6473 23.8543 37.6559 24.8401C37.6646 26.0243 37.6631 27.2099 37.6559 28.3941C37.6502 29.4281 37.1135 29.9618 36.0776 29.9691C35.0546 29.9764 34.0316 29.9706 32.9324 29.9706C32.9324 30.4912 32.9051 30.9783 32.9482 31.4595C32.9626 31.6243 33.1295 31.8008 33.2676 31.9262C34.4892 33.0301 35.7064 34.1399 36.9524 35.2147C37.5768 35.7528 37.853 36.3916 37.8516 37.2185C37.8387 42.5953 37.8473 47.9737 37.843 53.3506C37.8415 55.4476 36.6243 56.6668 34.5467 56.6668C25.4651 56.6668 16.3821 56.6683 7.30051 56.6668C5.26464 56.6668 4.04311 55.4374 4.0388 53.371C4.03304 51.0376 4.03592 48.7043 4.04023 46.371C4.04023 46.1726 4.0057 45.9101 4.11217 45.7891C4.31936 45.5543 4.59704 45.2831 4.87904 45.2378C5.25457 45.1766 5.55527 45.4522 5.62721 45.8693C5.66174 46.0647 5.65455 46.2689 5.65455 46.4687C5.65599 48.7291 5.65455 50.9895 5.65599 53.2499C5.65743 54.5566 6.12215 55.0247 7.4113 55.0247C9.56947 55.0247 11.7276 55.0247 13.8858 55.0247C14.0613 55.0247 14.2354 55.0247 14.529 55.0247C14.3347 54.8074 14.2153 54.6645 14.0844 54.5318C12.1017 52.5193 10.1162 50.5097 8.13357 48.4987C7.07606 47.4253 7.07319 46.3914 8.12494 45.3253C9.29467 44.1397 10.4658 42.9556 11.6571 41.7495C11.1809 40.9693 10.8802 40.1526 10.8903 39.2295C10.9234 36.0489 14.2743 34.0364 17.0252 35.572C17.3892 35.7747 17.5835 35.7616 17.877 35.4553C19.1935 34.0831 20.5387 32.7399 21.8754 31.3881C22.8811 30.3716 23.9127 30.3745 24.927 31.3997C27.3715 33.8716 29.8117 36.3478 32.2519 38.8241C33.2849 39.8726 33.2892 40.9168 32.2634 41.9581C30.3196 43.9312 28.3743 45.9043 26.4234 47.8716C26.2852 48.0116 26.1068 48.1108 25.8378 48.3106C27.3499 48.8487 28.3326 49.7266 28.7887 51.1105C29.2391 52.477 29.0002 53.7633 28.1528 55.0247C28.7412 55.0247 29.2362 55.0247 29.7326 55.0247C31.3512 55.0247 32.9698 55.0262 34.5884 55.0247C35.7035 55.0233 36.22 54.5201 36.2215 53.4001C36.2272 48.0043 36.2287 42.6085 36.2085 37.2126C36.2071 36.9501 36.0359 36.6191 35.8387 36.4368C34.6043 35.2935 33.3568 34.1633 32.0792 33.071C31.5181 32.5912 31.2577 32.0443 31.308 31.3122C31.3368 30.8966 31.3138 30.4766 31.3138 30.0143C24.4119 30.0143 17.5346 30.0143 10.5665 30.0143C10.5665 30.4941 10.5536 30.9958 10.5694 31.496C10.5896 32.1056 10.3651 32.5766 9.90759 32.9762C8.61412 34.1078 7.34655 35.2687 6.05165 36.3989C5.76677 36.6483 5.6416 36.9049 5.64592 37.2885C5.66318 38.8562 5.65023 40.4239 5.65455 41.9916C5.65599 42.3999 5.58117 42.7601 5.17399 42.9453C4.66035 43.1801 4.06613 42.8403 4.0575 42.2293C4.0316 40.3714 4.0129 38.5106 4.09635 36.6556C4.11649 36.2122 4.46036 35.6974 4.79991 35.3708C5.94662 34.2683 7.14513 33.2168 8.35514 32.1828C8.78965 31.8124 9.04576 31.4318 8.95367 30.8397C8.91339 30.5772 8.94648 30.3031 8.94648 29.9706C7.92782 29.9706 6.9624 29.972 5.99698 29.9706C4.68769 29.9691 4.22008 29.4922 4.22008 28.1564C4.22008 27.0626 4.21577 25.9689 4.22152 24.8751C4.22728 23.8295 4.75099 23.3074 5.79123 23.3045C7.42713 23.3001 9.06446 23.3016 10.7004 23.2987C10.7334 23.2987 10.7651 23.2797 10.8816 23.2433C10.6874 23.0041 10.5148 22.7853 10.3363 22.571C7.43576 19.0666 4.53374 15.5622 1.63171 12.0578C1.58567 12.0024 1.53963 11.9456 1.49503 11.8887C0.75118 10.9437 0.836068 9.85868 1.74538 9.08139C4.4877 6.7466 7.22857 4.41618 9.97521 2.09014C10.932 1.27931 12.0025 1.38577 12.8211 2.35702C13.3348 2.9666 13.8239 3.59806 14.3577 4.19014C14.4786 4.32431 14.7592 4.42493 14.9304 4.3841C17.4324 3.80223 19.9316 3.20139 22.4235 2.57868C22.6998 2.51014 22.9789 2.31618 23.1818 2.10618C24.1285 1.13202 25.2177 0.881184 26.5341 1.16556C28.6765 1.62785 30.839 1.99535 32.9957 2.38618C33.3281 2.44598 33.6763 2.43285 34.0173 2.43431C35.528 2.43868 37.0387 2.44306 38.5494 2.42702C38.7134 2.42556 38.9954 2.32785 39.0185 2.22577C39.2098 1.41056 39.7709 0.977434 40.4716 0.666809C44.0355 0.666809 47.5965 0.666809 51.1575 0.666809ZM10.2543 16.1908C11.414 17.5878 12.8369 17.6987 14.1074 16.5349C16.6555 14.2016 19.2036 11.8712 21.7372 9.52181C22.2768 9.0216 22.8537 8.78535 23.5904 8.84077C25.0062 8.94868 26.4248 9.0216 27.8434 9.07118C28.0923 9.07993 28.3945 8.95597 28.5902 8.79264C29.0822 8.38139 29.5167 8.31139 29.8721 8.67452C30.2304 9.04202 30.1887 9.50285 29.7369 9.96514C28.8894 10.8328 28.0132 11.6714 27.1902 12.5624C26.5672 13.2362 25.8478 13.5308 24.94 13.5089C23.3947 13.4724 21.848 13.4928 20.3028 13.5016C19.5733 13.506 19.2956 13.7933 19.2755 14.5297C19.2669 14.8753 19.2683 15.2224 19.2741 15.5681C19.2884 16.376 19.5532 16.6414 20.3531 16.6428C23.6062 16.6443 26.8608 16.6385 30.1138 16.6501C30.5642 16.6516 30.9008 16.5101 31.1987 16.1689C32.1137 15.1174 33.0576 14.0893 33.9683 13.0335C34.2647 12.6893 34.5942 12.5274 35.0445 12.5347C36.0143 12.5522 36.9855 12.5406 37.9566 12.5391C38.289 12.5391 38.6213 12.5391 38.9451 12.5391C38.9451 9.6691 38.9451 6.89389 38.9451 4.07493C37.161 4.07493 35.4201 4.07931 33.6791 4.07202C33.3583 4.07056 33.0317 4.04868 32.7152 3.99035C30.4534 3.57764 28.1916 3.16785 25.9356 2.72452C25.3213 2.60348 24.868 2.77848 24.422 3.18973C20.8294 6.49722 17.2267 9.7916 13.6268 13.0918C12.5075 14.1185 11.3924 15.1437 10.2543 16.1908ZM11.4543 49.4568C12.4701 50.4849 13.4599 51.4868 14.4685 52.5091C16.1519 51.1426 17.9274 51.0756 19.8553 52.3866C20.297 51.7522 20.7646 51.1645 21.1416 50.5228C21.5574 49.817 22.0336 49.1491 22.7689 48.8268C23.5962 48.4637 24.1745 47.8439 24.7817 47.2314C25.6853 46.3185 26.5831 45.3983 27.4924 44.4912C27.9125 44.0712 28.3542 43.6731 28.7801 43.2706C27.4981 41.3368 27.5945 39.5401 28.9081 37.8689C27.8866 36.8291 26.8996 35.8258 25.8982 34.8049C24.2148 36.1656 22.4408 36.2283 20.7301 35.0601C20.0208 35.7806 19.3532 36.4572 18.736 37.0828C18.8913 37.7318 19.1546 38.3924 19.1906 39.0647C19.3618 42.2658 16.0929 44.4328 13.2225 43.0635C13.0743 42.992 12.8197 42.9424 12.7146 43.0212C12.3032 43.3318 11.9305 43.6964 11.5737 44.0143C12.8513 46.0297 12.7909 47.5187 11.4543 49.4568ZM17.5979 15.5491C16.7504 16.3249 15.985 17.0366 15.2095 17.7366C13.247 19.507 10.8615 19.367 9.11338 17.3837C8.36377 16.5335 8.40406 15.676 9.23999 14.9016C10.1033 14.1024 10.9737 13.3135 11.8399 12.5187C13.211 11.2616 14.5822 10.0031 15.9792 8.72118C15.2469 7.83743 14.5361 6.97993 13.8355 6.13264C11.8744 7.22931 10.1349 6.97118 8.54218 5.44577C7.44439 6.38056 6.36243 7.30223 5.28478 8.21952C6.51926 10.1008 6.42142 11.8785 5.05889 13.5993C5.10493 13.6708 5.13803 13.7335 5.18263 13.7874C7.73503 16.8718 10.286 19.9576 12.8513 23.0303C12.9779 23.182 13.2412 23.2899 13.4412 23.2914C16.4785 23.3074 19.5172 23.3045 22.5545 23.2972C22.7458 23.2972 22.9358 23.2141 23.2048 23.1514C22.0883 21.5428 22.0365 19.9591 22.9142 18.2835C21.907 18.2835 20.9776 18.2951 20.0467 18.2806C18.9575 18.2631 18.0209 17.5222 17.7446 16.4722C17.6756 16.2126 17.6583 15.9385 17.5979 15.5491ZM24.8882 49.8783C23.4724 49.8637 22.3415 50.972 22.32 52.3953C22.2969 53.8464 23.4221 55.0189 24.8393 55.0247C26.2262 55.0291 27.3816 53.877 27.3989 52.4726C27.4161 51.0697 26.278 49.8928 24.8882 49.8783ZM12.5161 39.2543C12.5118 40.682 13.6211 41.821 15.0268 41.8341C16.4253 41.8472 17.5749 40.7112 17.5936 39.301C17.6123 37.8747 16.4483 36.6789 15.0455 36.6818C13.6571 36.6847 12.519 37.8412 12.5161 39.2543ZM26.6953 10.6564C25.5184 10.5922 24.4479 10.5324 23.3775 10.4814C23.2609 10.4756 23.1098 10.4974 23.0264 10.5689C22.5861 10.951 22.1631 11.352 21.6135 11.8581C22.7113 11.8581 23.6465 11.7778 24.5616 11.8799C25.5702 11.9937 26.104 11.4235 26.6953 10.6564ZM20.2553 4.80118C18.6784 5.18473 17.2612 5.53035 15.7534 5.89639C16.2641 6.51181 16.7159 7.05577 17.1849 7.62014C18.205 6.68389 19.1705 5.79868 20.2553 4.80118ZM21.8063 33.7374C22.7991 34.4608 24.1012 34.3441 24.7515 33.4837C24.4062 33.1526 24.0451 32.8245 23.7069 32.4745C23.4739 32.2339 23.294 32.2645 23.0753 32.4906C22.6725 32.9047 22.2523 33.2999 21.8063 33.7374ZM30.1872 39.0049C29.3441 39.8726 29.2678 41.1851 29.9829 41.9756C30.4002 41.5483 30.8332 41.137 31.2188 40.6835C31.3138 40.5726 31.3296 40.2576 31.2433 40.1483C30.9224 39.7414 30.544 39.3812 30.1872 39.0049ZM10.4054 45.2743C9.96802 45.7395 9.54789 46.1624 9.16086 46.6131C9.06878 46.721 8.9954 46.9951 9.05727 47.0666C9.42416 47.4968 9.83421 47.8906 10.2328 48.3003C11.0183 47.3378 11.0845 46.3039 10.4054 45.2743ZM15.5965 53.7706C15.9807 54.1483 16.3246 54.5245 16.713 54.8424C16.8252 54.9343 17.1317 54.9401 17.2411 54.8497C17.7087 54.4589 18.136 54.0185 18.5863 53.5868C17.6511 52.8693 16.5102 52.9393 15.5965 53.7706ZM9.8486 4.33889C10.6083 5.23868 11.8859 5.43264 12.7132 4.78223C12.3334 4.32139 11.9722 3.84598 11.5636 3.41431C11.4643 3.30931 11.1521 3.26556 11.0399 3.34431C10.6198 3.64327 10.2414 4.00348 9.8486 4.33889ZM3.98556 9.31764C3.57839 9.66764 3.1597 10.0045 2.77267 10.3764C2.69354 10.4522 2.66332 10.7074 2.72519 10.7906C3.11078 11.3024 3.52947 11.7895 3.94384 12.2926C4.69776 11.3637 4.70783 10.2247 3.98556 9.31764ZM24.4839 19.0024C23.7343 19.9518 23.7429 21.2643 24.4767 21.957C24.8465 21.6435 25.2133 21.3241 25.5917 21.0164C25.8162 20.8341 25.8622 20.6518 25.6637 20.4185C25.2781 19.9649 24.8997 19.5041 24.4839 19.0024ZM20.8754 53.7691C20.4567 54.1949 20.0265 54.6324 19.6683 54.9956C20.1719 54.9956 20.8078 54.9956 21.4711 54.9956C21.2437 54.5274 21.0337 54.0943 20.8754 53.7691Z" fill="url(#paint1_linear_539_869)"/>
<defs>
<linearGradient id="paint0_linear_539_869" x1="5.78948" y1="28.7979" x2="43.195" y2="28.7979" gradientUnits="userSpaceOnUse">
<stop stop-color="#FF1C54"/>
<stop offset="1" stop-color="#FF4444"/>
</linearGradient>
<linearGradient id="paint1_linear_539_869" x1="15.4605" y1="28.6671" x2="42.7181" y2="28.6671" gradientUnits="userSpaceOnUse">
<stop stop-color="#1882DB"/>
<stop offset="1" stop-color="#0197D5"/>
</linearGradient>
</defs>
</svg>
